<?xml version="1.0" encoding="iso-8859-1"?>
<!-- Generator: Adobe Illustrator 19.0.0, SVG Export Plug-In . SVG Version: 6.00 Build 0)  -->
<svg version="1.1" id="Capa_1" xmlns="http://www.w3.org/2000/svg" xmlns:xlink="http://www.w3.org/1999/xlink" x="0px" y="0px"
	 viewBox="0 0 512 512" style="enable-background:new 0 0 512 512;" xml:space="preserve">
<g>
	<g>
		<path d="M419.498,243.424c-1.482-88.898-74.26-160.754-163.505-160.754c-90.17,0-163.528,73.358-163.528,163.527
			c0,47.158,20.032,91.392,55.215,122.483V512h194.664v-73.153h77.177v-81.94h42.395L419.498,243.424z M389.52,326.907v81.94
			h-77.177v73.153H177.681V354.563l-5.568-4.503c-31.551-25.516-49.647-63.373-49.647-103.863
			c0-73.627,59.9-133.526,133.527-133.526c73.628,0,133.527,59.899,133.527,133.526v2.712l29.154,77.998H389.52z"/>
	</g>
</g>
<g>
	<g>
		<rect x="240.989" width="30.001" height="52.632"/>
	</g>
</g>
<g>
	<g>
		
			<rect x="313.834" y="28.058" transform="matrix(0.3827 -0.9239 0.9239 0.3827 170.1975 340.8373)" width="52.633" height="30.001"/>
	</g>
</g>
<g>
	<g>
		<rect x="156.851" y="16.747" transform="matrix(0.9239 -0.3827 0.3827 0.9239 -3.3979 69.0442)" width="30.001" height="52.633"/>
	</g>
</g>
<g>
	<g>
		<rect x="385.153" y="75.717" transform="matrix(0.7071 -0.7071 0.7071 0.7071 56.3695 317.5224)" width="52.631" height="30"/>
	</g>
</g>
<g>
	<g>
		
			<rect x="432.831" y="147.058" transform="matrix(0.9239 -0.3827 0.3827 0.9239 -27.0665 188.0478)" width="52.635" height="30.001"/>
	</g>
</g>
<g>
	<g>
		<rect x="85.512" y="64.402" transform="matrix(0.7071 -0.7071 0.7071 0.7071 -34.7079 97.6432)" width="30" height="52.632"/>
	</g>
</g>
<g>
	<g>
		
			<rect x="37.85" y="135.742" transform="matrix(0.3827 -0.9239 0.9239 0.3827 -117.0968 148.8681)" width="30.001" height="52.634"/>
	</g>
</g>
<g>
	<g>
		<path d="M255.994,142.669c-50.623,0-91.809,41.186-91.809,91.81c0,33.043,17.782,63.283,46.047,79.559v54.751h91.524h0.001
			v-54.751c28.265-16.277,46.047-46.516,46.047-79.559C347.804,183.855,306.618,142.669,255.994,142.669z M280.726,291.103
			l-8.971,3.938v43.748h-31.523h-0.001v-43.748l-8.971-3.938c-22.523-9.886-37.076-32.112-37.076-56.622
			c0-34.082,27.727-61.809,61.808-61.809c34.082,0,61.809,27.728,61.809,61.809C317.802,258.991,303.248,281.217,280.726,291.103z"
			/>
	</g>
</g>
<g>
</g>
<g>
</g>
<g>
</g>
<g>
</g>
<g>
</g>
<g>
</g>
<g>
</g>
<g>
</g>
<g>
</g>
<g>
</g>
<g>
</g>
<g>
</g>
<g>
</g>
<g>
</g>
<g>
</g>
</svg>
