<?xml version="1.0" encoding="iso-8859-1"?>
<!-- Generator: Adobe Illustrator 19.0.0, SVG Export Plug-In . SVG Version: 6.00 Build 0)  -->
<svg xmlns="http://www.w3.org/2000/svg" xmlns:xlink="http://www.w3.org/1999/xlink" version="1.1" id="Capa_1" x="0px" y="0px" viewBox="0 0 512 512" style="enable-background:new 0 0 512 512;" xml:space="preserve" width="512px" height="512px">
<g>
	<g>
		<path d="M499.456,250.889l-50.005-37.555c-7.33-5.504-16.427-8.533-25.6-8.533H8.533c-4.71,0-8.533,3.823-8.533,8.533v34.133    c0,3.328,1.937,6.357,4.958,7.748l110.933,51.2c1.118,0.521,2.338,0.785,3.575,0.785h361.216c0.009,0,0.196,0,0.196,0.009    c8.346-0.034,16.179-3.311,22.05-9.233c5.888-5.914,9.105-13.773,9.071-22.093C511.992,266.069,507.29,256.725,499.456,250.889z     M490.829,285.944c-2.671,2.688-6.229,4.173-9.975,4.19H121.344L17.067,242.006v-20.139h406.784c5.513,0,10.957,1.818,15.36,5.12    l50.022,37.564c3.567,2.654,5.692,6.895,5.7,11.366C494.95,279.706,493.5,283.264,490.829,285.944z" fill="#00718c"/>
	</g>
</g>
<g>
	<g>
		<path d="M50.594,124.826c-1.306-3.234-4.437-5.359-7.927-5.359H8.533C3.823,119.467,0,123.29,0,128v85.333h17.067v-76.8H36.89    l31.983,79.974l15.855-6.349L50.594,124.826z" fill="#00718c"/>
	</g>
</g>
<g>
	<g>
		<rect x="426.667" y="238.933" width="51.2" height="17.067" fill="#00718c"/>
	</g>
</g>
<g>
	<g>
		<rect x="392.533" y="238.933" width="17.067" height="17.067" fill="#00718c"/>
	</g>
</g>
<g>
	<g>
		<rect x="358.4" y="238.933" width="17.067" height="17.067" fill="#00718c"/>
	</g>
</g>
<g>
	<g>
		<rect x="324.267" y="238.933" width="17.067" height="17.067" fill="#00718c"/>
	</g>
</g>
<g>
	<g>
		<rect x="290.133" y="238.933" width="17.067" height="17.067" fill="#00718c"/>
	</g>
</g>
<g>
	<g>
		<rect x="256" y="238.933" width="17.067" height="17.067" fill="#00718c"/>
	</g>
</g>
<g>
	<g>
		<rect x="221.867" y="238.933" width="17.067" height="17.067" fill="#00718c"/>
	</g>
</g>
<g>
	<g>
		<rect x="187.733" y="238.933" width="17.067" height="17.067" fill="#00718c"/>
	</g>
</g>
<g>
	<g>
		<rect x="153.6" y="238.933" width="17.067" height="17.067" fill="#00718c"/>
	</g>
</g>
<g>
	<g>
		<path d="M322.833,208.597L186.3,3.797C184.713,1.425,182.05,0,179.2,0h-68.267c-2.961,0-5.7,1.536-7.262,4.045    c-1.553,2.517-1.698,5.658-0.375,8.303l102.4,204.8c1.451,2.893,4.403,4.719,7.637,4.719h102.4c3.149,0,6.042-1.741,7.526-4.514    C324.745,214.579,324.574,211.217,322.833,208.597z M218.607,204.8L124.74,17.067h49.894L299.793,204.8H218.607z" fill="#00718c"/>
	</g>
</g>
<g>
	<g>
		<path d="M247.467,42.667h-34.133v17.067h34.133c4.702,0,8.533,3.831,8.533,8.533s-3.831,8.533-8.533,8.533H230.4v17.067h17.067    c14.114,0,25.6-11.486,25.6-25.6S261.581,42.667,247.467,42.667z" fill="#00718c"/>
	</g>
</g>
<g>
	<g>
		<path d="M290.133,119.467H256v17.067h34.133c4.71,0,8.533,3.831,8.533,8.533c0,4.702-3.823,8.533-8.533,8.533H281.6v17.067h8.533    c14.114,0,25.6-11.486,25.6-25.6S304.247,119.467,290.133,119.467z" fill="#00718c"/>
	</g>
</g>
<g>
	<g>
		<path d="M323.26,294.639c-1.485-2.773-4.378-4.506-7.526-4.506h-102.4c-3.234,0-6.187,1.826-7.637,4.71l-102.4,204.8    c-1.323,2.645-1.186,5.786,0.375,8.303c1.562,2.517,4.301,4.053,7.262,4.053H179.2c2.85,0,5.513-1.425,7.1-3.806l136.533-204.8    C324.574,300.783,324.745,297.412,323.26,294.639z M174.635,494.933H124.74L218.607,307.2h81.186L174.635,494.933z" fill="#00718c"/>
	</g>
</g>
<g>
	<g>
		<path d="M247.467,418.133H230.4V435.2h17.067c4.702,0,8.533,3.823,8.533,8.533s-3.831,8.533-8.533,8.533h-34.133v17.067h34.133    c14.114,0,25.6-11.486,25.6-25.6S261.581,418.133,247.467,418.133z" fill="#00718c"/>
	</g>
</g>
<g>
	<g>
		<path d="M290.133,341.333H281.6V358.4h8.533c4.71,0,8.533,3.823,8.533,8.533s-3.823,8.533-8.533,8.533H256v17.067h34.133    c14.114,0,25.6-11.486,25.6-25.6S304.247,341.333,290.133,341.333z" fill="#00718c"/>
	</g>
</g>
<g>
</g>
<g>
</g>
<g>
</g>
<g>
</g>
<g>
</g>
<g>
</g>
<g>
</g>
<g>
</g>
<g>
</g>
<g>
</g>
<g>
</g>
<g>
</g>
<g>
</g>
<g>
</g>
<g>
</g>
</svg>
