<?xml version="1.0" encoding="UTF-8" standalone="no"?>
<!-- Created with Inkscape (http://www.inkscape.org/) -->

<svg
   xmlns:dc="http://purl.org/dc/elements/1.1/"
   xmlns:cc="http://creativecommons.org/ns#"
   xmlns:rdf="http://www.w3.org/1999/02/22-rdf-syntax-ns#"
   xmlns:svg="http://www.w3.org/2000/svg"
   xmlns="http://www.w3.org/2000/svg"
   xmlns:sodipodi="http://sodipodi.sourceforge.net/DTD/sodipodi-0.dtd"
   xmlns:inkscape="http://www.inkscape.org/namespaces/inkscape"
   width="120"
   height="120"
   viewBox="0 0 120 120"
   id="svg2"
   version="1.1"
   inkscape:version="0.91 r13725"
   sodipodi:docname="CB.svg">
  <defs
     id="defs4" />
  <sodipodi:namedview
     id="base"
     pagecolor="#ffffff"
     bordercolor="#666666"
     borderopacity="1.0"
     inkscape:pageopacity="0.0"
     inkscape:pageshadow="2"
     inkscape:zoom="182.26087"
     inkscape:cx="34.526698"
     inkscape:cy="67.329824"
     inkscape:document-units="px"
     inkscape:current-layer="layer3"
     showgrid="false"
     units="px"
     inkscape:window-width="1920"
     inkscape:window-height="1056"
     inkscape:window-x="0"
     inkscape:window-y="24"
     inkscape:window-maximized="1" />
  <metadata
     id="metadata7">
    <rdf:RDF>
      <cc:Work
         rdf:about="">
        <dc:format>image/svg+xml</dc:format>
        <dc:type
           rdf:resource="http://purl.org/dc/dcmitype/StillImage" />
        <dc:title></dc:title>
      </cc:Work>
    </rdf:RDF>
  </metadata>
  <g
     inkscape:groupmode="layer"
     id="layer3"
     inkscape:label="Layer 3"
     style="display:inline">
    <path
       style="fill:#014a77;fill-opacity:1;stroke:none;stroke-width:0.17716534;stroke-miterlimit:4;stroke-dasharray:none;stroke-opacity:1"
       d="m 58.886719,44.550785 c -4.217809,-4e-4 -7.637119,3.41891 -7.636719,7.636719 0.0014,0.293125 0.01964,0.585927 0.05469,0.876953 l 0,3.058594 c 0,2.557877 -2.059311,4.617187 -4.617188,4.617187 l -2.582031,0 c -0.416067,-0.07253 -0.837434,-0.110424 -1.259766,-0.113281 -4.217809,-4e-4 -7.637119,3.41891 -7.636719,7.636719 6.79e-4,4.217046 3.419673,7.635166 7.636719,7.634766 0.251141,-6.47e-4 0.502097,-0.01368 0.751953,-0.03906 l 0.0098,0 3.121094,0 c 2.557877,0 4.617188,2.05931 4.617187,4.617187 l 0,2.994141 c -0.04496,0.323647 -0.0691,0.649836 -0.07227,0.976563 -7.5e-5,4.226074 3.43294,7.652094 7.667968,7.652343 4.235028,-2.48e-4 7.668044,-3.426268 7.667969,-7.652343 -6.39e-4,-0.450601 -0.04116,-0.900265 -0.121094,-1.34375 l 0,-2.617188 c 0,-2.557877 2.059311,-4.617187 4.617188,-4.617187 l 3.15625,0 c -0.212303,-0.02339 -0.422376,-0.05743 -0.628907,-0.09766 0.425177,0.07275 0.855754,0.109336 1.28711,0.109375 4.217809,4e-4 7.637118,-3.418909 7.636719,-7.636718 -6.79e-4,-4.217046 -3.419673,-7.635166 -7.636719,-7.634766 -4.216284,6.78e-4 -7.634088,3.418482 -7.634766,7.634766 0.0023,0.576075 0.06979,1.150039 0.201172,1.710937 l 0,2.283203 c 1e-6,2.557877 -2.05931,4.617188 -4.617187,4.617188 l -3.007813,0 c -0.305146,-0.03858 -0.612342,-0.0588 -0.919922,-0.06055 -0.281972,0.0014 -0.56365,0.01839 -0.84375,0.05078 l -3.132812,0 c -2.557877,0 -4.617188,-2.05931 -4.617188,-4.617187 l 0,-2.574219 -0.04102,-2.96875 0,-2.314453 c 0,-2.557877 2.05931,-4.617188 4.617187,-4.617188 l 3.001953,0 c 0.318513,0.04364 0.639465,0.06712 0.960938,0.07031 4.217046,-6.79e-4 7.635165,-3.419673 7.634765,-7.636719 4e-4,-4.217046 -3.417719,-7.63604 -7.634765,-7.636719 z"
       id="path4220"
       inkscape:connector-curvature="0"
       sodipodi:nodetypes="cccssccccccsscccccssccsccccsscccssccssccccc" />
    <path
       style="display:inline;fill:#ffca98;fill-opacity:1;stroke:none;stroke-width:0.17716534;stroke-miterlimit:4;stroke-dasharray:none;stroke-opacity:1"
       d="m 26.699219,28.71875 c -4.217809,-4e-4 -7.637119,3.41891 -7.636719,7.636719 -4e-4,4.217809 3.41891,7.637119 7.636719,7.636719 0.282732,-0.0032 0.565068,-0.02212 0.845703,-0.05664 l 3.134766,0 c 2.557877,0 4.617187,2.05931 4.617187,4.617187 l 0,2.560547 -0.04296,2.617188 0,2.679687 c 0,2.557877 -2.05931,4.617188 -4.617187,4.617188 l -2.84961,0 c -0.370337,-0.05737 -0.744394,-0.0874 -1.11914,-0.08984 -4.217809,-4e-4 -7.637119,3.41891 -7.636719,7.636719 6.79e-4,4.217046 3.419673,7.635165 7.636719,7.634765 4.217046,4e-4 7.63604,-3.417719 7.636719,-7.634765 -0.0013,-0.276723 -0.01756,-0.553172 -0.04883,-0.828125 l 0,-3.087891 c -10e-7,-2.557878 2.059311,-4.617187 4.617188,-4.617187 l 3.923828,0.0329 c 4.217046,4e-4 7.63604,-3.331475 7.636719,-7.548521 -0.001,-0.530448 -0.05732,-1.059345 -0.167969,-1.578125 l 0,-2.376954 c 0,-2.557876 2.05931,-4.617187 4.617187,-4.617187 l 2.751954,0 c 0.394462,0.0657 0.793476,0.100312 1.193359,0.103516 4.217046,-6.79e-4 7.635166,-3.419673 7.634766,-7.636719 4e-4,-4.217046 -3.41772,-7.63604 -7.634766,-7.636719 -4.217809,-4e-4 -7.637119,3.41891 -7.636719,7.636719 0.0032,0.326732 0.02731,0.652923 0.07227,0.976562 l 0,2.925782 c 10e-7,2.557877 -2.059311,4.617187 -4.617188,4.617187 l -3.050781,0 c -0.265205,-0.03088 -0.531847,-0.04783 -0.798828,-0.05078 -0.473273,0.0018 -0.945357,0.04754 -1.410156,0.136719 0.217454,-0.04271 0.436918,-0.07948 0.660156,-0.103516 l -3.130859,0 c -2.557877,0 -4.617189,-2.059311 -4.617188,-4.617187 l 0,-3.228516 c 0.02307,-0.239546 0.0348,-0.480049 0.03516,-0.720703 4e-4,-4.217046 -3.417719,-7.63604 -7.634765,-7.636719 z m 14.214843,16.416016 c -0.05026,0.01251 -0.100394,0.02553 -0.15039,0.03906 0.04971,-0.01414 0.100296,-0.0259 0.15039,-0.03906 z"
       id="path4220-1"
       inkscape:connector-curvature="0"
       sodipodi:nodetypes="ccccssccssccccccsccccssccccccssccccssccccccc" />
    <path
       style="display:inline;fill:#497ca2;fill-opacity:1;stroke:none;stroke-width:0.17716534;stroke-miterlimit:4;stroke-dasharray:none;stroke-opacity:1"
       d="m 58.953125,12.339842 a 7.6359949,7.6359949 0 0 0 -7.636719,7.636718 7.6359949,7.6359949 0 0 0 0.109375,1.230469 l 0,0.123047 c -0.04426,-0.245739 -0.08128,-0.494756 -0.101562,-0.748047 l 0,3.34961 c 10e-7,2.557877 -2.059311,4.617187 -4.617188,4.617187 l -3.130859,0 c 0.05261,0.0057 0.103941,0.01672 0.15625,0.02344 a 7.6359949,7.6359949 0 0 0 -0.908203,-0.06445 7.6359949,7.6359949 0 0 0 -7.636719,7.636719 7.6359949,7.6359949 0 0 0 7.636719,7.636719 7.6359949,7.6359949 0 0 0 7.634765,-7.636719 7.6359949,7.6359949 0 0 0 -0.132812,-1.388672 l 0,-2.576171 c 0,-2.557878 2.05931,-4.617188 4.617187,-4.617188 l 3.15625,0 c -0.06219,-0.0069 -0.121874,-0.02098 -0.183593,-0.0293 a 7.6359949,7.6359949 0 0 0 1.037109,0.08008 7.6359949,7.6359949 0 0 0 0.904297,-0.06055 l 2.988281,0 c 2.557877,0 4.617189,2.059311 4.617188,4.617188 l 0,2.291016 a 7.6359949,7.6359949 0 0 0 -0.199219,1.701171 7.6359949,7.6359949 0 0 0 7.634766,7.636719 7.6359949,7.6359949 0 0 0 7.636718,-7.636719 7.6359949,7.6359949 0 0 0 -7.636718,-7.636718 7.6359949,7.6359949 0 0 0 -1.283204,0.109375 c 0.205265,-0.03987 0.412086,-0.07246 0.623047,-0.0957 l -3.15625,0 c -2.557877,1e-6 -4.617187,-2.05931 -4.617187,-4.617187 l 0,-2.585937 a 7.6359949,7.6359949 0 0 0 0.123047,-1.359376 7.6359949,7.6359949 0 0 0 -7.634766,-7.636718 z M 73.595703,28.63867 a 7.6359949,7.6359949 0 0 0 -0.121094,0.02734 c 0.04054,-0.0087 0.08031,-0.01931 0.121094,-0.02734 z"
       id="path4220-7-5-2"
       inkscape:connector-curvature="0" />
    <path
       style="display:inline;fill:#fd8002;fill-opacity:1;stroke:none;stroke-width:0.17716534;stroke-miterlimit:4;stroke-dasharray:none;stroke-opacity:1"
       d="m 91.068359,28.664062 c -4.217046,-3.99e-4 -7.636039,3.41772 -7.636718,7.634766 0.0013,0.276722 0.01756,0.553172 0.04883,0.828125 l 0,3.087891 c 0,2.557878 -2.059308,4.617187 -4.617188,4.617187 l -2.591797,0 c -0.440314,-0.07871 -0.886691,-0.118574 -1.333984,-0.11914 -4.216283,6.78e-4 -7.634087,3.418482 -7.634766,7.634765 8.88e-4,0.531101 0.05718,1.06066 0.167969,1.580078 l 0,2.375 c 0,2.557877 -2.059307,4.617188 -4.617187,4.617188 l -2.753907,0 c -0.393819,-0.0656 -0.792175,-0.10021 -1.191406,-0.103516 -4.217046,6.79e-4 -7.635165,3.419673 -7.634765,7.636719 -4e-4,4.217046 3.417719,7.63604 7.634765,7.636719 4.217809,4e-4 7.637119,-3.41891 7.636719,-7.636719 -0.0032,-0.326732 -0.02731,-0.652923 -0.07227,-0.976563 l 0,-2.925781 c 0,-2.557877 2.059309,-4.617187 4.617188,-4.617187 l 3.050781,0 1.548828,0.01758 3.130859,0 c 2.557879,0 4.617188,2.05931 4.617188,4.617187 l 0,3.22461 c -0.02384,0.240812 -0.03623,0.482621 -0.03711,0.724609 -4e-4,4.217809 3.418909,7.637118 7.636718,7.636719 4.217046,-6.79e-4 7.635166,-3.419673 7.634766,-7.636719 4e-4,-4.217046 -3.41772,-7.63604 -7.634766,-7.636719 -0.283384,0.0031 -0.566374,0.02204 -0.847656,0.05664 l -3.132812,0 c -2.55788,0 -4.617188,-2.059311 -4.617188,-4.617188 l 0,-2.568359 c 0.08816,-0.462938 0.133273,-0.933042 0.134766,-1.404297 -0.0017,-0.47725 -0.04812,-0.953292 -0.138672,-1.421875 0.01452,0.07256 0.03443,0.143474 0.04687,0.216797 l 0,-2.679687 c 0,-2.557877 2.059307,-4.617188 4.617187,-4.617188 l 2.847657,0 c 0.370981,0.05747 0.745695,0.08749 1.121093,0.08984 4.217046,-6.79e-4 7.635166,-3.419673 7.634766,-7.636719 -6.78e-4,-4.216284 -3.418482,-7.634088 -7.634758,-7.63476 z m -8.765625,21.699219 c 0.03116,0.110824 0.05973,0.223046 0.08594,0.335938 -0.0261,-0.112615 -0.05475,-0.224624 -0.08594,-0.335938 z"
       id="path4220-1-9"
       inkscape:connector-curvature="0"
       sodipodi:nodetypes="cccssccccssccccccssccssccccccssccccssccccccc" />
  </g>
  <g
     inkscape:groupmode="layer"
     id="layer2"
     inkscape:label="Layer 2"
     style="display:inline">
    <g
       style="font-style:normal;font-weight:normal;font-size:13.5739336px;line-height:125%;font-family:sans-serif;letter-spacing:0px;word-spacing:0px;fill:#000000;fill-opacity:1;stroke:none;stroke-width:1px;stroke-linecap:butt;stroke-linejoin:miter;stroke-opacity:1"
       id="text4148">
      <g
         id="g4178">
        <path
           id="path4153"
           style="font-style:normal;font-variant:normal;font-weight:bold;font-stretch:normal;font-family:'Century Gothic';-inkscape-font-specification:'Century Gothic Bold';fill:#014a77;fill-opacity:1"
           d="m 15.735775,100.56351 -1.504532,0.82848 q -0.424186,-0.44407 -0.841743,-0.61639 -0.41093,-0.17233 -0.967673,-0.17233 -1.014069,0 -1.643719,0.60977 -0.623022,0.60314 -0.623022,1.55093 0,0.92128 0.603138,1.50453 0.603139,0.58326 1.584068,0.58326 1.212905,0 1.888951,-0.82849 l 1.424998,0.9743 q -1.159882,1.50453 -3.274182,1.50453 -1.902206,0 -2.9825534,-1.12674 -1.0737194,-1.12674 -1.0737194,-2.6379 0,-1.04721 0.5236039,-1.92872 0.5236039,-0.881512 1.4581369,-1.385232 0.941162,-0.503721 2.101044,-0.503721 1.073719,0 1.928718,0.430814 0.854999,0.424185 1.398486,1.212909 z"
           inkscape:connector-curvature="0" />
        <path
           id="path4155"
           style="font-style:normal;font-variant:normal;font-weight:bold;font-stretch:normal;font-family:'Century Gothic';-inkscape-font-specification:'Century Gothic Bold';fill:#014a77;fill-opacity:1"
           d="m 20.759721,98.919787 q 1.020696,0 1.915462,0.510348 0.901394,0.510349 1.405115,1.385235 0.50372,0.87488 0.50372,1.88895 0,1.02069 -0.510348,1.90883 -0.503721,0.88814 -1.378603,1.39186 -0.874882,0.49709 -1.928718,0.49709 -1.550928,0 -2.651159,-1.10023 -1.093603,-1.10686 -1.093603,-2.6843 0,-1.69011 1.239417,-2.816854 1.086975,-0.980929 2.498717,-0.980929 z m 0.02651,1.703373 q -0.841743,0 -1.405115,0.58988 -0.556743,0.58325 -0.556743,1.4979 0,0.94117 0.550116,1.52442 0.556743,0.58326 1.405114,0.58326 0.848371,0 1.411742,-0.58989 0.563371,-0.58988 0.563371,-1.51779 0,-0.9279 -0.556743,-1.50453 -0.550116,-0.58325 -1.411742,-0.58325 z"
           inkscape:connector-curvature="0" />
        <path
           id="path4157"
           style="font-style:normal;font-variant:normal;font-weight:bold;font-stretch:normal;font-family:'Century Gothic';-inkscape-font-specification:'Century Gothic Bold';fill:#014a77;fill-opacity:1"
           d="m 26.055411,99.105368 1.816043,0 0,0.828488 q 0.463953,-0.510348 1.027324,-0.762209 0.57,-0.25186 1.239417,-0.25186 0.676046,0 1.219533,0.331395 0.543488,0.331395 0.874883,0.967678 0.430813,-0.636283 1.053835,-0.967678 0.629651,-0.331395 1.371975,-0.331395 0.768836,0 1.352091,0.357907 0.583255,0.357906 0.835115,0.934536 0.258488,0.57662 0.258488,1.87569 l 0,4.2286 -1.822671,0 0,-3.6586 q 0,-1.22616 -0.304884,-1.65697 -0.304883,-0.43744 -0.91465,-0.43744 -0.463952,0 -0.835115,0.26511 -0.364534,0.26512 -0.543487,0.7357 -0.178953,0.46395 -0.178953,1.4979 l 0,3.2543 -1.822672,0 0,-3.4929 q 0,-0.96767 -0.145814,-1.39849 -0.139186,-0.43744 -0.424185,-0.64953 -0.285,-0.21209 -0.689302,-0.21209 -0.450697,0 -0.821859,0.27174 -0.364534,0.26512 -0.550115,0.74895 -0.178954,0.48384 -0.178954,1.52442 l 0,3.2079 -1.816043,0 0,-7.211152 z"
           inkscape:connector-curvature="0" />
        <path
           id="path4159"
           style="font-style:normal;font-variant:normal;font-weight:bold;font-stretch:normal;font-family:'Century Gothic';-inkscape-font-specification:'Century Gothic Bold';fill:#014a77;fill-opacity:1"
           d="m 38.814114,99.105368 1.829299,0 0,3.473022 q 0,1.01406 0.139186,1.41174 0.139186,0.39104 0.444069,0.60977 0.311511,0.21872 0.762208,0.21872 0.450697,0 0.762209,-0.2121 0.318139,-0.21872 0.47058,-0.63627 0.112675,-0.31152 0.112675,-1.33221 l 0,-3.532672 1.816043,0 0,3.055462 q 0,1.88895 -0.298255,2.58488 -0.364534,0.84837 -1.073719,1.30569 -0.709185,0.4507 -1.802788,0.4507 -1.186394,0 -1.922091,-0.53023 -0.729068,-0.53023 -1.027324,-1.47802 -0.212092,-0.65616 -0.212092,-2.38604 l 0,-3.002442 z"
           inkscape:connector-curvature="0" />
        <path
           id="path4161"
           style="font-style:normal;font-variant:normal;font-weight:bold;font-stretch:normal;font-family:'Century Gothic';-inkscape-font-specification:'Century Gothic Bold';fill:#014a77;fill-opacity:1"
           d="m 46.959799,99.105368 1.802788,0 0,0.735697 q 0.616394,-0.516976 1.113486,-0.715813 0.503721,-0.205465 1.027325,-0.205465 1.073719,0 1.822671,0.748953 0.629651,0.63628 0.629651,1.88232 l 0,4.76546 -1.789533,0 0,-3.16151 q 0,-1.29244 -0.119302,-1.71662 -0.112674,-0.42419 -0.404302,-0.64291 -0.284999,-0.22535 -0.709185,-0.22535 -0.550115,0 -0.947789,0.37117 -0.391046,0.36453 -0.543488,1.01406 -0.07953,0.33803 -0.07953,1.46477 l 0,2.89639 -1.802788,0 0,-7.211152 z"
           inkscape:connector-curvature="0" />
        <path
           id="path4163"
           style="font-style:normal;font-variant:normal;font-weight:bold;font-stretch:normal;font-family:'Century Gothic';-inkscape-font-specification:'Century Gothic Bold';fill:#014a77;fill-opacity:1"
           d="m 55.808041,96.13607 q 0.477208,0 0.815231,0.344651 0.344651,0.344651 0.344651,0.835115 0,0.483837 -0.338023,0.828487 -0.338023,0.338023 -0.808603,0.338023 -0.483837,0 -0.828488,-0.344651 -0.338022,-0.351278 -0.338022,-0.84837 0,-0.477209 0.338022,-0.815232 0.338023,-0.338023 0.815232,-0.338023 z m -0.908022,2.969298 1.816044,0 0,7.211152 -1.816044,0 0,-7.211152 z"
           inkscape:connector-curvature="0" />
        <path
           id="path4165"
           style="font-style:normal;font-variant:normal;font-weight:bold;font-stretch:normal;font-family:'Century Gothic';-inkscape-font-specification:'Century Gothic Bold';fill:#014a77;fill-opacity:1"
           d="m 65.418492,100.56351 -1.504533,0.82848 q -0.424185,-0.44407 -0.841743,-0.61639 -0.41093,-0.17233 -0.967673,-0.17233 -1.014068,0 -1.643718,0.60977 -0.623023,0.60314 -0.623023,1.55093 0,0.92128 0.603139,1.50453 0.603139,0.58326 1.584067,0.58326 1.212906,0 1.888951,-0.82849 l 1.424998,0.9743 q -1.159882,1.50453 -3.274181,1.50453 -1.902207,0 -2.982554,-1.12674 -1.073719,-1.12674 -1.073719,-2.6379 0,-1.04721 0.523603,-1.92872 0.523604,-0.881512 1.458138,-1.385232 0.941161,-0.503721 2.101043,-0.503721 1.07372,0 1.928718,0.430814 0.854999,0.424185 1.398487,1.212909 z"
           inkscape:connector-curvature="0" />
        <path
           id="path4167"
           style="font-style:normal;font-variant:normal;font-weight:bold;font-stretch:normal;font-family:'Century Gothic';-inkscape-font-specification:'Century Gothic Bold';fill:#014a77;fill-opacity:1"
           d="m 72.384411,99.105368 1.802788,0 0,7.211152 -1.802788,0 0,-0.76221 q -0.530231,0.50372 -1.067091,0.72907 -0.530232,0.21872 -1.153254,0.21872 -1.398487,0 -2.419183,-1.08035 -1.020696,-1.08697 -1.020696,-2.69755 0,-1.67023 0.987557,-2.737321 0.987556,-1.067092 2.399299,-1.067092 0.649533,0 1.219533,0.245233 0.569999,0.245232 1.053835,0.735696 l 0,-0.795348 z m -1.902206,1.484652 q -0.841743,0 -1.398487,0.59651 -0.556743,0.58988 -0.556743,1.51779 0,0.93453 0.563371,1.53767 0.57,0.60314 1.398487,0.60314 0.854998,0 1.41837,-0.58989 0.563371,-0.59651 0.563371,-1.55755 0,-0.94116 -0.563371,-1.52442 -0.563372,-0.58325 -1.424998,-0.58325 z"
           inkscape:connector-curvature="0" />
        <path
           id="path4169"
           style="font-style:normal;font-variant:normal;font-weight:bold;font-stretch:normal;font-family:'Century Gothic';-inkscape-font-specification:'Century Gothic Bold';fill:#014a77;fill-opacity:1"
           d="m 75.592319,99.105368 1.550928,0 0,0.908022 q 0.25186,-0.536859 0.669417,-0.815231 0.417558,-0.278372 0.91465,-0.278372 0.351279,0 0.735697,0.185581 l -0.563372,1.557552 q -0.318139,-0.15907 -0.523603,-0.15907 -0.417558,0 -0.709185,0.51698 -0.285,0.51698 -0.285,2.02814 l 0.0066,0.35128 0,2.91627 -1.79616,0 0,-7.211152 z"
           inkscape:connector-curvature="0" />
        <path
           inkscape:connector-curvature="0"
           id="path4171"
           style="font-style:normal;font-variant:normal;font-weight:bold;font-stretch:normal;font-family:'Century Gothic';-inkscape-font-specification:'Century Gothic Bold';fill:#fd8002;fill-opacity:1"
           d="m 83.633648,96.321652 0,3.579064 q 0.490464,-0.490464 1.060463,-0.735696 0.569999,-0.245233 1.219533,-0.245233 1.411742,0 2.399299,1.067092 0.987557,1.067091 0.987557,2.737321 0,1.61058 -1.020696,2.69755 -1.020697,1.08035 -2.419183,1.08035 -0.623022,0 -1.159882,-0.21872 -0.53686,-0.22535 -1.067091,-0.72907 l 0,0.76221 -1.796161,0 0,-9.994868 1.796161,0 z m 1.902206,4.268368 q -0.854999,0 -1.41837,0.58325 -0.563371,0.58326 -0.563371,1.52442 0,0.96104 0.563371,1.55755 0.563371,0.58989 1.41837,0.58989 0.828487,0 1.391859,-0.60314 0.569999,-0.60314 0.569999,-1.53767 0,-0.92791 -0.556744,-1.51779 -0.556743,-0.59651 -1.405114,-0.59651 z" />
        <path
           inkscape:connector-curvature="0"
           id="path4173"
           style="font-style:normal;font-variant:normal;font-weight:bold;font-stretch:normal;font-family:'Century Gothic';-inkscape-font-specification:'Century Gothic Bold';fill:#fd8002;fill-opacity:1"
           d="m 98.02281,103.23455 -5.812666,0 q 0.12593,0.76883 0.669418,1.22616 0.550115,0.4507 1.398486,0.4507 1.014068,0 1.743137,-0.70919 l 1.524417,0.71581 q -0.57,0.80861 -1.365347,1.19965 -0.795348,0.38442 -1.888951,0.38442 -1.696742,0 -2.763833,-1.06709 -1.067092,-1.07372 -1.067092,-2.6843 0,-1.65034 1.060464,-2.73732 1.067091,-1.093603 2.671043,-1.093603 1.703369,0 2.770461,1.093603 1.067093,1.08698 1.067093,2.87651 l -0.007,0.34465 z m -1.816044,-1.425 q -0.178953,-0.60314 -0.709185,-0.98093 -0.523604,-0.37779 -1.219533,-0.37779 -0.75558,0 -1.325579,0.42419 -0.357907,0.26511 -0.66279,0.93453 l 3.917087,0 z" />
        <path
           inkscape:connector-curvature="0"
           id="path4175"
           style="font-style:normal;font-variant:normal;font-weight:bold;font-stretch:normal;font-family:'Century Gothic';-inkscape-font-specification:'Century Gothic Bold';fill:#fd8002;fill-opacity:1"
           d="m 99.48095,99.105368 1.81604,0 0,0.828488 q 0.46395,-0.510348 1.02733,-0.762209 0.56999,-0.25186 1.23941,-0.25186 0.67605,0 1.21953,0.331395 0.54349,0.331395 0.87489,0.967678 0.43081,-0.636283 1.05383,-0.967678 0.62965,-0.331395 1.37198,-0.331395 0.76883,0 1.35209,0.357907 0.58325,0.357906 0.83511,0.934536 0.25849,0.57662 0.25849,1.87569 l 0,4.2286 -1.82267,0 0,-3.6586 q 0,-1.22616 -0.30488,-1.65697 -0.30489,-0.43744 -0.91465,-0.43744 -0.46396,0 -0.83512,0.26511 -0.36453,0.26512 -0.54349,0.7357 -0.17895,0.46395 -0.17895,1.4979 l 0,3.2543 -1.82267,0 0,-3.4929 q 0,-0.96767 -0.14581,-1.39849 -0.13919,-0.43744 -0.42419,-0.64953 -0.285,-0.21209 -0.6893,-0.21209 -0.4507,0 -0.82186,0.27174 -0.36453,0.26512 -0.55012,0.74895 -0.17895,0.48384 -0.17895,1.52442 l 0,3.2079 -1.81604,0 0,-7.211152 z" />
      </g>
    </g>
  </g>
</svg>
