<?xml version="1.0" encoding="utf-8"?>
<!-- Generator: Adobe Illustrator 16.0.0, SVG Export Plug-In . SVG Version: 6.00 Build 0)  -->
<!DOCTYPE svg PUBLIC "-//W3C//DTD SVG 1.1//EN" "http://www.w3.org/Graphics/SVG/1.1/DTD/svg11.dtd">
<svg version="1.1" id="Layer_1" xmlns="http://www.w3.org/2000/svg" xmlns:xlink="http://www.w3.org/1999/xlink" x="0px" y="0px"
	 width="120px" height="120px" viewBox="0 0 120 120" enable-background="new 0 0 120 120" xml:space="preserve">
<g>
	<g enable-background="new    ">
		<path fill="#4F4F4F" d="M31.766,85.23h-2.24v-4.916c0-0.689-0.128-1.199-0.384-1.528c-0.256-0.328-0.619-0.493-1.086-0.493
			c-0.201,0-0.413,0.045-0.635,0.134c-0.223,0.091-0.435,0.216-0.635,0.376c-0.201,0.162-0.385,0.354-0.552,0.577
			c-0.167,0.224-0.29,0.468-0.368,0.735v5.115h-2.24V73.027h2.24v5.064c0.323-0.568,0.761-1.006,1.312-1.312
			c0.552-0.307,1.162-0.459,1.831-0.459c0.568,0,1.031,0.098,1.388,0.293c0.356,0.195,0.635,0.453,0.835,0.777
			c0.2,0.322,0.34,0.69,0.418,1.104s0.117,0.836,0.117,1.271L31.766,85.23L31.766,85.23z"/>
		<path fill="#4F4F4F" d="M33.722,75.251v-2.224h2.24v2.224H33.722z M33.722,85.23v-8.76h2.24v8.76H33.722z"/>
		<path fill="#4F4F4F" d="M43.233,85.396c-0.691,0-1.293-0.152-1.805-0.459c-0.513-0.307-0.914-0.722-1.204-1.246v5.1h-2.24v-12.32
			h1.956v1.506c0.323-0.514,0.741-0.918,1.253-1.213c0.512-0.295,1.104-0.443,1.772-0.443c0.591,0,1.137,0.121,1.638,0.359
			c0.501,0.24,0.934,0.563,1.296,0.971c0.362,0.406,0.646,0.886,0.853,1.438c0.206,0.553,0.309,1.135,0.309,1.747
			c0,0.636-0.095,1.231-0.284,1.789s-0.454,1.042-0.794,1.454c-0.34,0.412-0.744,0.734-1.212,0.97
			C44.303,85.279,43.79,85.396,43.233,85.396z M42.481,83.492c0.334,0,0.644-0.072,0.928-0.219c0.284-0.145,0.526-0.34,0.727-0.584
			c0.201-0.246,0.356-0.529,0.468-0.854s0.167-0.656,0.167-1.003c0-0.367-0.062-0.71-0.184-1.028
			c-0.123-0.316-0.292-0.593-0.51-0.826c-0.218-0.234-0.474-0.418-0.769-0.553c-0.295-0.134-0.616-0.199-0.961-0.199
			c-0.212,0-0.429,0.035-0.652,0.107c-0.223,0.072-0.429,0.176-0.618,0.311c-0.19,0.133-0.359,0.289-0.51,0.467
			c-0.15,0.18-0.265,0.373-0.343,0.586v2.057c0.201,0.501,0.507,0.916,0.919,1.245C41.556,83.328,42.001,83.492,42.481,83.492z"/>
		<path fill="#4F4F4F" d="M56.723,85.23h-2.24v-4.916c0-0.7-0.123-1.213-0.368-1.537c-0.245-0.322-0.585-0.484-1.02-0.484
			c-0.223,0-0.452,0.045-0.686,0.134c-0.234,0.091-0.454,0.216-0.66,0.376c-0.207,0.162-0.393,0.354-0.56,0.577
			c-0.167,0.224-0.29,0.468-0.368,0.735v5.115h-2.24v-8.76h2.023v1.621c0.323-0.558,0.791-0.992,1.404-1.304
			c0.612-0.312,1.304-0.47,2.073-0.47c0.546,0,0.992,0.102,1.337,0.302c0.346,0.2,0.613,0.463,0.803,0.786
			c0.189,0.322,0.32,0.691,0.393,1.104c0.073,0.413,0.109,0.83,0.109,1.254V85.23z"/>
		<path fill="#4F4F4F" d="M62.725,85.396c-0.715,0-1.354-0.123-1.924-0.367c-0.568-0.244-1.05-0.576-1.445-0.994
			c-0.396-0.418-0.7-0.899-0.911-1.446c-0.212-0.546-0.317-1.118-0.317-1.722c0-0.612,0.105-1.192,0.317-1.738
			c0.211-0.546,0.515-1.027,0.911-1.445s0.877-0.75,1.445-0.994c0.568-0.246,1.209-0.369,1.924-0.369
			c0.713,0,1.351,0.123,1.914,0.369c0.562,0.244,1.041,0.576,1.438,0.994s0.699,0.899,0.91,1.445
			c0.212,0.546,0.318,1.126,0.318,1.738c0,0.604-0.106,1.176-0.318,1.722c-0.211,0.547-0.512,1.028-0.901,1.446
			c-0.392,0.418-0.869,0.75-1.438,0.994C64.078,85.273,63.438,85.396,62.725,85.396z M60.434,80.867
			c0,0.391,0.059,0.744,0.175,1.062c0.117,0.317,0.279,0.594,0.484,0.827c0.206,0.233,0.449,0.415,0.729,0.543
			s0.578,0.192,0.902,0.192c0.322,0,0.623-0.064,0.902-0.192c0.277-0.128,0.521-0.31,0.727-0.543
			c0.207-0.233,0.367-0.513,0.484-0.836s0.176-0.68,0.176-1.069c0-0.379-0.059-0.729-0.176-1.054
			c-0.117-0.323-0.277-0.603-0.484-0.836c-0.205-0.233-0.449-0.415-0.727-0.543c-0.279-0.128-0.58-0.192-0.902-0.192
			c-0.324,0-0.625,0.066-0.902,0.2c-0.278,0.134-0.521,0.317-0.729,0.552c-0.207,0.235-0.367,0.514-0.484,0.836
			C60.493,80.139,60.434,80.489,60.434,80.867z"/>
	</g>
	<g enable-background="new    ">
		<path fill="#4F4F4F" d="M73.961,85.396c-0.702,0-1.338-0.119-1.906-0.358s-1.053-0.565-1.453-0.978
			c-0.401-0.414-0.711-0.893-0.929-1.438s-0.325-1.12-0.325-1.722c0-0.625,0.105-1.213,0.316-1.765
			c0.212-0.552,0.52-1.036,0.92-1.454s0.889-0.75,1.463-0.994c0.574-0.246,1.217-0.369,1.932-0.369c0.713,0,1.351,0.123,1.914,0.369
			c0.562,0.244,1.041,0.573,1.438,0.985s0.695,0.892,0.902,1.438c0.205,0.546,0.31,1.113,0.31,1.705
			c0,0.145-0.003,0.283-0.008,0.418c-0.007,0.134-0.021,0.244-0.043,0.334h-6.771c0.033,0.346,0.117,0.652,0.25,0.92
			c0.135,0.268,0.307,0.496,0.521,0.686c0.211,0.189,0.45,0.334,0.719,0.436c0.269,0.1,0.545,0.149,0.836,0.149
			c0.445,0,0.865-0.108,1.263-0.325c0.395-0.219,0.666-0.504,0.811-0.861l1.922,0.535c-0.322,0.668-0.838,1.218-1.546,1.646
			C75.785,85.184,74.941,85.396,73.961,85.396z M76.234,80.115c-0.058-0.657-0.299-1.184-0.729-1.58
			c-0.429-0.395-0.949-0.594-1.562-0.594c-0.301,0-0.582,0.054-0.844,0.158c-0.263,0.106-0.494,0.254-0.693,0.443
			c-0.201,0.189-0.365,0.418-0.493,0.686c-0.128,0.269-0.204,0.562-0.226,0.887H76.234z"/>
	</g>
	<g enable-background="new    ">
		<path fill="#4F4F4F" d="M83.939,85.396c-0.603,0-1.158-0.117-1.672-0.351c-0.513-0.233-0.953-0.558-1.32-0.97
			s-0.654-0.895-0.86-1.446c-0.206-0.551-0.31-1.146-0.31-1.78s0.098-1.226,0.293-1.771s0.465-1.024,0.811-1.438
			c0.346-0.412,0.758-0.736,1.237-0.97s1.003-0.353,1.571-0.353c0.646,0,1.229,0.156,1.746,0.47c0.52,0.312,0.922,0.719,1.213,1.22
			v-4.98h2.24v9.629c0,0.234,0.038,0.4,0.116,0.501c0.077,0.101,0.211,0.155,0.399,0.168v1.905
			c-0.391,0.078-0.706,0.117-0.952,0.117c-0.4,0-0.729-0.102-0.986-0.302c-0.256-0.2-0.399-0.463-0.434-0.786l-0.052-0.552
			c-0.322,0.558-0.76,0.979-1.312,1.263C85.119,85.256,84.542,85.396,83.939,85.396z M84.525,83.492
			c0.211,0,0.429-0.036,0.651-0.108c0.224-0.073,0.429-0.176,0.617-0.31c0.188-0.135,0.358-0.29,0.511-0.469
			c0.15-0.179,0.266-0.373,0.344-0.586v-2.088c-0.09-0.246-0.215-0.472-0.377-0.679c-0.162-0.206-0.347-0.384-0.551-0.534
			c-0.207-0.15-0.425-0.271-0.652-0.359c-0.229-0.088-0.455-0.133-0.678-0.133c-0.334,0-0.644,0.071-0.928,0.217
			c-0.283,0.146-0.525,0.343-0.729,0.594c-0.199,0.251-0.355,0.538-0.467,0.861C82.154,80.221,82.1,80.555,82.1,80.9
			c0,0.367,0.062,0.707,0.185,1.021c0.123,0.312,0.289,0.585,0.502,0.818c0.211,0.233,0.465,0.418,0.76,0.552
			S84.168,83.492,84.525,83.492z"/>
	</g>
	<g enable-background="new    ">
		<path fill="#4F4F4F" d="M94.188,85.396c-0.903,0-1.588-0.289-2.057-0.869c-0.469-0.578-0.703-1.438-0.703-2.573v-5.483h2.24v5
			c0,1.348,0.484,2.021,1.455,2.021c0.434,0,0.854-0.131,1.262-0.393c0.406-0.263,0.738-0.662,0.994-1.195v-5.434h2.24v6.186
			c0,0.234,0.042,0.4,0.125,0.501c0.084,0.101,0.221,0.155,0.41,0.168v1.905c-0.223,0.043-0.41,0.071-0.562,0.084
			c-0.149,0.011-0.286,0.017-0.409,0.017c-0.4,0-0.728-0.092-0.978-0.276c-0.251-0.184-0.397-0.437-0.442-0.761l-0.051-0.702
			c-0.391,0.604-0.893,1.055-1.505,1.354C95.596,85.246,94.922,85.396,94.188,85.396z"/>
	</g>
	<g>
		<path fill="#62C7CE" d="M76.706,31.055c-0.008-1.599-1.319-2.901-2.92-2.896l-7.613,0.032c-1.021,0.004-1.916,0.54-2.434,1.342
			c4.733,3.113,7.872,8.448,7.897,14.509c0,0.297-0.013,0.591-0.025,0.885c-2.062,1.938-4.827,3.133-7.868,3.146
			c-3.561,0.015-6.755-1.594-8.896-4.129l-0.004-0.181c-0.032-7.958,4.032-14.996,10.212-19.136
			c-0.688-1.047-1.871-1.741-3.209-1.735l-9.998,0.041c-2.1,0.009-3.811,1.734-3.802,3.834l0.141,34.049
			c0.009,2.1,1.734,3.811,3.832,3.801l10-0.041c1.338-0.006,2.516-0.709,3.191-1.762c-4.092-2.692-7.276-6.648-8.984-11.31
			l13.785-0.057c-1.357,2.91-3.498,5.389-6.152,7.166c0.521,0.797,1.424,1.326,2.441,1.321l7.613-0.031
			c1.602-0.007,2.9-1.32,2.896-2.919L76.706,31.055z"/>
		<path fill="#FFE802" d="M68.029,39.773c0.013,2.694-2.163,4.888-4.858,4.898c-2.693,0.011-4.887-2.164-4.898-4.858
			c-0.011-2.694,2.164-4.888,4.859-4.898C65.825,34.903,68.02,37.079,68.029,39.773"/>
	</g>
	<g enable-background="new    ">
		<path fill="#4F4F4F" d="M22.502,90.456V89.4h0.718v1.056H22.502z M22.502,97.107v-5.502h0.718v5.502H22.502z"/>
		<path fill="#4F4F4F" d="M29.427,97.107h-0.718v-3.072c0-0.654-0.097-1.131-0.291-1.426c-0.193-0.295-0.491-0.443-0.892-0.443
			c-0.211,0-0.422,0.039-0.633,0.116s-0.407,0.187-0.586,0.327c-0.18,0.142-0.34,0.309-0.48,0.502
			c-0.141,0.193-0.243,0.402-0.306,0.628v3.368h-0.718v-5.502h0.654v1.246c0.225-0.4,0.547-0.725,0.966-0.971
			c0.418-0.247,0.875-0.37,1.367-0.37c0.302,0,0.56,0.058,0.771,0.169c0.211,0.112,0.38,0.271,0.507,0.477s0.218,0.453,0.274,0.748
			c0.056,0.297,0.084,0.623,0.084,0.982L29.427,97.107L29.427,97.107z"/>
	</g>
	<g enable-background="new    ">
		<path fill="#4F4F4F" d="M33.312,97.213c-0.429,0-0.848-0.07-1.256-0.211c-0.408-0.141-0.76-0.345-1.056-0.611l0.327-0.486
			c0.31,0.254,0.625,0.443,0.945,0.57s0.663,0.189,1.029,0.189c0.443,0,0.797-0.09,1.061-0.27c0.264-0.181,0.396-0.436,0.396-0.767
			c0-0.153-0.036-0.282-0.106-0.385c-0.07-0.103-0.174-0.191-0.312-0.271c-0.137-0.076-0.31-0.146-0.517-0.205
			c-0.208-0.061-0.449-0.121-0.723-0.186c-0.317-0.077-0.591-0.154-0.824-0.232c-0.232-0.076-0.424-0.164-0.575-0.264
			c-0.151-0.1-0.264-0.22-0.338-0.363c-0.074-0.145-0.111-0.326-0.111-0.545c0-0.273,0.054-0.517,0.164-0.729
			c0.109-0.211,0.257-0.385,0.443-0.522c0.187-0.137,0.405-0.241,0.655-0.312s0.516-0.105,0.797-0.105
			c0.422,0,0.806,0.068,1.151,0.206c0.345,0.138,0.623,0.318,0.834,0.544l-0.348,0.422c-0.205-0.211-0.453-0.369-0.745-0.475
			s-0.596-0.159-0.913-0.159c-0.19,0-0.366,0.021-0.528,0.06c-0.162,0.039-0.305,0.101-0.428,0.185
			c-0.123,0.085-0.22,0.192-0.29,0.322c-0.071,0.13-0.106,0.282-0.106,0.459c0,0.147,0.025,0.268,0.074,0.358
			c0.049,0.092,0.13,0.172,0.243,0.237c0.112,0.067,0.255,0.127,0.428,0.181c0.172,0.053,0.382,0.106,0.628,0.162
			c0.352,0.086,0.662,0.17,0.929,0.254c0.268,0.084,0.491,0.184,0.67,0.297c0.18,0.111,0.315,0.248,0.407,0.41
			c0.091,0.162,0.137,0.359,0.137,0.592c0,0.508-0.194,0.908-0.581,1.203C34.486,97.064,33.967,97.213,33.312,97.213z"/>
	</g>
	<g enable-background="new    ">
		<path fill="#4F4F4F" d="M39.521,96.844c-0.042,0.021-0.104,0.049-0.185,0.084s-0.174,0.07-0.28,0.105s-0.226,0.066-0.359,0.096
			c-0.134,0.027-0.275,0.042-0.422,0.042c-0.155,0-0.303-0.021-0.443-0.063c-0.141-0.041-0.264-0.106-0.37-0.194
			s-0.19-0.199-0.253-0.333c-0.063-0.133-0.095-0.288-0.095-0.464v-3.938h-0.76v-0.57h0.76v-1.856h0.718v1.856h1.267v0.57h-1.267
			v3.737c0.014,0.204,0.086,0.354,0.216,0.449c0.13,0.095,0.28,0.143,0.449,0.143c0.204,0,0.383-0.032,0.539-0.101
			c0.154-0.066,0.253-0.114,0.295-0.143L39.521,96.844z"/>
		<path fill="#4F4F4F" d="M41.23,90.456V89.4h0.718v1.056H41.23z M41.23,97.107v-5.502h0.718v5.502H41.23z"/>
		<path fill="#4F4F4F" d="M46.359,96.844c-0.042,0.021-0.104,0.049-0.185,0.084s-0.174,0.07-0.28,0.105s-0.226,0.066-0.359,0.096
			c-0.134,0.027-0.275,0.042-0.422,0.042c-0.155,0-0.303-0.021-0.443-0.063c-0.141-0.041-0.264-0.106-0.37-0.194
			c-0.106-0.088-0.19-0.199-0.253-0.333c-0.063-0.133-0.095-0.288-0.095-0.464v-3.938h-0.76v-0.57h0.76v-1.856h0.718v1.856h1.267
			v0.57H44.67v3.737c0.014,0.204,0.086,0.354,0.216,0.449c0.13,0.095,0.28,0.143,0.449,0.143c0.204,0,0.383-0.032,0.539-0.101
			c0.154-0.066,0.253-0.114,0.295-0.143L46.359,96.844z"/>
		<path fill="#4F4F4F" d="M48.978,97.213c-0.598,0-1.043-0.197-1.335-0.597c-0.292-0.397-0.438-0.99-0.438-1.778v-3.23h0.718v3.104
			c0,1.246,0.426,1.868,1.277,1.868c0.211,0,0.419-0.035,0.623-0.104c0.204-0.07,0.392-0.173,0.565-0.307
			c0.172-0.134,0.327-0.292,0.464-0.477c0.137-0.183,0.248-0.391,0.333-0.623v-3.463h0.718v4.572c0,0.196,0.084,0.295,0.253,0.295
			v0.635c-0.084,0.014-0.153,0.021-0.206,0.021c-0.053,0-0.09,0-0.111,0c-0.169-0.008-0.306-0.067-0.412-0.18
			c-0.105-0.112-0.158-0.265-0.158-0.454v-0.635c-0.239,0.431-0.565,0.764-0.977,0.998C49.88,97.093,49.442,97.213,48.978,97.213z"
			/>
	</g>
	<g enable-background="new    ">
		<path fill="#4F4F4F" d="M56.222,96.844c-0.042,0.021-0.104,0.049-0.185,0.084s-0.174,0.07-0.28,0.105s-0.226,0.066-0.359,0.096
			c-0.134,0.027-0.275,0.042-0.422,0.042c-0.155,0-0.303-0.021-0.443-0.063c-0.141-0.041-0.264-0.106-0.37-0.194
			s-0.19-0.199-0.253-0.333c-0.063-0.133-0.095-0.288-0.095-0.464v-3.938h-0.76v-0.57h0.76v-1.856h0.718v1.856H55.8v0.57h-1.267
			v3.737c0.014,0.204,0.086,0.354,0.216,0.449s0.28,0.143,0.449,0.143c0.204,0,0.383-0.032,0.539-0.101
			c0.154-0.066,0.253-0.114,0.295-0.143L56.222,96.844z"/>
	</g>
	<g enable-background="new    ">
		<path fill="#4F4F4F" d="M59.59,97.213c-0.401,0-0.768-0.074-1.098-0.227c-0.331-0.151-0.618-0.357-0.86-0.618
			c-0.243-0.261-0.431-0.562-0.565-0.908c-0.134-0.345-0.201-0.707-0.201-1.087c0-0.387,0.069-0.753,0.206-1.098
			c0.137-0.346,0.327-0.647,0.57-0.908c0.243-0.262,0.53-0.469,0.861-0.623s0.693-0.232,1.087-0.232s0.758,0.078,1.094,0.232
			c0.334,0.154,0.621,0.361,0.865,0.623c0.242,0.261,0.432,0.562,0.569,0.908c0.137,0.345,0.206,0.711,0.206,1.098
			c0,0.38-0.066,0.742-0.201,1.087c-0.133,0.347-0.321,0.647-0.564,0.908c-0.242,0.261-0.531,0.467-0.865,0.618
			C60.358,97.139,59.991,97.213,59.59,97.213z M57.594,94.384c0,0.31,0.053,0.597,0.159,0.86c0.105,0.264,0.248,0.496,0.427,0.695
			c0.18,0.201,0.391,0.357,0.634,0.471s0.501,0.169,0.776,0.169c0.275,0,0.533-0.058,0.776-0.175
			c0.243-0.115,0.456-0.273,0.638-0.475c0.184-0.201,0.328-0.435,0.434-0.701c0.106-0.268,0.158-0.558,0.158-0.867
			c0-0.303-0.053-0.588-0.158-0.859c-0.104-0.271-0.25-0.507-0.434-0.707c-0.184-0.201-0.396-0.359-0.638-0.477
			c-0.242-0.116-0.501-0.174-0.776-0.174c-0.275,0-0.532,0.059-0.771,0.174c-0.239,0.117-0.45,0.277-0.633,0.48
			c-0.183,0.204-0.327,0.441-0.433,0.713S57.594,94.074,57.594,94.384z"/>
	</g>
	<g enable-background="new    ">
		<path fill="#4F4F4F" d="M66.369,94.341c0-0.387,0.066-0.753,0.199-1.098c0.135-0.345,0.322-0.646,0.565-0.902
			c0.242-0.257,0.533-0.459,0.871-0.606s0.71-0.223,1.119-0.223c0.521,0,0.976,0.118,1.36,0.354
			c0.388,0.235,0.681,0.555,0.877,0.956l-0.696,0.222c-0.155-0.28-0.371-0.502-0.649-0.66c-0.277-0.157-0.586-0.237-0.924-0.237
			c-0.281,0-0.544,0.058-0.785,0.17c-0.244,0.111-0.455,0.266-0.635,0.459c-0.18,0.192-0.32,0.424-0.423,0.69
			c-0.103,0.269-0.151,0.56-0.151,0.876c0,0.311,0.053,0.604,0.157,0.877c0.104,0.274,0.25,0.512,0.433,0.713
			c0.184,0.2,0.396,0.358,0.64,0.476c0.243,0.116,0.501,0.174,0.776,0.174c0.176,0,0.35-0.024,0.521-0.073
			c0.173-0.05,0.333-0.117,0.48-0.206c0.146-0.088,0.273-0.188,0.379-0.301c0.106-0.112,0.181-0.231,0.223-0.358l0.708,0.211
			c-0.078,0.196-0.19,0.379-0.338,0.543c-0.147,0.166-0.322,0.311-0.522,0.435c-0.201,0.123-0.423,0.218-0.666,0.284
			c-0.242,0.066-0.494,0.101-0.755,0.101c-0.399,0-0.771-0.075-1.108-0.228c-0.336-0.151-0.629-0.358-0.875-0.622
			c-0.246-0.265-0.438-0.568-0.576-0.913C66.438,95.105,66.369,94.734,66.369,94.341z"/>
		<path fill="#4F4F4F" d="M75.289,92.24c-0.484,0.015-0.907,0.146-1.266,0.4c-0.359,0.254-0.613,0.603-0.762,1.045v3.422h-0.718
			v-5.502h0.677v1.32c0.202-0.423,0.479-0.753,0.822-0.992c0.344-0.238,0.714-0.358,1.107-0.358c0.058,0,0.103,0.004,0.138,0.011
			L75.289,92.24L75.289,92.24z"/>
	</g>
	<g enable-background="new    ">
		<path fill="#4F4F4F" d="M76.757,90.456V89.4h0.718v1.056H76.757z M76.757,97.107v-5.502h0.718v5.502H76.757z"/>
	</g>
	<g enable-background="new    ">
		<path fill="#4F4F4F" d="M80.706,97.213c-0.261,0-0.501-0.044-0.724-0.132c-0.221-0.088-0.416-0.209-0.58-0.364
			c-0.166-0.154-0.295-0.336-0.385-0.544c-0.093-0.207-0.139-0.431-0.139-0.67s0.057-0.461,0.169-0.665s0.271-0.381,0.476-0.527
			c0.203-0.147,0.447-0.263,0.729-0.344c0.282-0.081,0.592-0.121,0.93-0.121c0.281,0,0.566,0.024,0.855,0.073
			c0.287,0.05,0.545,0.12,0.77,0.211v-0.496c0-0.485-0.137-0.87-0.41-1.155c-0.274-0.285-0.655-0.429-1.141-0.429
			c-0.281,0-0.57,0.058-0.865,0.169c-0.297,0.113-0.596,0.275-0.897,0.486l-0.255-0.477c0.712-0.479,1.4-0.718,2.07-0.718
			c0.689,0,1.23,0.193,1.625,0.581c0.396,0.387,0.592,0.922,0.592,1.604v2.481c0,0.196,0.088,0.296,0.265,0.296v0.633
			c-0.119,0.021-0.211,0.031-0.274,0.031c-0.183,0-0.324-0.045-0.428-0.137s-0.156-0.218-0.163-0.38l-0.021-0.435
			c-0.254,0.332-0.572,0.586-0.955,0.762C81.562,97.125,81.148,97.213,80.706,97.213z M80.875,96.664
			c0.373,0,0.717-0.07,1.029-0.211s0.551-0.327,0.713-0.561c0.062-0.062,0.111-0.132,0.143-0.205
			c0.032-0.074,0.047-0.144,0.047-0.207v-0.896c-0.238-0.091-0.486-0.162-0.744-0.211c-0.256-0.049-0.52-0.074-0.785-0.074
			c-0.508,0-0.92,0.105-1.235,0.317c-0.315,0.211-0.476,0.489-0.476,0.834c0,0.169,0.033,0.327,0.101,0.475
			c0.065,0.148,0.158,0.276,0.274,0.386c0.115,0.109,0.254,0.195,0.416,0.26C80.52,96.634,80.691,96.664,80.875,96.664z"/>
	</g>
	<g enable-background="new    ">
		<path fill="#4F4F4F" d="M87.928,96.844c-0.043,0.021-0.104,0.049-0.186,0.084c-0.08,0.035-0.174,0.07-0.279,0.105
			s-0.227,0.066-0.359,0.096c-0.133,0.027-0.273,0.042-0.422,0.042c-0.154,0-0.303-0.021-0.442-0.063
			c-0.14-0.041-0.265-0.107-0.37-0.195s-0.189-0.199-0.254-0.333c-0.063-0.134-0.096-0.288-0.096-0.464v-3.938h-0.761v-0.569h0.761
			V89.75h0.719v1.857h1.267v0.569h-1.267v3.737c0.014,0.204,0.086,0.354,0.217,0.449c0.129,0.095,0.279,0.143,0.447,0.143
			c0.205,0,0.385-0.033,0.539-0.102c0.154-0.065,0.254-0.113,0.295-0.143L87.928,96.844z"/>
		<path fill="#4F4F4F" d="M88.824,90.456V89.4h0.719v1.056H88.824z M88.824,97.107v-5.502h0.719v5.502H88.824z"/>
	</g>
	<g enable-background="new    ">
		<path fill="#4F4F4F" d="M93.301,97.107l-2.238-5.502h0.738l1.891,4.836l1.9-4.836h0.696l-2.238,5.502H93.301z"/>
	</g>
	<g enable-background="new    ">
		<path fill="#4F4F4F" d="M99.698,97.213c-0.401,0-0.769-0.074-1.099-0.227c-0.33-0.151-0.617-0.357-0.859-0.618
			c-0.243-0.261-0.432-0.562-0.565-0.908c-0.134-0.345-0.2-0.707-0.2-1.087c0-0.387,0.068-0.753,0.205-1.098
			c0.139-0.346,0.328-0.647,0.57-0.908c0.243-0.262,0.529-0.469,0.861-0.623c0.33-0.154,0.691-0.232,1.087-0.232
			c0.394,0,0.759,0.078,1.093,0.232s0.623,0.361,0.865,0.623c0.242,0.261,0.434,0.562,0.57,0.908
			c0.135,0.345,0.205,0.711,0.205,1.098c0,0.38-0.066,0.742-0.199,1.087c-0.135,0.347-0.322,0.647-0.565,0.908
			s-0.53,0.467-0.866,0.618C100.467,97.139,100.1,97.213,99.698,97.213z M97.703,94.384c0,0.31,0.053,0.597,0.158,0.86
			c0.104,0.263,0.248,0.496,0.428,0.695c0.18,0.201,0.391,0.357,0.633,0.471c0.243,0.113,0.502,0.169,0.776,0.169
			s0.532-0.058,0.776-0.175c0.241-0.115,0.455-0.273,0.639-0.475c0.183-0.201,0.326-0.435,0.433-0.701
			c0.104-0.269,0.158-0.558,0.158-0.867c0-0.303-0.054-0.588-0.158-0.859c-0.106-0.271-0.25-0.507-0.433-0.707
			c-0.184-0.201-0.396-0.359-0.639-0.477c-0.244-0.115-0.502-0.174-0.776-0.174s-0.532,0.059-0.771,0.174
			c-0.239,0.117-0.45,0.277-0.634,0.48c-0.184,0.204-0.327,0.441-0.434,0.713C97.756,93.783,97.703,94.074,97.703,94.384z"/>
	</g>
</g>
</svg>
