<?xml version="1.0" encoding="utf-8"?>
<!-- Generator: Adobe Illustrator 16.0.0, SVG Export Plug-In . SVG Version: 6.00 Build 0)  -->
<!DOCTYPE svg PUBLIC "-//W3C//DTD SVG 1.1//EN" "http://www.w3.org/Graphics/SVG/1.1/DTD/svg11.dtd">
<svg version="1.1" id="Layer_1" xmlns="http://www.w3.org/2000/svg" xmlns:xlink="http://www.w3.org/1999/xlink" x="0px" y="0px"
	 width="120px" height="120px" viewBox="0 0 120 120" enable-background="new 0 0 120 120" xml:space="preserve">
<g>
	<g>
		<path fill="#FFE802" d="M62.984,12.709c-0.687,0.501-1.332,1.051-1.938,1.643l-0.023,0.023c-0.354,0.348-0.694,0.711-1.02,1.088
			l-0.065,0.077c-0.183,0.216-0.361,0.436-0.533,0.659l-0.099,0.127c-0.276,0.365-0.538,0.742-0.786,1.129l-0.151,0.241
			c-0.102,0.164-0.201,0.331-0.297,0.499c-0.061,0.106-0.122,0.213-0.18,0.32c-0.057,0.104-0.113,0.208-0.167,0.313
			c-0.091,0.174-0.179,0.349-0.263,0.525c-0.043,0.09-0.084,0.182-0.127,0.272c-0.062,0.14-0.125,0.279-0.185,0.421l-0.103,0.242
			c-0.082,0.2-0.158,0.402-0.232,0.606l-0.087,0.243c-0.074,0.213-0.144,0.427-0.21,0.643l-0.051,0.177
			c-0.057,0.193-0.109,0.388-0.159,0.584l-0.046,0.178c-0.057,0.232-0.108,0.467-0.154,0.703l-0.036,0.188
			c-0.046,0.244-0.088,0.491-0.124,0.739l-0.01,0.08c-0.033,0.237-0.061,0.477-0.083,0.716l-0.015,0.152
			c-0.022,0.253-0.039,0.508-0.049,0.764l-0.006,0.159c-0.009,0.266-0.014,0.533-0.01,0.803c0.003,0.269,0.016,0.536,0.031,0.802
			l0.009,0.159c0.019,0.255,0.04,0.51,0.069,0.762l0.018,0.15c0.029,0.24,0.062,0.479,0.102,0.715l0.013,0.08
			c0.042,0.246,0.091,0.492,0.142,0.736l0.041,0.187c0.053,0.234,0.11,0.467,0.174,0.697l0.049,0.178
			c0.056,0.194,0.113,0.388,0.174,0.58l0.056,0.175c0.072,0.214,0.147,0.426,0.228,0.637l0.092,0.241
			c0.08,0.202,0.162,0.402,0.248,0.601l0.109,0.239c0.064,0.14,0.129,0.278,0.196,0.416l0.133,0.269
			c0.089,0.176,0.181,0.348,0.276,0.52c0.057,0.104,0.115,0.206,0.175,0.309c0.062,0.105,0.125,0.211,0.188,0.315
			c0.101,0.166,0.203,0.329,0.31,0.491l0.157,0.237c0.259,0.38,0.529,0.75,0.815,1.108l0.101,0.124
			c0.179,0.22,0.363,0.435,0.551,0.644l0.068,0.077c0.334,0.368,0.684,0.723,1.045,1.062l0.024,0.022
			c0.621,0.576,1.282,1.109,1.981,1.593l0,0L62.984,12.709z"/>
		<path fill="#FFE802" d="M42.846,23.805c-0.136,0.866-0.207,1.74-0.217,2.614l-0.001,0.032c-0.004,0.515,0.013,1.027,0.052,1.539
			l0.008,0.104c0.023,0.29,0.054,0.58,0.092,0.869l0.021,0.164c0.064,0.469,0.148,0.935,0.25,1.397
			c0.021,0.096,0.043,0.191,0.065,0.287c0.045,0.194,0.095,0.388,0.147,0.58c0.033,0.122,0.066,0.244,0.103,0.366
			c0.034,0.117,0.069,0.233,0.106,0.351c0.061,0.192,0.123,0.383,0.191,0.575c0.034,0.097,0.071,0.193,0.107,0.29
			c0.055,0.148,0.113,0.296,0.172,0.442l0.101,0.252c0.087,0.205,0.179,0.409,0.273,0.611l0.114,0.241
			c0.102,0.209,0.205,0.417,0.315,0.622l0.093,0.166c0.1,0.183,0.202,0.363,0.31,0.543l0.097,0.163
			c0.128,0.211,0.262,0.419,0.4,0.625l0.109,0.163c0.146,0.212,0.295,0.423,0.449,0.63l0.053,0.066
			c0.148,0.196,0.303,0.391,0.461,0.583l0.101,0.121c0.169,0.201,0.342,0.398,0.521,0.593l0.112,0.12
			c0.188,0.2,0.38,0.399,0.579,0.593c0.199,0.194,0.402,0.381,0.607,0.563l0.123,0.108c0.199,0.174,0.4,0.343,0.605,0.507
			l0.124,0.096c0.196,0.154,0.396,0.304,0.595,0.448l0.068,0.049c0.211,0.15,0.425,0.293,0.641,0.433l0.166,0.106
			c0.209,0.133,0.422,0.261,0.635,0.384l0.166,0.093c0.183,0.102,0.365,0.2,0.551,0.296l0.168,0.087
			c0.207,0.104,0.419,0.203,0.63,0.299l0.243,0.109c0.205,0.089,0.412,0.176,0.619,0.257l0.254,0.095
			c0.149,0.056,0.298,0.109,0.447,0.16c0.098,0.034,0.195,0.068,0.293,0.101c0.192,0.062,0.387,0.121,0.58,0.177
			c0.117,0.032,0.235,0.066,0.354,0.098c0.121,0.032,0.244,0.062,0.367,0.093c0.194,0.047,0.39,0.091,0.584,0.132
			c0.097,0.021,0.192,0.04,0.289,0.059c0.466,0.089,0.934,0.161,1.403,0.214l0.165,0.017c0.29,0.03,0.58,0.054,0.871,0.069
			l0.105,0.006c0.512,0.025,1.025,0.029,1.538,0.011l0.034-0.001c0.873-0.032,1.744-0.127,2.606-0.283L42.846,23.805z"/>
		<path fill="#FFE802" d="M32.441,44.808c0.591,0.927,1.249,1.81,1.964,2.641l0.027,0.032c0.421,0.486,0.862,0.956,1.323,1.406
			l0.094,0.091c0.263,0.254,0.531,0.502,0.807,0.743l0.157,0.137c0.449,0.388,0.915,0.757,1.394,1.109
			c0.1,0.072,0.199,0.145,0.299,0.216c0.205,0.146,0.412,0.286,0.621,0.425c0.133,0.087,0.265,0.174,0.398,0.259
			c0.13,0.082,0.26,0.163,0.393,0.242c0.217,0.131,0.436,0.259,0.656,0.383c0.113,0.062,0.229,0.123,0.344,0.185
			c0.174,0.093,0.35,0.185,0.526,0.273c0.103,0.051,0.203,0.104,0.306,0.153c0.252,0.121,0.506,0.237,0.764,0.351
			c0.103,0.044,0.205,0.088,0.308,0.131c0.269,0.113,0.539,0.223,0.813,0.325l0.224,0.08c0.245,0.09,0.492,0.173,0.742,0.254
			l0.226,0.073c0.297,0.092,0.594,0.179,0.896,0.258l0.239,0.062c0.313,0.079,0.627,0.154,0.945,0.221l0.102,0.02
			c0.306,0.062,0.611,0.117,0.921,0.166l0.194,0.031c0.324,0.05,0.652,0.091,0.982,0.126l0.205,0.021
			c0.343,0.033,0.689,0.062,1.037,0.079c0.347,0.018,0.693,0.024,1.039,0.026h0.205c0.332-0.001,0.662-0.01,0.99-0.025l0.197-0.012
			c0.312-0.018,0.622-0.041,0.932-0.072l0.104-0.009c0.322-0.034,0.644-0.077,0.962-0.124l0.245-0.037
			c0.308-0.05,0.612-0.104,0.916-0.166l0.233-0.05c0.256-0.056,0.51-0.114,0.763-0.178l0.231-0.058
			c0.282-0.074,0.562-0.155,0.84-0.24c0.107-0.033,0.215-0.066,0.32-0.101c0.268-0.086,0.533-0.175,0.797-0.271
			c0.106-0.039,0.213-0.081,0.318-0.122c0.186-0.07,0.37-0.144,0.553-0.219c0.119-0.049,0.24-0.098,0.359-0.147
			c0.232-0.102,0.462-0.208,0.691-0.315c0.141-0.065,0.277-0.133,0.414-0.201c0.143-0.071,0.283-0.144,0.424-0.218
			c0.223-0.116,0.442-0.236,0.66-0.359c0.105-0.061,0.213-0.122,0.318-0.185c0.514-0.302,1.014-0.622,1.5-0.963l0.17-0.12
			c0.299-0.212,0.592-0.431,0.878-0.657l0.104-0.081c0.502-0.4,0.988-0.823,1.457-1.266L67,49.103
			c0.795-0.755,1.537-1.565,2.221-2.43L32.441,44.808L32.441,44.808z"/>
		<path fill="#FFE802" d="M48.289,67.186c1.123,0.312,2.268,0.537,3.42,0.685l0.045,0.006c0.677,0.084,1.356,0.14,2.039,0.166
			l0.139,0.006c0.387,0.013,0.775,0.017,1.163,0.013l0.22-0.004c0.629-0.015,1.257-0.056,1.884-0.117
			c0.13-0.015,0.261-0.029,0.39-0.043c0.264-0.031,0.526-0.066,0.789-0.107c0.166-0.025,0.332-0.051,0.498-0.08
			c0.16-0.027,0.32-0.057,0.479-0.086c0.265-0.053,0.526-0.105,0.789-0.166c0.134-0.031,0.267-0.064,0.401-0.098
			c0.203-0.051,0.406-0.104,0.607-0.16c0.117-0.031,0.234-0.062,0.35-0.096c0.285-0.084,0.566-0.174,0.85-0.269
			c0.113-0.037,0.226-0.076,0.338-0.114c0.291-0.103,0.58-0.21,0.869-0.322l0.232-0.097c0.256-0.104,0.511-0.213,0.766-0.325
			l0.229-0.104c0.299-0.138,0.594-0.283,0.887-0.435l0.232-0.121c0.303-0.159,0.604-0.323,0.9-0.498l0.094-0.057
			c0.285-0.168,0.563-0.342,0.842-0.522l0.176-0.113c0.291-0.19,0.578-0.394,0.861-0.599l0.178-0.131
			c0.293-0.217,0.584-0.438,0.871-0.674c0.285-0.231,0.562-0.473,0.836-0.717l0.162-0.146c0.26-0.233,0.514-0.477,0.762-0.723
			l0.146-0.15c0.232-0.234,0.461-0.475,0.683-0.717l0.074-0.081c0.229-0.256,0.452-0.518,0.67-0.781l0.165-0.203
			c0.207-0.257,0.408-0.518,0.604-0.781l0.146-0.205c0.162-0.225,0.32-0.452,0.475-0.682l0.141-0.209
			c0.17-0.259,0.332-0.522,0.492-0.786c0.062-0.103,0.121-0.204,0.18-0.307c0.15-0.258,0.296-0.517,0.435-0.778
			c0.058-0.106,0.108-0.215,0.164-0.322c0.097-0.187,0.188-0.375,0.28-0.564c0.06-0.124,0.119-0.248,0.177-0.373
			c0.11-0.244,0.22-0.491,0.321-0.738c0.062-0.15,0.123-0.301,0.183-0.452c0.062-0.157,0.121-0.314,0.179-0.472
			c0.092-0.25,0.18-0.5,0.265-0.752c0.04-0.124,0.081-0.248,0.12-0.372c0.188-0.602,0.354-1.209,0.496-1.822l0.047-0.215
			c0.084-0.379,0.158-0.759,0.225-1.141l0.023-0.138c0.111-0.673,0.195-1.351,0.248-2.03l0.004-0.045
			c0.091-1.158,0.098-2.324,0.021-3.488L48.289,67.186z"/>
		<path fill="#ED314E" d="M76.525,23.567c-0.594,0.065-1.185,0.174-1.762,0.323l-0.022,0.006c-0.339,0.088-0.675,0.191-1.005,0.307
			l-0.066,0.024c-0.188,0.068-0.373,0.14-0.559,0.215l-0.104,0.044c-0.297,0.126-0.59,0.265-0.877,0.413l-0.179,0.095
			c-0.12,0.064-0.237,0.132-0.355,0.2l-0.224,0.133L71.16,25.46c-0.116,0.074-0.23,0.15-0.346,0.229l-0.172,0.123l-0.262,0.192
			l-0.148,0.111c-0.119,0.094-0.237,0.19-0.354,0.289l-0.14,0.119c-0.119,0.104-0.237,0.209-0.354,0.318l-0.094,0.09
			c-0.102,0.099-0.203,0.199-0.303,0.301l-0.09,0.093c-0.116,0.123-0.23,0.248-0.342,0.376l-0.089,0.102
			c-0.112,0.134-0.227,0.27-0.336,0.408L68.1,28.257c-0.104,0.134-0.205,0.27-0.304,0.408l-0.062,0.089
			c-0.103,0.146-0.201,0.296-0.299,0.448l-0.06,0.096c-0.099,0.159-0.194,0.321-0.287,0.487c-0.092,0.165-0.18,0.333-0.264,0.501
			l-0.05,0.101c-0.08,0.162-0.155,0.326-0.227,0.489l-0.043,0.1c-0.064,0.156-0.129,0.313-0.188,0.472L66.301,31.5
			c-0.062,0.165-0.117,0.332-0.17,0.5l-0.041,0.129c-0.051,0.161-0.098,0.323-0.141,0.486l-0.031,0.126
			c-0.035,0.139-0.066,0.276-0.098,0.415l-0.027,0.127c-0.031,0.156-0.061,0.312-0.084,0.47l-0.029,0.18
			c-0.021,0.151-0.043,0.302-0.06,0.454l-0.017,0.185c-0.013,0.107-0.021,0.215-0.027,0.322l-0.014,0.212
			c-0.006,0.138-0.011,0.275-0.015,0.413v0.251l0.004,0.259c0.005,0.137,0.009,0.272,0.017,0.409l0.014,0.2
			c0.023,0.324,0.061,0.645,0.109,0.964l0.018,0.112c0.032,0.196,0.068,0.392,0.109,0.587l0.016,0.069
			c0.074,0.343,0.163,0.682,0.268,1.017l0.006,0.022c0.178,0.57,0.396,1.129,0.65,1.669v0.001L76.525,23.567z"/>
	</g>
	<g enable-background="new    ">
		<path fill="#4F4F4F" d="M21.443,93.047v-1.085h0.738v1.085H21.443z M21.443,99.885V94.23h0.738v5.654H21.443z"/>
	</g>
	<g enable-background="new    ">
		<path fill="#4F4F4F" d="M28.834,99.885h-0.738v-3.158c0-0.673-0.1-1.161-0.298-1.465c-0.199-0.305-0.505-0.456-0.917-0.456
			c-0.217,0-0.434,0.04-0.651,0.119c-0.217,0.08-0.418,0.191-0.603,0.337c-0.184,0.145-0.349,0.316-0.494,0.516
			c-0.145,0.198-0.25,0.414-0.315,0.646v3.462h-0.738V94.23h0.673v1.28c0.231-0.412,0.562-0.745,0.993-0.998
			c0.43-0.253,0.899-0.38,1.405-0.38c0.311,0,0.575,0.058,0.792,0.174c0.217,0.115,0.391,0.278,0.521,0.488s0.224,0.467,0.282,0.771
			c0.058,0.304,0.087,0.64,0.087,1.009V99.885z"/>
	</g>
	<g enable-background="new    ">
		<path fill="#4F4F4F" d="M32.546,99.993c-0.441,0-0.872-0.072-1.292-0.217c-0.419-0.145-0.781-0.354-1.085-0.63l0.336-0.499
			c0.318,0.261,0.642,0.456,0.971,0.586c0.329,0.131,0.682,0.195,1.058,0.195c0.456,0,0.819-0.092,1.091-0.276
			s0.407-0.447,0.407-0.787c0-0.159-0.036-0.291-0.108-0.396c-0.072-0.104-0.179-0.196-0.32-0.276
			c-0.141-0.079-0.318-0.15-0.532-0.212s-0.461-0.124-0.743-0.189c-0.326-0.08-0.608-0.159-0.847-0.239
			c-0.239-0.079-0.436-0.17-0.591-0.271c-0.156-0.102-0.271-0.227-0.348-0.375c-0.076-0.148-0.114-0.335-0.114-0.559
			c0-0.282,0.056-0.532,0.168-0.749c0.112-0.217,0.264-0.396,0.456-0.537c0.192-0.142,0.416-0.248,0.673-0.32
			s0.53-0.108,0.819-0.108c0.434,0,0.829,0.07,1.183,0.212c0.354,0.141,0.64,0.327,0.857,0.559l-0.358,0.434
			c-0.21-0.217-0.465-0.38-0.765-0.488c-0.301-0.108-0.613-0.162-0.939-0.162c-0.195,0-0.376,0.02-0.542,0.06
			c-0.167,0.04-0.313,0.103-0.44,0.189s-0.226,0.197-0.298,0.331s-0.108,0.292-0.108,0.473c0,0.151,0.025,0.274,0.076,0.368
			c0.051,0.095,0.134,0.176,0.25,0.245c0.115,0.068,0.262,0.13,0.439,0.184c0.177,0.055,0.392,0.111,0.646,0.169
			c0.362,0.087,0.68,0.174,0.955,0.26c0.275,0.087,0.505,0.188,0.689,0.305c0.185,0.115,0.324,0.257,0.417,0.423
			c0.094,0.167,0.141,0.369,0.141,0.607c0,0.521-0.199,0.934-0.597,1.237C33.754,99.842,33.219,99.993,32.546,99.993z"/>
		<path fill="#4F4F4F" d="M38.667,99.613c-0.043,0.021-0.107,0.051-0.19,0.087c-0.083,0.036-0.179,0.072-0.288,0.108
			s-0.232,0.069-0.369,0.098c-0.138,0.029-0.282,0.044-0.434,0.044c-0.159,0-0.311-0.022-0.456-0.065
			c-0.145-0.043-0.271-0.11-0.379-0.201c-0.109-0.09-0.196-0.204-0.261-0.342c-0.065-0.137-0.098-0.296-0.098-0.478v-4.048h-0.781
			V94.23h0.781v-1.91h0.738v1.91h1.303v0.586h-1.303v3.842c0.015,0.21,0.089,0.363,0.223,0.461c0.134,0.099,0.288,0.147,0.461,0.147
			c0.209,0,0.394-0.035,0.553-0.104s0.261-0.117,0.304-0.146L38.667,99.613z"/>
		<path fill="#4F4F4F" d="M39.589,93.047v-1.085h0.738v1.085H39.589z M39.589,99.885V94.23h0.738v5.654H39.589z"/>
		<path fill="#4F4F4F" d="M44.669,99.613c-0.043,0.021-0.107,0.051-0.19,0.087c-0.083,0.036-0.179,0.072-0.288,0.108
			s-0.232,0.069-0.369,0.098c-0.138,0.029-0.282,0.044-0.434,0.044c-0.159,0-0.311-0.022-0.456-0.065
			c-0.145-0.043-0.271-0.11-0.379-0.201c-0.109-0.09-0.196-0.204-0.261-0.342c-0.065-0.137-0.098-0.296-0.098-0.478v-4.048h-0.781
			V94.23h0.781v-1.91h0.738v1.91h1.303v0.586h-1.303v3.842c0.015,0.21,0.089,0.363,0.223,0.461c0.134,0.099,0.288,0.147,0.461,0.147
			c0.209,0,0.394-0.035,0.553-0.104s0.261-0.117,0.304-0.146L44.669,99.613z"/>
	</g>
	<g enable-background="new    ">
		<path fill="#4F4F4F" d="M48.445,99.993c-0.615,0-1.073-0.204-1.373-0.613c-0.3-0.408-0.45-1.019-0.45-1.828V94.23h0.738v3.19
			c0,1.281,0.438,1.921,1.313,1.921c0.217,0,0.43-0.036,0.64-0.108s0.403-0.177,0.581-0.314s0.336-0.3,0.478-0.488
			s0.255-0.401,0.342-0.641v-3.56h0.738v4.699c0,0.203,0.087,0.304,0.26,0.304v0.651c-0.086,0.015-0.157,0.021-0.211,0.021
			s-0.092,0-0.114,0c-0.174-0.007-0.315-0.068-0.423-0.185c-0.109-0.115-0.163-0.271-0.163-0.467v-0.65
			c-0.246,0.441-0.581,0.783-1.004,1.025S48.923,99.993,48.445,99.993z"/>
	</g>
	<g enable-background="new    ">
		<path fill="#4F4F4F" d="M56.097,99.613c-0.043,0.021-0.107,0.051-0.19,0.087c-0.083,0.036-0.179,0.072-0.288,0.108
			s-0.232,0.069-0.369,0.098c-0.138,0.029-0.282,0.044-0.434,0.044c-0.159,0-0.311-0.022-0.456-0.065
			c-0.145-0.043-0.271-0.11-0.379-0.201c-0.109-0.09-0.196-0.204-0.261-0.342c-0.065-0.137-0.098-0.296-0.098-0.478v-4.048h-0.781
			V94.23h0.781v-1.91h0.738v1.91h1.303v0.586H54.36v3.842c0.015,0.21,0.089,0.363,0.223,0.461c0.134,0.099,0.288,0.147,0.461,0.147
			c0.209,0,0.394-0.035,0.553-0.104s0.261-0.117,0.304-0.146L56.097,99.613z"/>
	</g>
	<g enable-background="new    ">
		<path fill="#4F4F4F" d="M59.558,99.993c-0.412,0-0.789-0.078-1.128-0.233c-0.34-0.155-0.635-0.367-0.885-0.635
			c-0.25-0.268-0.443-0.579-0.581-0.934s-0.206-0.727-0.206-1.117c0-0.398,0.07-0.774,0.211-1.129s0.336-0.666,0.586-0.934
			c0.25-0.268,0.544-0.481,0.884-0.641c0.34-0.159,0.712-0.238,1.118-0.238s0.78,0.079,1.124,0.238s0.641,0.373,0.891,0.641
			c0.249,0.268,0.444,0.579,0.586,0.934c0.141,0.354,0.211,0.73,0.211,1.129c0,0.391-0.068,0.763-0.206,1.117
			s-0.331,0.666-0.581,0.934c-0.249,0.268-0.546,0.479-0.89,0.635S59.971,99.993,59.558,99.993z M57.507,97.085
			c0,0.318,0.054,0.613,0.163,0.884c0.108,0.271,0.255,0.511,0.439,0.717s0.402,0.367,0.651,0.483
			c0.25,0.115,0.516,0.173,0.797,0.173c0.282,0,0.548-0.06,0.798-0.179s0.468-0.282,0.657-0.488s0.337-0.447,0.444-0.722
			c0.109-0.275,0.164-0.571,0.164-0.891c0-0.311-0.055-0.605-0.164-0.884c-0.107-0.278-0.256-0.521-0.444-0.728
			s-0.407-0.369-0.657-0.488s-0.516-0.179-0.798-0.179c-0.282,0-0.546,0.06-0.792,0.179c-0.246,0.119-0.463,0.284-0.651,0.494
			s-0.336,0.454-0.445,0.732S57.507,96.767,57.507,97.085z"/>
	</g>
	<g enable-background="new    ">
		<path fill="#4F4F4F" d="M66.527,97.041c0-0.397,0.068-0.773,0.205-1.129c0.138-0.354,0.332-0.663,0.581-0.928
			c0.25-0.264,0.548-0.472,0.896-0.624c0.348-0.151,0.73-0.228,1.15-0.228c0.535,0,1.002,0.121,1.4,0.363
			c0.397,0.242,0.697,0.57,0.9,0.982l-0.717,0.228c-0.158-0.289-0.381-0.516-0.667-0.678c-0.286-0.163-0.603-0.244-0.95-0.244
			c-0.289,0-0.559,0.058-0.808,0.173c-0.25,0.116-0.467,0.273-0.651,0.473s-0.33,0.436-0.434,0.711
			c-0.105,0.274-0.158,0.575-0.158,0.9c0,0.318,0.055,0.619,0.163,0.901s0.257,0.526,0.444,0.732
			c0.188,0.206,0.408,0.369,0.657,0.488s0.516,0.179,0.798,0.179c0.181,0,0.359-0.025,0.537-0.075
			c0.178-0.051,0.342-0.121,0.494-0.212c0.151-0.091,0.281-0.193,0.391-0.31c0.108-0.115,0.184-0.238,0.228-0.369l0.728,0.217
			c-0.08,0.203-0.195,0.39-0.348,0.56s-0.331,0.318-0.537,0.444c-0.206,0.127-0.434,0.225-0.684,0.294
			c-0.25,0.068-0.509,0.103-0.776,0.103c-0.412,0-0.792-0.078-1.14-0.233s-0.647-0.369-0.9-0.641
			c-0.254-0.271-0.451-0.584-0.592-0.938S66.527,97.446,66.527,97.041z"/>
	</g>
	<g enable-background="new    ">
		<path fill="#4F4F4F" d="M75.958,94.882c-0.499,0.015-0.933,0.151-1.302,0.412s-0.63,0.618-0.782,1.074v3.517h-0.737V94.23h0.694
			v1.356c0.21-0.435,0.491-0.774,0.847-1.021c0.354-0.245,0.734-0.369,1.139-0.369c0.059,0,0.105,0.004,0.142,0.012V94.882z"/>
		<path fill="#4F4F4F" d="M76.945,93.047v-1.085h0.738v1.085H76.945z M76.945,99.885V94.23h0.738v5.654H76.945z"/>
	</g>
	<g enable-background="new    ">
		<path fill="#4F4F4F" d="M81.275,99.993c-0.269,0-0.516-0.045-0.744-0.136c-0.229-0.09-0.427-0.215-0.597-0.374
			c-0.171-0.159-0.302-0.346-0.396-0.56c-0.094-0.213-0.142-0.442-0.142-0.688s0.059-0.474,0.174-0.684
			c0.116-0.21,0.279-0.392,0.488-0.543c0.211-0.152,0.46-0.27,0.75-0.353c0.289-0.083,0.607-0.125,0.955-0.125
			c0.289,0,0.582,0.025,0.879,0.076s0.561,0.123,0.792,0.217v-0.51c0-0.5-0.142-0.896-0.423-1.188
			c-0.283-0.293-0.674-0.439-1.172-0.439c-0.29,0-0.587,0.058-0.891,0.173c-0.304,0.116-0.611,0.282-0.922,0.5l-0.262-0.488
			c0.731-0.492,1.44-0.738,2.128-0.738c0.709,0,1.267,0.199,1.671,0.597c0.405,0.398,0.607,0.948,0.607,1.649v2.551
			c0,0.203,0.092,0.304,0.271,0.304v0.651c-0.123,0.021-0.217,0.032-0.281,0.032c-0.188,0-0.335-0.047-0.439-0.141
			c-0.105-0.094-0.162-0.225-0.169-0.391l-0.021-0.445c-0.261,0.34-0.588,0.601-0.982,0.781
			C82.156,99.902,81.73,99.993,81.275,99.993z M81.448,99.429c0.384,0,0.736-0.072,1.059-0.217c0.321-0.145,0.565-0.337,0.732-0.575
			c0.065-0.065,0.114-0.136,0.146-0.212s0.049-0.146,0.049-0.211v-0.923c-0.246-0.094-0.501-0.166-0.765-0.217
			c-0.265-0.051-0.534-0.076-0.809-0.076c-0.521,0-0.945,0.108-1.271,0.325s-0.488,0.503-0.488,0.857
			c0,0.174,0.034,0.337,0.103,0.488c0.069,0.152,0.164,0.284,0.283,0.396s0.262,0.201,0.428,0.266
			C81.083,99.396,81.26,99.429,81.448,99.429z"/>
	</g>
	<g enable-background="new    ">
		<path fill="#4F4F4F" d="M88.699,99.613c-0.043,0.021-0.107,0.051-0.189,0.087c-0.084,0.036-0.18,0.072-0.288,0.108
			s-0.231,0.069-0.369,0.098c-0.138,0.029-0.282,0.044-0.435,0.044c-0.158,0-0.311-0.022-0.455-0.065s-0.271-0.11-0.38-0.201
			c-0.108-0.09-0.196-0.204-0.261-0.342c-0.064-0.137-0.098-0.296-0.098-0.478v-4.048h-0.781V94.23h0.781v-1.91h0.738v1.91h1.303
			v0.586h-1.303v3.842c0.014,0.21,0.088,0.363,0.223,0.461c0.133,0.099,0.287,0.147,0.461,0.147c0.209,0,0.395-0.035,0.553-0.104
			c0.16-0.068,0.262-0.117,0.305-0.146L88.699,99.613z"/>
		<path fill="#4F4F4F" d="M89.621,93.047v-1.085h0.738v1.085H89.621z M89.621,99.885V94.23h0.738v5.654H89.621z"/>
	</g>
	<g enable-background="new    ">
		<path fill="#4F4F4F" d="M94.223,99.885l-2.301-5.654h0.76l1.943,4.971l1.953-4.971h0.717l-2.301,5.654H94.223z"/>
	</g>
	<g enable-background="new    ">
		<path fill="#4F4F4F" d="M100.799,99.993c-0.412,0-0.788-0.078-1.128-0.233c-0.341-0.155-0.635-0.367-0.885-0.635
			c-0.249-0.268-0.443-0.579-0.581-0.934C98.068,97.837,98,97.465,98,97.074c0-0.398,0.07-0.774,0.211-1.129
			s0.336-0.666,0.586-0.934s0.545-0.481,0.885-0.641s0.713-0.238,1.117-0.238c0.406,0,0.78,0.079,1.124,0.238s0.64,0.373,0.89,0.641
			s0.445,0.579,0.586,0.934c0.142,0.354,0.212,0.73,0.212,1.129c0,0.391-0.069,0.763-0.206,1.117
			c-0.138,0.354-0.331,0.666-0.58,0.934c-0.25,0.268-0.547,0.479-0.891,0.635S101.212,99.993,100.799,99.993z M98.748,97.085
			c0,0.318,0.055,0.613,0.163,0.884c0.108,0.271,0.255,0.511,0.439,0.717s0.401,0.367,0.651,0.483
			c0.25,0.115,0.516,0.173,0.797,0.173c0.283,0,0.549-0.06,0.799-0.179c0.249-0.119,0.468-0.282,0.656-0.488
			c0.188-0.206,0.336-0.447,0.445-0.722c0.107-0.275,0.162-0.571,0.162-0.891c0-0.311-0.055-0.605-0.162-0.884
			c-0.109-0.278-0.258-0.521-0.445-0.728c-0.188-0.206-0.407-0.369-0.656-0.488c-0.25-0.119-0.516-0.179-0.799-0.179
			c-0.281,0-0.546,0.06-0.791,0.179c-0.246,0.119-0.464,0.284-0.652,0.494c-0.188,0.21-0.336,0.454-0.444,0.732
			S98.748,96.767,98.748,97.085z"/>
	</g>
	<g enable-background="new    ">
		<path fill="#4F4F4F" d="M16.78,84.529c0-0.63,0.109-1.226,0.327-1.787c0.217-0.562,0.533-1.054,0.945-1.479
			c0.412-0.423,0.911-0.762,1.495-1.014c0.584-0.252,1.243-0.378,1.977-0.378c0.985,0,1.824,0.212,2.517,0.636
			c0.693,0.424,1.212,0.979,1.555,1.667l-2.251,0.688c-0.195-0.332-0.453-0.587-0.773-0.765s-0.676-0.267-1.065-0.267
			c-0.332,0-0.642,0.066-0.928,0.197c-0.287,0.132-0.536,0.315-0.748,0.551c-0.212,0.234-0.378,0.518-0.498,0.851
			c-0.121,0.332-0.181,0.698-0.181,1.1c0,0.4,0.063,0.768,0.189,1.1s0.295,0.618,0.507,0.859c0.212,0.24,0.461,0.427,0.748,0.559
			s0.59,0.197,0.911,0.197c0.413,0,0.793-0.104,1.143-0.31c0.349-0.206,0.593-0.458,0.73-0.756l2.251,0.688
			c-0.31,0.688-0.819,1.249-1.529,1.684c-0.71,0.436-1.564,0.653-2.561,0.653c-0.733,0-1.392-0.126-1.976-0.378
			c-0.584-0.252-1.083-0.593-1.495-1.022s-0.73-0.928-0.954-1.495C16.892,85.74,16.78,85.147,16.78,84.529z"/>
	</g>
	<g enable-background="new    ">
		<path fill="#4F4F4F" d="M32.812,82.021c-0.699,0.011-1.323,0.146-1.873,0.403s-0.945,0.645-1.186,1.16v5.447h-2.303v-9.005h2.114
			v1.925c0.16-0.31,0.349-0.587,0.567-0.833c0.217-0.246,0.452-0.461,0.705-0.645c0.252-0.184,0.507-0.323,0.765-0.421
			s0.507-0.146,0.748-0.146c0.126,0,0.22,0,0.283,0s0.123,0.006,0.181,0.018V82.021z"/>
	</g>
	<g enable-background="new    ">
		<path fill="#4F4F4F" d="M38.277,89.203c-0.722,0-1.375-0.123-1.959-0.369c-0.584-0.246-1.083-0.582-1.495-1.006
			s-0.73-0.916-0.954-1.478c-0.224-0.562-0.335-1.151-0.335-1.77c0-0.642,0.109-1.246,0.327-1.813
			c0.217-0.567,0.533-1.065,0.945-1.495c0.412-0.43,0.913-0.771,1.503-1.022c0.59-0.252,1.251-0.378,1.985-0.378
			c0.733,0,1.389,0.126,1.967,0.378s1.071,0.591,1.478,1.014c0.407,0.425,0.716,0.917,0.928,1.479
			c0.211,0.562,0.318,1.146,0.318,1.753c0,0.148-0.003,0.292-0.009,0.429c-0.006,0.138-0.02,0.253-0.043,0.344h-6.959
			c0.034,0.355,0.12,0.671,0.258,0.945c0.137,0.275,0.315,0.51,0.533,0.705c0.217,0.194,0.464,0.344,0.739,0.446
			c0.275,0.104,0.561,0.155,0.859,0.155c0.458,0,0.891-0.112,1.297-0.336c0.406-0.223,0.684-0.518,0.833-0.885l1.976,0.55
			c-0.333,0.688-0.862,1.252-1.59,1.692C40.152,88.982,39.285,89.203,38.277,89.203z M40.614,83.772
			c-0.058-0.676-0.307-1.217-0.748-1.623c-0.441-0.407-0.977-0.61-1.607-0.61c-0.309,0-0.599,0.055-0.868,0.163
			c-0.269,0.109-0.507,0.261-0.713,0.455c-0.207,0.195-0.375,0.43-0.507,0.705c-0.132,0.274-0.209,0.578-0.232,0.91H40.614z"/>
	</g>
	<g enable-background="new    ">
		<path fill="#4F4F4F" d="M47.281,89.203c-0.436,0-0.842-0.071-1.22-0.215c-0.378-0.144-0.705-0.344-0.979-0.602
			s-0.49-0.559-0.645-0.902s-0.232-0.722-0.232-1.134c0-0.424,0.094-0.816,0.284-1.177c0.189-0.361,0.452-0.668,0.79-0.92
			s0.742-0.449,1.211-0.593c0.47-0.143,0.985-0.215,1.547-0.215c0.401,0,0.793,0.034,1.177,0.104
			c0.383,0.068,0.724,0.166,1.022,0.292v-0.516c0-0.596-0.169-1.054-0.507-1.375c-0.338-0.32-0.839-0.48-1.503-0.48
			c-0.481,0-0.951,0.086-1.409,0.257c-0.458,0.172-0.928,0.425-1.409,0.757l-0.705-1.461c1.157-0.768,2.406-1.151,3.747-1.151
			c1.294,0,2.299,0.318,3.016,0.954c0.716,0.636,1.074,1.555,1.074,2.758v2.801c0,0.24,0.043,0.412,0.129,0.516
			s0.226,0.16,0.421,0.172v1.959c-0.39,0.08-0.728,0.12-1.014,0.12c-0.436,0-0.771-0.098-1.005-0.292s-0.381-0.452-0.438-0.773
			l-0.052-0.498c-0.401,0.527-0.888,0.928-1.46,1.203C48.547,89.065,47.934,89.203,47.281,89.203z M47.934,87.52
			c0.389,0,0.759-0.069,1.108-0.207c0.349-0.137,0.621-0.32,0.816-0.55c0.252-0.194,0.378-0.412,0.378-0.652v-1.031
			c-0.275-0.104-0.573-0.187-0.894-0.249c-0.321-0.063-0.63-0.095-0.928-0.095c-0.596,0-1.083,0.135-1.46,0.403
			c-0.378,0.27-0.567,0.61-0.567,1.022c0,0.39,0.149,0.714,0.447,0.972S47.499,87.52,47.934,87.52z"/>
	</g>
	<g enable-background="new    ">
		<path fill="#4F4F4F" d="M60.445,88.567c-0.309,0.138-0.687,0.274-1.134,0.412s-0.917,0.206-1.409,0.206
			c-0.321,0-0.622-0.04-0.902-0.12s-0.527-0.209-0.739-0.387c-0.212-0.177-0.381-0.406-0.507-0.688
			c-0.126-0.28-0.189-0.621-0.189-1.022v-5.172h-1.186v-1.771h1.186v-2.921h2.302v2.921h1.891v1.771h-1.891v4.399
			c0,0.32,0.083,0.547,0.25,0.679c0.166,0.132,0.369,0.197,0.61,0.197s0.475-0.04,0.705-0.12c0.229-0.08,0.413-0.148,0.55-0.206
			L60.445,88.567z"/>
		<path fill="#4F4F4F" d="M61.648,78.772v-2.285h2.303v2.285H61.648z M61.648,89.031v-9.005h2.303v9.005H61.648z"/>
	</g>
	<g enable-background="new    ">
		<path fill="#4F4F4F" d="M69.311,89.031l-3.316-9.005h2.371l2.286,7.132l2.303-7.132h2.165l-3.316,9.005H69.311z"/>
	</g>
	<g enable-background="new    ">
		<path fill="#4F4F4F" d="M80.619,89.203c-0.723,0-1.375-0.123-1.959-0.369c-0.585-0.246-1.083-0.582-1.496-1.006
			c-0.412-0.424-0.73-0.916-0.953-1.478c-0.224-0.562-0.336-1.151-0.336-1.77c0-0.642,0.109-1.246,0.327-1.813
			s0.532-1.065,0.945-1.495c0.412-0.43,0.913-0.771,1.503-1.022s1.252-0.378,1.985-0.378s1.389,0.126,1.968,0.378
			c0.578,0.252,1.07,0.591,1.478,1.014c0.407,0.425,0.716,0.917,0.929,1.479c0.211,0.562,0.317,1.146,0.317,1.753
			c0,0.148-0.003,0.292-0.009,0.429c-0.006,0.138-0.02,0.253-0.043,0.344h-6.959c0.033,0.355,0.119,0.671,0.258,0.945
			c0.137,0.275,0.314,0.51,0.532,0.705c0.218,0.194,0.464,0.344,0.739,0.446c0.274,0.104,0.561,0.155,0.859,0.155
			c0.457,0,0.891-0.112,1.297-0.336c0.406-0.223,0.684-0.518,0.834-0.885l1.976,0.55c-0.333,0.688-0.862,1.252-1.59,1.692
			C82.494,88.982,81.627,89.203,80.619,89.203z M82.955,83.772c-0.057-0.676-0.307-1.217-0.747-1.623
			c-0.44-0.407-0.977-0.61-1.606-0.61c-0.31,0-0.6,0.055-0.868,0.163c-0.269,0.109-0.507,0.261-0.713,0.455
			c-0.206,0.195-0.376,0.43-0.507,0.705c-0.132,0.274-0.209,0.578-0.232,0.91H82.955z"/>
	</g>
	<g enable-background="new    ">
		<path fill="#4F4F4F" d="M90.877,89.203c-0.619,0-1.191-0.12-1.719-0.361c-0.527-0.24-0.979-0.572-1.357-0.996
			s-0.673-0.92-0.885-1.486c-0.213-0.567-0.318-1.178-0.318-1.83c0-0.653,0.101-1.261,0.301-1.822
			c0.201-0.561,0.479-1.054,0.834-1.478c0.354-0.424,0.779-0.756,1.271-0.996c0.492-0.241,1.031-0.361,1.615-0.361
			c0.664,0,1.263,0.16,1.795,0.481c0.533,0.32,0.949,0.738,1.246,1.254v-5.12h2.303v9.897c0,0.24,0.041,0.412,0.121,0.516
			s0.217,0.16,0.412,0.172v1.959c-0.401,0.08-0.728,0.12-0.979,0.12c-0.413,0-0.751-0.103-1.015-0.31
			c-0.264-0.206-0.412-0.475-0.446-0.808l-0.052-0.566c-0.332,0.572-0.781,1.005-1.349,1.297S91.496,89.203,90.877,89.203z
			 M91.479,87.244c0.217,0,0.44-0.037,0.67-0.111c0.229-0.075,0.441-0.181,0.636-0.318s0.37-0.298,0.524-0.481
			c0.154-0.183,0.271-0.384,0.352-0.602v-2.147c-0.092-0.252-0.221-0.484-0.387-0.696s-0.354-0.395-0.566-0.55
			c-0.213-0.154-0.436-0.277-0.67-0.369c-0.235-0.092-0.467-0.138-0.696-0.138c-0.344,0-0.661,0.074-0.954,0.224
			c-0.292,0.148-0.541,0.353-0.747,0.609c-0.206,0.258-0.366,0.554-0.481,0.886c-0.114,0.332-0.172,0.676-0.172,1.031
			c0,0.378,0.062,0.728,0.189,1.048c0.125,0.32,0.297,0.602,0.516,0.842c0.217,0.24,0.479,0.43,0.781,0.567
			C90.776,87.176,91.111,87.244,91.479,87.244z"/>
	</g>
	<g enable-background="new    ">
		<path fill="#4F4F4F" d="M101.411,89.203c-0.929,0-1.633-0.298-2.114-0.894c-0.48-0.596-0.721-1.478-0.721-2.646v-5.637h2.303
			v5.139c0,1.386,0.498,2.079,1.494,2.079c0.447,0,0.879-0.135,1.298-0.404c0.418-0.269,0.759-0.679,1.022-1.229v-5.585h2.303v6.358
			c0,0.24,0.043,0.412,0.129,0.516s0.226,0.16,0.421,0.172v1.959c-0.229,0.046-0.421,0.074-0.575,0.086
			c-0.155,0.012-0.296,0.018-0.422,0.018c-0.412,0-0.748-0.095-1.005-0.284c-0.258-0.188-0.41-0.449-0.456-0.781l-0.051-0.722
			c-0.401,0.618-0.917,1.082-1.547,1.392C102.859,89.049,102.167,89.203,101.411,89.203z"/>
	</g>
</g>
</svg>
