<?xml version="1.0" encoding="utf-8"?>
<!-- Generator: Adobe Illustrator 16.0.0, SVG Export Plug-In . SVG Version: 6.00 Build 0)  -->
<!DOCTYPE svg PUBLIC "-//W3C//DTD SVG 1.1//EN" "http://www.w3.org/Graphics/SVG/1.1/DTD/svg11.dtd">
<svg version="1.1" id="Layer_1" xmlns="http://www.w3.org/2000/svg" xmlns:xlink="http://www.w3.org/1999/xlink" x="0px" y="0px"
	 width="120px" height="120px" viewBox="0 0 120 120" enable-background="new 0 0 120 120" xml:space="preserve">
<g>
	<g enable-background="new    ">
		<path fill="#4F4F4F" d="M36.394,77.625v-1.643h1.654v1.643H36.394z M36.394,84.996v-6.47h1.654v6.47H36.394z"/>
		<path fill="#4F4F4F" d="M45.852,85.052h-1.655v-3.63c0-0.519-0.09-0.897-0.271-1.137c-0.181-0.238-0.432-0.357-0.753-0.357
			c-0.165,0-0.333,0.033-0.506,0.099s-0.336,0.158-0.488,0.277c-0.152,0.12-0.291,0.262-0.414,0.427
			c-0.124,0.164-0.214,0.346-0.272,0.543v3.778h-1.654v-6.47h1.494v1.197c0.239-0.411,0.584-0.732,1.038-0.963
			c0.453-0.23,0.963-0.346,1.531-0.346c0.403,0,0.733,0.074,0.988,0.222c0.255,0.148,0.453,0.342,0.593,0.581
			c0.14,0.238,0.237,0.51,0.291,0.814c0.053,0.305,0.08,0.613,0.08,0.926V85.052z"/>
	</g>
	<g enable-background="new    ">
		<path fill="#4F4F4F" d="M50.438,85.125c-0.543,0-1.074-0.086-1.593-0.259c-0.519-0.173-0.963-0.42-1.333-0.741l0.618-1.037
			c0.395,0.28,0.78,0.492,1.154,0.636c0.375,0.145,0.747,0.217,1.118,0.217c0.329,0,0.588-0.062,0.778-0.186
			s0.284-0.301,0.284-0.531s-0.111-0.399-0.333-0.506c-0.222-0.107-0.584-0.23-1.087-0.37c-0.419-0.115-0.778-0.227-1.074-0.334
			c-0.296-0.106-0.535-0.229-0.716-0.364c-0.181-0.136-0.313-0.292-0.396-0.469c-0.082-0.177-0.123-0.39-0.123-0.636
			c0-0.33,0.063-0.626,0.191-0.89c0.128-0.264,0.307-0.487,0.538-0.673c0.23-0.186,0.5-0.327,0.809-0.426s0.644-0.148,1.006-0.148
			c0.485,0,0.94,0.07,1.364,0.21s0.813,0.366,1.167,0.679l-0.667,1.001c-0.329-0.247-0.648-0.429-0.957-0.544
			c-0.309-0.115-0.616-0.173-0.92-0.173c-0.28,0-0.515,0.058-0.704,0.173s-0.284,0.301-0.284,0.556c0,0.115,0.022,0.21,0.068,0.284
			c0.045,0.074,0.117,0.141,0.216,0.197c0.099,0.058,0.229,0.113,0.389,0.167c0.16,0.054,0.36,0.109,0.599,0.167
			c0.445,0.115,0.825,0.23,1.142,0.346s0.576,0.247,0.778,0.395c0.201,0.148,0.35,0.319,0.444,0.513
			c0.094,0.193,0.142,0.426,0.142,0.698c0,0.634-0.235,1.134-0.704,1.5S51.245,85.125,50.438,85.125z"/>
	</g>
	<g enable-background="new    ">
		<path fill="#4F4F4F" d="M58.619,84.602c-0.222,0.099-0.494,0.197-0.815,0.296c-0.321,0.099-0.659,0.148-1.013,0.148
			c-0.23,0-0.446-0.029-0.648-0.087c-0.202-0.058-0.379-0.149-0.531-0.277s-0.273-0.292-0.364-0.494
			c-0.09-0.201-0.136-0.446-0.136-0.734v-3.717H54.26v-1.271h0.852v-2.1h1.655v2.1h1.358v1.271h-1.358v3.161
			c0,0.23,0.06,0.393,0.179,0.487c0.12,0.095,0.266,0.143,0.438,0.143s0.342-0.029,0.506-0.087s0.296-0.106,0.395-0.148
			L58.619,84.602z"/>
		<path fill="#4F4F4F" d="M59.704,77.625v-1.643h1.655v1.643H59.704z M59.704,84.996v-6.47h1.655v6.47H59.704z"/>
		<path fill="#4F4F4F" d="M67.053,84.602c-0.223,0.099-0.494,0.197-0.815,0.296s-0.659,0.148-1.013,0.148
			c-0.23,0-0.446-0.029-0.648-0.087c-0.201-0.058-0.379-0.149-0.531-0.277s-0.273-0.292-0.363-0.494
			c-0.091-0.201-0.137-0.446-0.137-0.734v-3.717h-0.852v-1.271h0.852v-2.1H65.2v2.1h1.358v1.271H65.2v3.161
			c0,0.23,0.06,0.393,0.179,0.487s0.266,0.143,0.438,0.143s0.342-0.029,0.507-0.087c0.164-0.058,0.296-0.106,0.395-0.148
			L67.053,84.602z"/>
		<path fill="#4F4F4F" d="M69.917,85.058c-0.667,0-1.174-0.214-1.52-0.642s-0.518-1.062-0.518-1.901v-4.05h1.654v3.691
			c0,0.996,0.357,1.494,1.074,1.494c0.32,0,0.631-0.097,0.932-0.29s0.546-0.488,0.735-0.883v-4.013h1.654v4.568
			c0,0.173,0.031,0.296,0.093,0.37s0.162,0.115,0.303,0.124v1.407c-0.165,0.033-0.303,0.054-0.414,0.062
			c-0.111,0.009-0.212,0.013-0.303,0.013c-0.296,0-0.537-0.068-0.723-0.204c-0.185-0.136-0.294-0.322-0.326-0.562l-0.037-0.519
			c-0.289,0.444-0.659,0.777-1.111,1C70.958,84.947,70.46,85.058,69.917,85.058z"/>
	</g>
	<g enable-background="new    ">
		<path fill="#4F4F4F" d="M79.424,84.663c-0.222,0.099-0.493,0.197-0.814,0.296c-0.32,0.099-0.658,0.148-1.013,0.148
			c-0.23,0-0.446-0.029-0.647-0.087c-0.203-0.058-0.379-0.149-0.531-0.277s-0.273-0.292-0.365-0.494
			c-0.09-0.201-0.135-0.446-0.135-0.734v-3.717h-0.853v-1.271h0.853v-2.1h1.654v2.1h1.358v1.271h-1.358v3.161
			c0,0.23,0.06,0.393,0.179,0.487c0.12,0.095,0.266,0.143,0.438,0.143s0.342-0.029,0.506-0.087c0.165-0.058,0.297-0.106,0.396-0.148
			L79.424,84.663z"/>
	</g>
	<g enable-background="new    ">
		<path fill="#4F4F4F" d="M83.425,85.119c-0.526,0-1-0.09-1.42-0.271c-0.42-0.181-0.776-0.426-1.067-0.734
			c-0.293-0.309-0.518-0.665-0.674-1.068s-0.234-0.827-0.234-1.271c0-0.453,0.078-0.881,0.234-1.284s0.381-0.76,0.674-1.068
			c0.291-0.309,0.647-0.554,1.067-0.734s0.894-0.271,1.42-0.271s0.998,0.091,1.414,0.271c0.415,0.181,0.77,0.426,1.062,0.734
			c0.293,0.309,0.517,0.665,0.674,1.068c0.156,0.403,0.234,0.831,0.234,1.284c0,0.444-0.078,0.868-0.234,1.271
			c-0.157,0.403-0.379,0.76-0.668,1.068c-0.287,0.309-0.642,0.554-1.062,0.734C84.426,85.029,83.951,85.119,83.425,85.119z
			 M81.733,81.773c0,0.288,0.043,0.55,0.13,0.784c0.086,0.234,0.205,0.438,0.357,0.611s0.332,0.307,0.537,0.401
			c0.206,0.095,0.428,0.142,0.667,0.142s0.461-0.047,0.667-0.142c0.205-0.095,0.385-0.229,0.537-0.401s0.271-0.379,0.357-0.618
			c0.087-0.238,0.131-0.502,0.131-0.79c0-0.279-0.044-0.539-0.131-0.777c-0.086-0.239-0.205-0.444-0.357-0.618
			c-0.152-0.173-0.332-0.306-0.537-0.4c-0.206-0.095-0.428-0.143-0.667-0.143s-0.461,0.05-0.667,0.148
			c-0.205,0.099-0.385,0.234-0.537,0.407s-0.271,0.379-0.357,0.617C81.776,81.234,81.733,81.493,81.733,81.773z"/>
	</g>
	<g enable-background="new    ">
		<path fill="#4F4F4F" d="M38.752,92.985c0-0.452,0.078-0.881,0.235-1.284c0.156-0.403,0.382-0.757,0.679-1.062
			s0.655-0.548,1.074-0.729c0.42-0.181,0.893-0.271,1.42-0.271c0.708,0,1.311,0.152,1.809,0.457s0.871,0.703,1.118,1.197
			l-1.618,0.494c-0.14-0.239-0.325-0.422-0.556-0.55c-0.23-0.127-0.486-0.191-0.766-0.191c-0.239,0-0.461,0.048-0.667,0.143
			c-0.206,0.095-0.385,0.226-0.537,0.395c-0.152,0.169-0.272,0.373-0.358,0.611c-0.086,0.239-0.129,0.502-0.129,0.79
			s0.045,0.552,0.136,0.79c0.09,0.239,0.212,0.445,0.364,0.618s0.331,0.307,0.537,0.401c0.206,0.095,0.424,0.142,0.654,0.142
			c0.296,0,0.57-0.074,0.821-0.223c0.251-0.147,0.426-0.329,0.525-0.543l1.617,0.494c-0.222,0.494-0.588,0.897-1.099,1.21
			c-0.511,0.312-1.124,0.469-1.84,0.469c-0.527,0-1-0.09-1.42-0.271c-0.42-0.181-0.778-0.426-1.074-0.734s-0.525-0.667-0.686-1.074
			S38.752,93.43,38.752,92.985z"/>
	</g>
	<g enable-background="new    ">
		<path fill="#4F4F4F" d="M50.283,91.183c-0.502,0.009-0.951,0.105-1.346,0.29c-0.395,0.186-0.679,0.464-0.852,0.834v3.914h-1.654
			v-6.47h1.519v1.383c0.115-0.223,0.251-0.422,0.408-0.6c0.156-0.177,0.325-0.331,0.506-0.463c0.181-0.131,0.364-0.232,0.55-0.303
			c0.185-0.069,0.364-0.104,0.537-0.104c0.09,0,0.158,0,0.204,0c0.045,0,0.088,0.004,0.129,0.013V91.183z"/>
	</g>
	<g enable-background="new    ">
		<path fill="#4F4F4F" d="M51.507,88.85v-1.643h1.654v1.643H51.507z M51.507,96.221v-6.47h1.654v6.47H51.507z"/>
	</g>
	<g enable-background="new    ">
		<path fill="#4F4F4F" d="M56.73,96.344c-0.313,0-0.605-0.051-0.877-0.154c-0.271-0.103-0.506-0.246-0.704-0.432
			s-0.352-0.401-0.463-0.648c-0.111-0.247-0.167-0.519-0.167-0.814c0-0.305,0.068-0.587,0.204-0.847
			c0.136-0.259,0.325-0.479,0.568-0.66c0.243-0.181,0.533-0.323,0.871-0.426c0.337-0.104,0.708-0.154,1.111-0.154
			c0.288,0,0.57,0.024,0.846,0.074c0.275,0.049,0.521,0.119,0.734,0.209v-0.37c0-0.428-0.122-0.757-0.364-0.987
			s-0.603-0.346-1.08-0.346c-0.346,0-0.684,0.062-1.013,0.185c-0.329,0.124-0.667,0.305-1.013,0.544l-0.506-1.05
			c0.831-0.552,1.729-0.827,2.691-0.827c0.93,0,1.653,0.229,2.167,0.685c0.515,0.457,0.771,1.118,0.771,1.982v2.013
			c0,0.173,0.031,0.296,0.094,0.37c0.061,0.074,0.162,0.115,0.302,0.124v1.407c-0.28,0.058-0.523,0.087-0.729,0.087
			c-0.313,0-0.554-0.07-0.722-0.21c-0.169-0.141-0.274-0.325-0.315-0.556l-0.037-0.358c-0.288,0.379-0.638,0.667-1.049,0.864
			C57.639,96.245,57.199,96.344,56.73,96.344z M57.199,95.134c0.28,0,0.545-0.049,0.796-0.147c0.251-0.1,0.446-0.23,0.586-0.396
			c0.181-0.14,0.271-0.296,0.271-0.469v-0.741c-0.197-0.074-0.412-0.134-0.642-0.179c-0.23-0.046-0.453-0.068-0.667-0.068
			c-0.428,0-0.778,0.097-1.05,0.29c-0.271,0.193-0.407,0.438-0.407,0.734c0,0.28,0.107,0.513,0.321,0.698
			C56.623,95.041,56.886,95.134,57.199,95.134z"/>
	</g>
	<g enable-background="new    ">
		<path fill="#4F4F4F" d="M66.188,95.888c-0.222,0.099-0.493,0.197-0.814,0.296c-0.32,0.099-0.658,0.148-1.013,0.148
			c-0.23,0-0.446-0.029-0.647-0.087c-0.203-0.058-0.379-0.149-0.531-0.277s-0.273-0.292-0.365-0.494
			c-0.09-0.201-0.135-0.446-0.135-0.734v-3.717h-0.853v-1.271h0.853v-2.1h1.654v2.1h1.358v1.271h-1.358v3.161
			c0,0.23,0.06,0.393,0.179,0.487c0.12,0.095,0.266,0.143,0.438,0.143s0.342-0.029,0.506-0.087c0.165-0.058,0.297-0.106,0.396-0.148
			L66.188,95.888z"/>
		<path fill="#4F4F4F" d="M67.053,88.85v-1.643h1.654v1.643H67.053z M67.053,96.221v-6.47h1.654v6.47H67.053z"/>
	</g>
	<g enable-background="new    ">
		<path fill="#4F4F4F" d="M72.56,96.221l-2.383-6.47h1.704l1.643,5.124l1.654-5.124h1.556l-2.384,6.47H72.56z"/>
	</g>
	<g enable-background="new    ">
		<path fill="#4F4F4F" d="M80.659,96.344c-0.526,0-1-0.09-1.42-0.271c-0.42-0.181-0.776-0.426-1.067-0.734
			c-0.293-0.309-0.518-0.665-0.674-1.068s-0.234-0.827-0.234-1.271c0-0.453,0.078-0.881,0.234-1.284s0.381-0.76,0.674-1.068
			c0.291-0.309,0.647-0.554,1.067-0.734s0.894-0.271,1.42-0.271s0.998,0.091,1.414,0.271c0.415,0.181,0.77,0.426,1.062,0.734
			c0.293,0.309,0.517,0.665,0.674,1.068c0.156,0.403,0.234,0.831,0.234,1.284c0,0.444-0.078,0.868-0.234,1.271
			c-0.157,0.403-0.379,0.76-0.668,1.068c-0.287,0.309-0.642,0.554-1.062,0.734C81.66,96.254,81.186,96.344,80.659,96.344z
			 M78.968,92.998c0,0.288,0.043,0.55,0.13,0.784c0.086,0.234,0.205,0.438,0.357,0.611s0.332,0.307,0.537,0.401
			c0.206,0.095,0.428,0.142,0.667,0.142s0.461-0.047,0.667-0.142c0.205-0.095,0.385-0.229,0.537-0.401s0.271-0.379,0.357-0.618
			c0.087-0.238,0.131-0.502,0.131-0.79c0-0.279-0.044-0.539-0.131-0.777c-0.086-0.239-0.205-0.444-0.357-0.618
			c-0.152-0.173-0.332-0.306-0.537-0.4c-0.206-0.095-0.428-0.143-0.667-0.143s-0.461,0.05-0.667,0.148
			c-0.205,0.099-0.385,0.234-0.537,0.407s-0.271,0.379-0.357,0.617C79.011,92.459,78.968,92.718,78.968,92.998z"/>
	</g>
	<g>
		<path fill="#FFE802" d="M57.562,27.947c-0.887,0.63-1.726,1.323-2.511,2.072l-0.03,0.028c-0.46,0.44-0.901,0.899-1.323,1.377
			l-0.085,0.098c-0.237,0.272-0.469,0.551-0.693,0.835l-0.129,0.161c-0.359,0.463-0.701,0.941-1.024,1.433
			c-0.067,0.101-0.133,0.204-0.198,0.307c-0.133,0.209-0.263,0.419-0.389,0.634c-0.079,0.135-0.159,0.271-0.235,0.407
			c-0.074,0.132-0.148,0.265-0.22,0.398c-0.118,0.221-0.234,0.443-0.345,0.669c-0.057,0.114-0.111,0.231-0.166,0.347
			c-0.083,0.178-0.165,0.355-0.244,0.535c-0.045,0.104-0.092,0.205-0.135,0.309c-0.108,0.255-0.209,0.514-0.308,0.772
			c-0.039,0.104-0.078,0.207-0.115,0.312c-0.098,0.271-0.192,0.544-0.28,0.819l-0.067,0.225c-0.076,0.247-0.148,0.495-0.214,0.745
			l-0.062,0.228c-0.076,0.297-0.146,0.596-0.209,0.897l-0.05,0.239c-0.062,0.312-0.121,0.627-0.17,0.944l-0.015,0.103
			c-0.046,0.304-0.085,0.609-0.118,0.917l-0.021,0.193c-0.033,0.324-0.058,0.649-0.076,0.978l-0.01,0.203
			c-0.016,0.341-0.025,0.684-0.025,1.028c0,0.344,0.01,0.687,0.025,1.027l0.01,0.203c0.019,0.327,0.043,0.653,0.076,0.978
			l0.021,0.193c0.033,0.308,0.072,0.613,0.118,0.917l0.015,0.103c0.049,0.317,0.107,0.632,0.17,0.944l0.05,0.239
			c0.063,0.302,0.133,0.601,0.209,0.897l0.062,0.228c0.065,0.25,0.138,0.498,0.214,0.744l0.067,0.226
			c0.088,0.275,0.183,0.549,0.28,0.819c0.037,0.104,0.076,0.208,0.115,0.312c0.099,0.26,0.199,0.518,0.308,0.772
			c0.043,0.104,0.09,0.205,0.135,0.309c0.079,0.18,0.161,0.357,0.244,0.535c0.055,0.116,0.109,0.232,0.166,0.348
			c0.11,0.225,0.227,0.447,0.345,0.668c0.071,0.134,0.146,0.267,0.22,0.398c0.076,0.137,0.156,0.272,0.235,0.406
			c0.126,0.215,0.256,0.426,0.389,0.635c0.065,0.103,0.131,0.205,0.198,0.308c0.323,0.49,0.665,0.969,1.024,1.432l0.129,0.161
			c0.225,0.284,0.456,0.562,0.693,0.835l0.085,0.098c0.422,0.478,0.863,0.937,1.323,1.377l0.03,0.029
			c0.785,0.748,1.624,1.441,2.511,2.072l0,0V27.947z"/>
		<path fill="#ED314E" d="M71.697,23.78c-4.202,0-8.143,1.165-11.517,3.185v0.982v36.426v0.982c3.375,2.02,7.314,3.184,11.517,3.184
			h12.721V23.78H71.697z"/>
		<path fill="#62C7CE" d="M45.85,46.16c0-8.546,4.395-16.085,11.05-20.503c-0.734-1.127-2.001-1.877-3.438-1.877H42.727
			c-2.255,0-4.1,1.845-4.1,4.099v36.562c0,2.254,1.845,4.099,4.1,4.099h10.735c1.437,0,2.703-0.75,3.438-1.877
			C50.244,62.244,45.85,54.705,45.85,46.16"/>
	</g>
</g>
</svg>
