<?xml version="1.0" encoding="UTF-8" standalone="no"?>
<!-- Generator: Adobe Illustrator 15.1.0, SVG Export Plug-In  -->

<svg
   xmlns:dc="http://purl.org/dc/elements/1.1/"
   xmlns:cc="http://creativecommons.org/ns#"
   xmlns:rdf="http://www.w3.org/1999/02/22-rdf-syntax-ns#"
   xmlns:svg="http://www.w3.org/2000/svg"
   xmlns="http://www.w3.org/2000/svg"
   xmlns:sodipodi="http://sodipodi.sourceforge.net/DTD/sodipodi-0.dtd"
   xmlns:inkscape="http://www.inkscape.org/namespaces/inkscape"
   version="1.1"
   x="0px"
   y="0px"
   width="120"
   height="120"
   viewBox="0 0 120 120"
   overflow="visible"
   enable-background="new 0 0 250 36"
   xml:space="preserve"
   id="svg38"
   sodipodi:docname="LC.svg"
   style="overflow:visible"
   inkscape:version="0.92.3 (2405546, 2018-03-11)"><metadata
   id="metadata42"><rdf:RDF><cc:Work
       rdf:about=""><dc:format>image/svg+xml</dc:format><dc:type
         rdf:resource="http://purl.org/dc/dcmitype/StillImage" /><dc:title></dc:title></cc:Work></rdf:RDF></metadata><sodipodi:namedview
   pagecolor="#ffffff"
   bordercolor="#666666"
   borderopacity="1"
   objecttolerance="10"
   gridtolerance="10"
   guidetolerance="10"
   inkscape:pageopacity="0"
   inkscape:pageshadow="2"
   inkscape:window-width="1920"
   inkscape:window-height="1027"
   id="namedview40"
   showgrid="false"
   inkscape:zoom="2.847969"
   inkscape:cx="63.242675"
   inkscape:cy="129.32921"
   inkscape:window-x="-8"
   inkscape:window-y="-8"
   inkscape:window-maximized="1"
   inkscape:current-layer="svg38" />
<defs
   id="defs2">
</defs>
















<g
   id="g853"
   transform="matrix(0.4,0,0,0.4,10,10)"><circle
     r="125"
     cy="125"
     cx="125"
     id="path849"
     style="opacity:1;fill:#06a2af;fill-opacity:1;stroke:none;stroke-width:18.94327354;stroke-linecap:round;stroke-linejoin:round;stroke-miterlimit:4;stroke-dasharray:none;stroke-dashoffset:0;stroke-opacity:1" /><g
     transform="matrix(1.5642704,0,0,1.5642704,-85.444642,-107.69961)"
     id="g891"><g
       id="g861"
       transform="translate(74.172141,-101.54839)"
       style="fill:#ffffff;fill-opacity:1"><path
         style="fill:#ffffff;fill-opacity:1"
         inkscape:connector-curvature="0"
         id="path4"
         d="m 35.28,227.95 c -1.34,-0.57 -2.87,0.09 -3.42,1.47 l -4.37,10.851 -4.41,-10.851 c -0.55,-1.38 -2.07,-2.04 -3.41,-1.47 -1.34,0.56 -1.98,2.13 -1.43,3.51 l 6.8,17.09 c 0.39,0.971 1.25,1.58 2.2,1.66 l 0.07,0.01 h 0.16 0.17 l 0.07,-0.01 c 0.94,-0.08 1.81,-0.689 2.19,-1.66 l 6.81,-17.09 c 0.54,-1.38 -0.1,-2.95 -1.43,-3.51 z" /><path
         style="fill:#ffffff;fill-opacity:1"
         inkscape:connector-curvature="0"
         id="path6"
         d="m 16.18,247.529 c 0,1.491 -1.17,2.69 -2.62,2.69 -1.44,0 -2.62,-1.199 -2.62,-2.69 V 230.44 c 0,-1.49 1.18,-2.7 2.62,-2.7 1.45,0 2.62,1.21 2.62,2.7 z" /><path
         style="fill:#ffffff;fill-opacity:1"
         inkscape:connector-curvature="0"
         id="path8"
         d="m 16.2,222.49 c 0,1.5 -1.18,2.72 -2.64,2.72 -1.46,0 -2.65,-1.22 -2.65,-2.72 0,-1.51 1.19,-2.73 2.65,-2.73 1.46,0 2.64,1.22 2.64,2.73 z" /><path
         style="fill:#ffffff;fill-opacity:1"
         inkscape:connector-curvature="0"
         id="path10"
         d="m 96.44,247.529 c 0,1.491 -1.17,2.69 -2.62,2.69 -1.44,0 -2.61,-1.199 -2.61,-2.69 V 230.44 c 0,-1.49 1.17,-2.7 2.61,-2.7 1.45,0 2.62,1.21 2.62,2.7 z" /><path
         style="fill:#ffffff;fill-opacity:1"
         inkscape:connector-curvature="0"
         id="path12"
         d="m 96.46,222.49 c 0,1.5 -1.18,2.72 -2.64,2.72 -1.46,0 -2.65,-1.22 -2.65,-2.72 0,-1.51 1.19,-2.73 2.65,-2.73 1.46,0 2.64,1.22 2.64,2.73 z" /><path
         style="fill:#ffffff;fill-opacity:1"
         inkscape:connector-curvature="0"
         id="path14"
         d="m 48.76,227.74 h -2.39 c -4.72,0 -8.56,3.95 -8.56,8.81 v 10.99 c 0,1.48 1.17,2.68 2.61,2.68 1.44,0 2.61,-1.199 2.61,-2.68 l -0.01,-10.99 c 0,-1.9 1.5,-3.45 3.35,-3.45 h 2.39 c 1.44,0 2.6,-1.2 2.6,-2.68 0,-1.48 -1.16,-2.68 -2.6,-2.68 z" /><path
         style="fill:#ffffff;fill-opacity:1"
         inkscape:connector-curvature="0"
         id="path16"
         d="M 86.69,227.74 H 84.3 c -4.72,0 -8.56,3.95 -8.56,8.81 l 0.01,10.99 c 0,1.48 1.16,2.68 2.6,2.68 1.44,0 2.61,-1.199 2.61,-2.68 v -10.99 c 0,-1.9 1.5,-3.45 3.34,-3.45 h 2.39 c 1.44,0 2.61,-1.2 2.61,-2.68 0,-1.48 -1.17,-2.68 -2.61,-2.68 z" /><path
         style="fill:#ffffff;fill-opacity:1"
         inkscape:connector-curvature="0"
         id="path18"
         d="m 50.95,238.979 c 0,6.2 4.9,11.251 10.93,11.251 1.42,0 2.57,-1.181 2.57,-2.641 0,-1.46 -1.15,-2.65 -2.57,-2.65 -3.2,0 -5.8,-2.669 -5.8,-5.96 0,-3.289 2.6,-5.959 5.8,-5.959 3.19,0 5.79,2.67 5.79,5.959 v 8.601 c 0,1.46 1.15,2.64 2.57,2.64 1.41,0 2.56,-1.18 2.56,-2.64 v -8.601 c 0,-6.2 -4.9,-11.24 -10.92,-11.24 -6.03,0.001 -10.93,5.04 -10.93,11.24 z" /><path
         style="fill:#ffffff;fill-opacity:1"
         inkscape:connector-curvature="0"
         id="path20"
         d="M 5.05,216.6 C 5.05,215.17 3.92,214 2.53,214 1.13,214 0,215.17 0,216.6 v 26.799 c 0,3.621 2.87,6.581 6.39,6.581 1.4,0 2.53,-1.17 2.53,-2.601 0,-1.44 -1.13,-2.609 -2.53,-2.609 -0.74,0 -1.34,-0.61 -1.34,-1.371 V 216.6 Z" /><path
         style="fill:#ffffff;fill-opacity:1"
         inkscape:connector-curvature="0"
         id="path22"
         d="m 98.87,238.979 c 0,6.2 4.9,11.251 10.92,11.251 1.42,0 2.57,-1.181 2.57,-2.641 0,-1.46 -1.15,-2.65 -2.57,-2.65 -3.19,0 -5.79,-2.669 -5.79,-5.96 0,-3.289 2.6,-5.959 5.79,-5.959 3.2,0 5.79,2.67 5.79,5.959 v 8.601 c 0,1.46 1.15,2.64 2.57,2.64 1.42,0 2.57,-1.18 2.57,-2.64 v -8.601 c 0,-6.2 -4.9,-11.24 -10.93,-11.24 -6.02,0.001 -10.92,5.04 -10.92,11.24 z" /></g><g
       id="g870"
       transform="translate(-55.122859,-60)"
       style="fill:#ffffff;fill-opacity:1"><path
         style="fill:#ffffff;fill-opacity:1"
         inkscape:connector-curvature="0"
         id="path24"
         d="m 225.939,227.68 h -2.39 c -4.72,0 -8.56,3.96 -8.56,8.82 v 10.99 c 0,1.479 1.17,2.68 2.609,2.68 1.44,0 2.61,-1.2 2.61,-2.68 L 220.2,236.5 c 0,-1.9 1.5,-3.45 3.35,-3.45 h 2.39 c 1.44,0 2.601,-1.2 2.601,-2.68 -0.001,-1.49 -1.161,-2.69 -2.602,-2.69 z" /><path
         style="fill:#ffffff;fill-opacity:1"
         inkscape:connector-curvature="0"
         id="path26"
         d="m 140.23,227.69 c -6.021,0 -10.92,5.04 -10.92,11.24 0,6.2 4.899,11.24 10.92,11.24 h 5.159 c 1.421,0 2.57,-1.18 2.57,-2.641 0,-1.46 -1.149,-2.639 -2.57,-2.639 h -5.159 c -3.19,0 -5.791,-2.671 -5.791,-5.961 0,-3.28 2.601,-5.96 5.791,-5.96 h 5.18 c 1.42,0 2.56,-1.18 2.56,-2.64 0,-1.46 -1.14,-2.64 -2.56,-2.64 h -5.18 z" /><path
         style="fill:#ffffff;fill-opacity:1"
         inkscape:connector-curvature="0"
         id="path28"
         d="m 193.2,230.33 v 9.87 c 0,5.5 4.34,9.97 9.68,9.97 5.34,0 9.681,-4.47 9.681,-9.97 v -9.86 c 0,-1.46 -1.15,-2.65 -2.57,-2.65 -1.421,0 -2.57,1.19 -2.57,2.65 v 9.86 c 0,2.579 -2.04,4.68 -4.54,4.68 -2.5,0 -4.54,-2.101 -4.54,-4.68 v -9.87 c 0,-1.47 -1.15,-2.65 -2.57,-2.65 -1.42,0 -2.571,1.18 -2.571,2.65 z" /><path
         style="fill:#ffffff;fill-opacity:1"
         inkscape:connector-curvature="0"
         id="path30"
         d="m 150.17,230.33 v 9.87 c 0,5.5 4.34,9.97 9.68,9.97 5.34,0 9.681,-4.47 9.681,-9.97 v -9.87 c 0,-1.46 -1.15,-2.65 -2.57,-2.65 -1.42,0 -2.57,1.19 -2.57,2.65 v 9.87 c 0,2.579 -2.04,4.68 -4.54,4.68 -2.5,0 -4.539,-2.101 -4.539,-4.68 v -9.87 c 0,-1.46 -1.15,-2.65 -2.57,-2.65 -1.423,0 -2.572,1.19 -2.572,2.65 z" /><path
         style="fill:#ffffff;fill-opacity:1"
         inkscape:connector-curvature="0"
         id="path32"
         d="m 177.17,216.79 c 0,-1.44 -1.14,-2.6 -2.53,-2.6 -1.399,0 -2.529,1.16 -2.529,2.6 v 26.8 c 0,3.63 2.87,6.58 6.39,6.58 1.4,0 2.53,-1.17 2.53,-2.601 0,-1.439 -1.13,-2.6 -2.53,-2.6 -0.73,0 -1.33,-0.619 -1.33,-1.38 V 216.79 Z" /><path
         style="fill:#ffffff;fill-opacity:1"
         inkscape:connector-curvature="0"
         id="path34"
         d="m 189.89,227.68 c 1.45,0 2.62,-1.2 2.62,-2.69 0,-1.49 -1.17,-2.7 -2.62,-2.7 h -2.76 v -5.5 c 0,-1.44 -1.13,-2.6 -2.53,-2.6 -1.39,0 -2.52,1.16 -2.52,2.6 v 26.8 c 0,3.63 2.859,6.58 6.39,6.58 1.4,0 2.53,-1.17 2.53,-2.601 0,-1.439 -1.13,-2.6 -2.53,-2.6 -0.739,0 -1.34,-0.619 -1.34,-1.38 V 227.68 Z" /><path
         style="fill:#ffffff;fill-opacity:1"
         inkscape:connector-curvature="0"
         id="path36"
         d="m 228.149,238.93 c 0,6.2 4.9,11.251 10.931,11.251 1.41,0 2.56,-1.19 2.56,-2.651 0,-1.46 -1.149,-2.639 -2.56,-2.639 -3.2,0 -5.79,-2.671 -5.79,-5.961 0,-3.289 2.59,-5.96 5.79,-5.96 3.189,0 5.79,2.671 5.79,5.96 v 8.591 c 0,1.46 1.149,2.649 2.561,2.649 1.419,0 2.569,-1.189 2.569,-2.649 v -8.591 c 0,-6.2 -4.9,-11.25 -10.92,-11.25 -6.03,0 -10.931,5.049 -10.931,11.25 z" /></g></g></g>
</svg>