<?xml version="1.0" encoding="iso-8859-1"?>
<!-- Generator: Adobe Illustrator 19.0.0, SVG Export Plug-In . SVG Version: 6.00 Build 0)  -->
<svg xmlns="http://www.w3.org/2000/svg" xmlns:xlink="http://www.w3.org/1999/xlink" version="1.1" id="Capa_1" x="0px" y="0px" viewBox="0 0 480.002 480.002" style="enable-background:new 0 0 480.002 480.002;" xml:space="preserve" width="512px" height="512px">
<g>
	<g>
		<path d="M298.802,422.394l-18.8-25.064V271.994c-0.096-57.341-38.281-107.636-93.488-123.136l28.688-57.288    c1.803-3.609,0.637-7.995-2.72-10.232l-8-5.344c-12.289-8.164-28.003-9.141-41.208-2.56c-7.07,3.524-15.386,3.524-22.456,0    c-13.203-6.578-28.913-5.601-41.2,2.56l-8,5.344c-3.357,2.237-4.523,6.623-2.72,10.232l28.648,57.288    c-55.229,15.479-93.441,65.779-93.544,123.136V397.33l-18.8,25.064c-8.616,11.488-6.288,27.784,5.2,36.4    c4.501,3.375,9.974,5.2,15.6,5.2h252c14.359,0,26-11.641,26-26C304.002,432.369,302.177,426.895,298.802,422.394z M106.314,90.73    l2.136-1.416c7.498-4.992,17.09-5.602,25.16-1.6c11.589,5.768,25.211,5.768,36.8,0c8.069-4.018,17.672-3.408,25.168,1.6    l2.136,1.416l-27.392,54.728c-6.064-0.926-12.186-1.415-18.32-1.464c-6.134,0.049-12.256,0.538-18.32,1.464L106.314,90.73z     M284.002,445.994c-1.731,1.298-3.836,2-6,2h-252c-5.523,0-10-4.477-10-10c0-2.164,0.702-4.269,2-6l20.4-27.2    c1.039-1.385,1.6-3.069,1.6-4.8v-128c0-61.856,50.144-112,112-112s112,50.144,112,112v128c0,1.731,0.561,3.415,1.6,4.8l20.4,27.2    C289.315,436.413,288.42,442.681,284.002,445.994z" fill="#00718c"/>
	</g>
</g>
<g>
	<g>
		<path d="M472.002,319.994c4.418,0,8-3.582,8-8v-48c0-4.418-3.582-8-8-8h-24v-40c0-4.418-3.582-8-8-8h-18.848    c30.974-24.937,35.868-70.261,10.931-101.235c-24.937-30.974-70.261-35.868-101.235-10.931s-35.868,70.261-10.931,101.235    c3.241,4.025,6.906,7.69,10.931,10.931h-18.848c-4.418,0-8,3.582-8,8v48c0,4.418,3.582,8,8,8h24v32h-24c-4.418,0-8,3.582-8,8v48    c0,4.418,3.582,8,8,8h24v88c0,4.418,3.582,8,8,8h128c4.418,0,8-3.582,8-8v-96c0-4.418-3.582-8-8-8h-24v-32H472.002z     M320.002,151.994c0-30.928,25.072-56,56-56c30.928,0,56,25.072,56,56c0,30.928-25.072,56-56,56    C345.088,207.959,320.037,182.908,320.002,151.994z M320.002,255.994v-32h112v32h-16v-16h-16v16h-16v-16h-16v16h-16v-16h-16v16    H320.002z M336.002,335.994v16h-16v-32h112v32h-16v-16h-16v16h-16v-16h-16v16h-16v-16H336.002z M464.002,447.994h-16v-16h-16v16    h-16v-16h-16v16h-16v-16h-16v16h-16v-32h112V447.994z M464.002,367.994v32h-16v-16h-16v16h-16v-16h-16v16h-16v-16h-16v16h-16v-32    H464.002z M432.002,287.994v16h-16v-16h-16v16h-16v-16h-16v16h-16v-32h112v32h-16v-16H432.002z" fill="#00718c"/>
	</g>
</g>
<g>
	<g>
		<path d="M336.002,151.994h16c0-13.255,10.745-24,24-24v-16C353.921,112.021,336.028,129.914,336.002,151.994z" fill="#00718c"/>
	</g>
</g>
<g>
	<g>
		<path d="M400.002,151.994c0,13.255-10.745,24-24,24v16c22.08-0.026,39.974-17.92,40-40H400.002z" fill="#00718c"/>
	</g>
</g>
<g>
	<g>
		<path d="M192.002,279.994v-1.536c-0.018-16.818-13.646-30.446-30.464-30.464h-1.536v-16h-16v16h-1.536    c-16.825,0.038-30.433,13.709-30.394,30.533c0.032,13.925,9.502,26.056,23.002,29.466l29.968,7.488    c7.759,1.902,12.506,9.733,10.605,17.492c-1.591,6.492-7.424,11.048-14.109,11.02h-19.072    c-7.985-0.009-14.455-6.479-14.464-14.464v-1.536h-16v1.536c0.018,16.817,13.647,30.446,30.464,30.464h1.536v16h16v-16h1.536    c16.825-0.038,30.433-13.709,30.394-30.534c-0.032-13.925-9.501-26.056-23.002-29.466l-29.968-7.488    c-7.759-1.902-12.506-9.733-10.605-17.492c1.591-6.492,7.424-11.048,14.109-11.02h19.072c7.985,0.009,14.455,6.479,14.464,14.464    v1.536H192.002z" fill="#00718c"/>
	</g>
</g>
<g>
	<g>
		<path d="M303.876,54.66c-0.568-3.357-3.197-5.986-6.554-6.554c-13.039-2.175-23.257-12.393-25.432-25.432    c-0.737-4.356-4.866-7.291-9.222-6.554c-3.357,0.568-5.986,3.197-6.554,6.554c-2.175,13.039-12.393,23.257-25.432,25.432    c-4.356,0.737-7.291,4.866-6.554,9.222c0.568,3.357,3.197,5.986,6.554,6.554c13.039,2.175,23.257,12.393,25.432,25.432    c0.737,4.356,4.866,7.291,9.222,6.554c3.357-0.568,5.986-3.197,6.554-6.554c2.175-13.039,12.393-23.257,25.432-25.432    C301.678,63.146,304.612,59.017,303.876,54.66z M264.002,67.418c-3.119-4.439-6.985-8.305-11.424-11.424    c4.439-3.119,8.305-6.985,11.424-11.424c3.119,4.439,6.985,8.305,11.424,11.424C270.986,59.114,267.121,62.979,264.002,67.418z" fill="#00718c"/>
	</g>
</g>
<g>
</g>
<g>
</g>
<g>
</g>
<g>
</g>
<g>
</g>
<g>
</g>
<g>
</g>
<g>
</g>
<g>
</g>
<g>
</g>
<g>
</g>
<g>
</g>
<g>
</g>
<g>
</g>
<g>
</g>
</svg>
