<?xml version="1.0" encoding="utf-8"?>
<!-- Generator: Adobe Illustrator 16.0.0, SVG Export Plug-In . SVG Version: 6.00 Build 0)  -->
<!DOCTYPE svg PUBLIC "-//W3C//DTD SVG 1.1//EN" "http://www.w3.org/Graphics/SVG/1.1/DTD/svg11.dtd">
<svg version="1.1" id="Layer_1" xmlns="http://www.w3.org/2000/svg" xmlns:xlink="http://www.w3.org/1999/xlink" x="0px" y="0px"
	 width="630px" height="135px" viewBox="0 0 630 135" enable-background="new 0 0 630 135" xml:space="preserve">
<g>
	<g>
		<rect x="69.969" y="19.725" fill="#FFDE00" width="490.061" height="48.5"/>
		<rect x="18.144" y="74.016" fill="#FFDE00" width="593.714" height="41.26"/>
	</g>
	<g enable-background="new    ">
		<path fill="#057289" d="M86.016,60.516c-0.177-0.798-0.266-1.779-0.27-2.943c-0.003-1.164,0.019-2.372,0.067-3.623
			c0.048-1.251,0.105-2.458,0.171-3.623c0.066-1.163,0.098-2.163,0.095-2.996h0.052c0.199-3.024,0.294-6.081,0.285-9.175
			c-0.003-1.111,0.045-2.224,0.146-3.336c0.101-1.111,0.149-2.224,0.146-3.336c-0.003-0.938-0.006-1.919-0.009-2.944
			c-0.003-1.024,0.098-1.99,0.304-2.894c0.52-0.383,0.962-0.559,1.327-0.525c0.365,0.034,0.877,0.084,1.538,0.151
			c0.035,0.07,0.157,0.122,0.365,0.155c0.209,0.034,0.444,0.069,0.704,0.102c0.261,0.034,0.503,0.05,0.73,0.05
			c0.226-0.001,0.373,0.017,0.443,0.051c-0.159,4.934-0.222,9.825-0.189,14.671c0.033,4.848-0.031,9.738-0.189,14.673l-0.191,5.682
			c-0.174,0.104-0.382,0.21-0.625,0.313c-0.208,0.071-0.451,0.133-0.729,0.186c-0.278,0.053-0.591,0.046-0.938-0.023
			c-0.104,0-0.313-0.024-0.626-0.076c-0.313-0.051-0.644-0.119-0.991-0.205c-0.348-0.086-0.678-0.163-0.991-0.231
			C86.329,60.55,86.12,60.516,86.016,60.516z"/>
	</g>
	<g enable-background="new    ">
		<path fill="#057289" d="M112.545,60.695c-0.244,0.035-0.487,0.071-0.73,0.106s-0.468,0.088-0.677,0.158
			c-0.937,0.281-1.806,0.197-2.606-0.253c0.062-2.467,0.158-4.951,0.289-7.454c0.032-0.729,0.03-1.485-0.007-2.268
			c-0.037-0.781-0.109-1.536-0.215-2.266c-0.284-1.701-0.834-2.819-1.652-3.356c-0.818-0.536-1.688-0.689-2.607-0.462
			c-0.92,0.229-1.77,0.735-2.549,1.521c-0.779,0.783-1.272,1.629-1.478,2.531c-0.412,1.774-0.641,3.564-0.687,5.371
			c-0.047,1.808-0.067,3.597-0.062,5.368l0.004,1.251c-0.279,0.001-0.625,0.021-1.042,0.056c-0.417,0.036-0.833,0.055-1.25,0.056
			s-0.791-0.058-1.122-0.179c-0.331-0.12-0.566-0.338-0.706-0.649c0-0.277-0.003-0.929-0.006-1.954
			c-0.003-1.024-0.016-2.232-0.037-3.622c-0.022-1.39-0.035-2.858-0.04-4.404s-0.001-2.988,0.013-4.326
			c0.013-1.337,0.044-2.457,0.094-3.361c0.049-0.904,0.125-1.408,0.23-1.513c0.034-0.069,0.138-0.122,0.312-0.157
			c0.173-0.035,0.365-0.062,0.573-0.08c0.208-0.018,0.399-0.027,0.574-0.028c0.173,0,0.312-0.018,0.417-0.053
			c0.173-0.14,0.399-0.175,0.677-0.106c0.278,0.069,0.504,0.103,0.678,0.103c0.175,0.486,0.307,1.016,0.396,1.588
			c0.088,0.573,0.134,1.155,0.136,1.746c0.9-1.011,1.949-1.891,3.145-2.643c1.196-0.75,2.394-1.206,3.592-1.365
			c1.198-0.16,2.337,0.053,3.416,0.641c1.078,0.587,1.951,1.713,2.616,3.379c0.665,1.632,1.027,3.351,1.084,5.157
			s0.072,3.579,0.043,5.315c0.001,0.348-0.007,0.808-0.022,1.382c-0.016,0.573-0.057,1.155-0.125,1.745
			c-0.068,0.593-0.152,1.166-0.255,1.722C112.855,59.947,112.717,60.382,112.545,60.695z"/>
		<path fill="#057289" d="M134.456,50.933c0.592,0.415,0.949,0.823,1.072,1.222c0.123,0.399,0.255,0.93,0.396,1.588
			c0.212,1.042,0.171,1.973-0.121,2.789c-0.293,0.818-0.769,1.522-1.427,2.115c-0.659,0.593-1.438,1.1-2.341,1.52
			c-0.902,0.419-1.84,0.744-2.812,0.973c-0.972,0.229-1.945,0.396-2.917,0.504c-0.973,0.107-1.841,0.145-2.605,0.112
			c-1.217-0.066-2.364-0.297-3.442-0.693c-1.078-0.396-2.14-0.888-3.184-1.476c0.104-0.312,0.188-0.678,0.257-1.096
			c0.068-0.417,0.153-0.842,0.257-1.276c0.103-0.436,0.24-0.843,0.413-1.227c0.172-0.383,0.396-0.713,0.674-0.992l0.784,0.623
			c0.243,0.242,0.557,0.502,0.941,0.779c0.382,0.276,0.791,0.526,1.227,0.751c0.435,0.225,0.87,0.406,1.305,0.544
			c0.434,0.137,0.825,0.205,1.173,0.204c2.189,0.063,3.917-0.195,5.184-0.772c1.266-0.577,1.88-1.335,1.843-2.271
			c-0.001-0.417-0.211-0.764-0.629-1.042c-0.418-0.275-0.766-0.482-1.044-0.621c-0.939-0.414-2.027-0.724-3.261-0.929
			c-1.234-0.204-2.391-0.495-3.468-0.875c-1.079-0.378-1.992-0.949-2.742-1.711c-0.75-0.762-1.126-1.926-1.131-3.489
			c-0.003-1.007,0.254-1.919,0.773-2.738c0.519-0.817,1.203-1.541,2.053-2.17c0.849-0.627,1.811-1.151,2.888-1.572
			c1.075-0.42,2.168-0.744,3.28-0.974c1.111-0.229,2.188-0.337,3.23-0.322c1.042,0.014,1.963,0.142,2.764,0.382
			c0.173,0.069,0.417,0.154,0.729,0.258c0.313,0.104,0.557,0.207,0.731,0.311c0.14,0.383,0.123,0.704-0.05,0.964
			c-0.173,0.262-0.293,0.584-0.361,0.966c-0.07,0.07-0.121,0.192-0.155,0.365c-0.034,0.175-0.069,0.357-0.103,0.548
			c-0.035,0.191-0.06,0.373-0.076,0.548c-0.018,0.175-0.061,0.261-0.13,0.261c-0.348,0.036-0.704,0.02-1.068-0.049
			c-0.365-0.068-0.739-0.119-1.121-0.153c-0.765-0.066-1.582-0.09-2.45-0.07c-0.868,0.021-1.711,0.136-2.526,0.347
			c-0.816,0.211-1.571,0.544-2.265,0.997c-0.694,0.454-1.23,1.082-1.609,1.882l-0.052,0.104c0.035,0.348,0.167,0.67,0.394,0.964
			c0.227,0.294,0.505,0.545,0.836,0.753c0.331,0.207,0.669,0.381,1.018,0.518c0.347,0.139,0.678,0.225,0.991,0.258
			c0.799,0.102,1.599,0.229,2.398,0.383c0.8,0.154,1.556,0.343,2.27,0.566c0.712,0.225,1.347,0.457,1.904,0.698
			C133.707,50.448,134.143,50.691,134.456,50.933z"/>
		<path fill="#057289" d="M154.498,60.147c-2.186,1.153-4.208,1.751-6.066,1.791c-1.859,0.04-3.459-0.302-4.798-1.027
			c-1.341-0.726-2.396-1.747-3.163-3.065c-0.769-1.318-1.199-2.767-1.29-4.348c-0.093-1.581,0.216-3.206,0.923-4.876
			c0.706-1.67,1.857-3.22,3.451-4.649c2.633-2.335,5.739-3.562,9.317-3.678c0.694-0.036,1.382-0.012,2.06,0.072
			c0.678,0.085,1.33,0.283,1.957,0.594c0.209,0.312,0.331,0.607,0.366,0.884c0.035,0.278,0.036,0.557,0.003,0.834
			c-0.034,0.279-0.102,0.574-0.205,0.887c-0.104,0.313-0.173,0.645-0.206,0.991c-0.103,0.417-0.276,0.671-0.519,0.757
			c-0.243,0.088-0.521,0.106-0.833,0.056c-0.313-0.052-0.636-0.129-0.966-0.232c-0.33-0.103-0.635-0.119-0.912-0.049
			c-0.279-0.104-0.696-0.119-1.251-0.048c-0.556,0.071-0.973,0.038-1.251-0.101c-1.32,0.178-2.482,0.607-3.488,1.288
			c-1.006,0.68-1.819,1.482-2.442,2.405c-0.622,0.923-1.036,1.905-1.241,2.948c-0.205,1.042-0.168,1.998,0.113,2.865
			c0.28,0.869,0.829,1.588,1.648,2.158c0.817,0.571,1.922,0.854,3.312,0.851c1.633-0.005,3.144-0.436,4.531-1.292
			c1.386-0.854,2.652-1.806,3.796-2.853c0.485,0.208,0.878,0.493,1.175,0.857c0.296,0.364,0.48,0.997,0.554,1.9
			c-0.104,0.383-0.337,0.783-0.701,1.201c-0.362,0.418-0.771,0.811-1.221,1.176c-0.451,0.366-0.919,0.699-1.404,0.994
			C155.261,59.737,154.845,59.973,154.498,60.147z"/>
	</g>
	<g enable-background="new    ">
		<path fill="#057289" d="M177.638,42.877c-0.278,0.036-0.539,0.045-0.782,0.028c-0.244-0.017-0.487-0.024-0.729-0.024
			c-0.07-0.033-0.201-0.051-0.392-0.05c-0.191,0-0.321,0.019-0.39,0.053c-0.938,0.246-1.805,0.631-2.603,1.154
			c-0.798,0.524-1.517,1.126-2.157,1.805c-0.642,0.68-1.204,1.395-1.688,2.142c-0.484,0.75-0.882,1.454-1.192,2.115
			c0.002,0.591,0.013,1.373,0.033,2.346s0.033,1.972,0.036,2.996c0.003,1.025-0.012,1.999-0.043,2.919
			c-0.032,0.921-0.1,1.643-0.202,2.164c-0.069,0.312-0.303,0.531-0.702,0.653c-0.399,0.122-0.842,0.193-1.329,0.212
			c-0.487,0.02-0.973,0.012-1.459-0.021c-0.487-0.033-0.852-0.067-1.095-0.101c-0.01-3.37,0.005-6.715,0.047-10.034
			c0.042-3.317,0.057-6.662,0.047-10.032c-0.001-0.382,0.015-0.773,0.048-1.173c0.033-0.399,0.067-0.808,0.101-1.225
			c0.313-0.001,0.694-0.037,1.146-0.108c0.451-0.071,0.816-0.072,1.094-0.004c0.417,0.104,0.791,0.285,1.122,0.544
			c0.331,0.26,0.654,0.685,0.969,1.274c0.105,0.451,0.159,0.92,0.161,1.406c0.001,0.487,0.02,0.956,0.056,1.407h0.052
			c0.485-0.453,0.996-0.958,1.533-1.517c0.537-0.558,1.187-1.055,1.95-1.491c0.763-0.437,1.666-0.761,2.707-0.973
			c1.042-0.212,2.31-0.197,3.805,0.04c0.174,0.14,0.279,0.373,0.315,0.703c0.035,0.33,0.028,0.677-0.023,1.042
			s-0.12,0.714-0.206,1.043C177.784,42.503,177.707,42.737,177.638,42.877z"/>
	</g>
	<g enable-background="new    ">
		<path fill="#057289" d="M198.22,58.71c-0.139,0.139-0.347,0.331-0.624,0.575c-0.278,0.244-0.503,0.418-0.676,0.522
			c-1.943,1.188-3.99,1.933-6.143,2.234c-2.154,0.301-4.152,0.117-5.996-0.555c-1.844-0.672-3.368-1.857-4.572-3.556
			c-1.204-1.698-1.81-3.955-1.819-6.77c-0.004-1.529,0.252-2.972,0.769-4.329c0.517-1.356,1.243-2.627,2.177-3.812
			c0.934-1.184,2.104-2.169,3.509-2.955s2.854-1.26,4.348-1.421c1.493-0.161,2.927,0.026,4.302,0.561
			c1.374,0.534,2.514,1.513,3.423,2.934c0.348,0.556,0.629,1.153,0.839,1.795c0.21,0.643,0.333,1.294,0.371,1.954
			c0.036,0.348,0.072,0.729,0.108,1.146c0.035,0.417,0.02,0.8-0.048,1.146c-0.172,0.765-0.378,1.479-0.619,2.139
			c-0.104,0.278-0.415,0.515-0.936,0.707c-0.521,0.192-1.094,0.342-1.719,0.447c-0.625,0.106-1.233,0.187-1.824,0.24
			c-0.591,0.055-1.007,0.1-1.25,0.135c-1.39,0.143-2.771,0.243-4.143,0.299c-1.373,0.057-2.754,0.105-4.143,0.144l-0.312,0.209
			c-0.104,0.384-0.102,0.766,0.003,1.146c0.107,0.904,0.439,1.633,0.997,2.187c0.557,0.554,1.202,0.986,1.932,1.297
			c0.73,0.311,1.513,0.525,2.348,0.645c0.834,0.119,1.598,0.177,2.294,0.175c0.555-0.07,1.05-0.159,1.484-0.265
			c0.434-0.105,0.876-0.289,1.328-0.552c0.45-0.262,0.944-0.629,1.482-1.099c0.537-0.471,1.186-1.106,1.948-1.909
			c0.069-0.034,0.226,0.104,0.47,0.416c0.244,0.312,0.498,0.668,0.759,1.066c0.262,0.399,0.505,0.78,0.733,1.144
			c0.227,0.364,0.358,0.582,0.393,0.65c-0.069,0.209-0.242,0.444-0.519,0.706C198.618,58.37,198.393,58.57,198.22,58.71z
			 M194.122,48.194c0.138-0.105,0.233-0.243,0.285-0.418c0.052-0.174,0.077-0.347,0.077-0.521c0.068-0.452,0.031-0.981-0.109-1.589
			c-0.141-0.607-0.334-1.103-0.578-1.483c-0.664-1.11-1.552-1.768-2.664-1.973c-1.113-0.205-2.233-0.072-3.361,0.401
			c-1.128,0.472-2.125,1.214-2.99,2.224c-0.866,1.011-1.366,2.194-1.5,3.549c0.174,0.209,0.4,0.347,0.679,0.415
			c0.069,0.035,0.347,0.043,0.834,0.023c0.486-0.019,1.085-0.046,1.797-0.083c0.712-0.037,1.485-0.083,2.319-0.139
			c0.834-0.054,1.616-0.1,2.345-0.137s1.363-0.083,1.902-0.137C193.696,48.273,194.018,48.229,194.122,48.194z"/>
	</g>
	<g enable-background="new    ">
		<path fill="#057289" d="M206.561,59.203c-0.21-0.45-0.455-1.022-0.735-1.717c-0.28-0.693-0.561-1.405-0.84-2.135
			c-0.281-0.729-0.544-1.448-0.789-2.16c-0.246-0.711-0.438-1.31-0.579-1.796c-0.491-1.389-0.903-2.785-1.237-4.191
			c-0.335-1.406-0.678-2.821-1.03-4.245c-0.071-0.382-0.125-0.729-0.16-1.042c-0.036-0.313-0.141-0.659-0.315-1.042
			c0.45-0.452,0.848-0.783,1.195-0.994c0.346-0.209,0.667-0.349,0.963-0.42c0.294-0.07,0.59-0.096,0.886-0.08
			c0.295,0.018,0.616,0.042,0.965,0.075c0.105,0.312,0.218,0.686,0.342,1.119c0.123,0.435,0.245,0.895,0.37,1.38
			c0.123,0.487,0.237,0.964,0.343,1.433c0.106,0.469,0.211,0.859,0.316,1.172c0.561,1.7,1.096,3.515,1.606,5.441
			c0.509,1.927,1.166,3.689,1.971,5.284c0.138-0.382,0.431-1.061,0.88-2.036c0.448-0.973,0.966-2.078,1.553-3.314
			c0.586-1.234,1.217-2.531,1.891-3.889c0.673-1.356,1.303-2.609,1.891-3.758c0.587-1.148,1.104-2.114,1.554-2.897
			c0.449-0.783,0.743-1.244,0.882-1.385c0.521-0.174,1.094-0.115,1.721,0.178c0.626,0.294,1.148,0.647,1.567,1.063
			c-0.173,0.418-0.293,0.679-0.362,0.783c-0.07,0.104-0.19,0.349-0.363,0.73c-0.657,1.253-1.356,2.551-2.099,3.89
			c-0.744,1.34-1.408,2.671-1.995,3.993c-0.311,0.661-0.587,1.271-0.828,1.827c-0.242,0.557-0.483,1.105-0.725,1.644
			c-0.242,0.54-0.475,1.097-0.698,1.671c-0.225,0.573-0.475,1.191-0.75,1.852c-0.103,0.312-0.258,0.723-0.465,1.226
			c-0.207,0.506-0.423,1.019-0.647,1.54c-0.225,0.521-0.448,1.027-0.672,1.515c-0.225,0.486-0.406,0.887-0.544,1.199
			c-0.208,0.035-0.503,0.054-0.885,0.055c-0.383,0.001-0.782-0.015-1.199-0.048s-0.817-0.049-1.199-0.048
			c-0.383,0.001-0.678,0.02-0.886,0.055c-0.035-0.104-0.087-0.243-0.157-0.417c-0.071-0.174-0.158-0.354-0.263-0.546
			c-0.104-0.19-0.201-0.372-0.288-0.547C206.657,59.447,206.595,59.308,206.561,59.203z"/>
	</g>
	<g enable-background="new    ">
		<path fill="#057289" d="M238.402,41.229c0.628,0.901,1.057,1.995,1.287,3.279c0.23,1.285,0.364,2.631,0.403,4.038
			c0.039,1.407,0.017,2.797-0.065,4.17c-0.083,1.373-0.141,2.579-0.171,3.623l-0.052,0.052c0.002,0.729-0.021,1.563-0.07,2.502
			c-0.049,0.938-0.074,1.65-0.072,2.137c-0.486,0.036-0.956,0.099-1.407,0.188c-0.451,0.087-0.92,0.133-1.406,0.134
			c-0.175-0.346-0.419-0.624-0.732-0.832c-0.313-0.207-0.488-0.519-0.524-0.936c-0.208,0.07-0.391,0.131-0.547,0.184
			c-0.156,0.053-0.312,0.114-0.469,0.184c-0.156,0.071-0.356,0.141-0.598,0.211c-0.244,0.07-0.556,0.158-0.938,0.264
			c-0.487,0.105-0.963,0.211-1.433,0.317c-0.468,0.105-0.946,0.159-1.433,0.16c-0.07,0.001-0.104,0.019-0.104,0.053
			c-1.112,0.003-2.198-0.097-3.258-0.303c-1.061-0.205-2.044-0.706-2.949-1.503c-1.15-0.968-1.727-2.2-1.731-3.694l0-0.156
			l-0.002-0.729c-0.003-0.938,0.272-1.773,0.826-2.505c0.553-0.731,1.237-1.359,2.053-1.882c0.814-0.524,1.691-0.952,2.628-1.286
			c0.938-0.332,1.805-0.569,2.604-0.711c0.799-0.142,1.623-0.214,2.475-0.217c0.851-0.003,1.676-0.074,2.475-0.216
			c-0.037-0.556-0.047-1.129-0.032-1.72c0.015-0.591-0.064-1.163-0.24-1.72c-0.211-0.763-0.604-1.309-1.178-1.638
			c-0.574-0.327-1.218-0.499-1.93-0.515c-0.712-0.016-1.425,0.082-2.136,0.293c-0.712,0.211-1.328,0.491-1.848,0.84
			c-0.589,0.384-1.109,0.829-1.559,1.334c-0.45,0.505-0.883,1.019-1.298,1.541c-0.07,0-0.201-0.078-0.392-0.233
			c-0.192-0.155-0.401-0.329-0.627-0.52c-0.227-0.189-0.436-0.371-0.627-0.545c-0.192-0.173-0.322-0.26-0.392-0.26
			c0.62-1.635,1.588-3.01,2.906-4.126c1.317-1.115,2.73-1.867,4.241-2.255c1.51-0.386,3.021-0.355,4.535,0.091
			C236.127,38.77,237.39,39.738,238.402,41.229z M235.515,51.297c-0.139-0.104-0.348-0.146-0.625-0.129
			c-0.278,0.02-0.504-0.006-0.678-0.076c-0.938,0.003-1.737,0.094-2.396,0.269c-0.66,0.177-1.441,0.422-2.344,0.736
			c-0.069,0.036-0.156,0.062-0.26,0.08c-0.104,0.019-0.191,0.062-0.26,0.131c-0.417,0.175-0.868,0.472-1.353,0.89
			c-0.486,0.419-0.762,0.872-0.83,1.358c0,0.174,0.001,0.321,0.001,0.442c0,0.123,0.035,0.27,0.105,0.443
			c0.175,0.486,0.706,0.806,1.593,0.959c0.887,0.154,1.833,0.195,2.841,0.122c1.007-0.073,1.928-0.231,2.761-0.478
			s1.266-0.508,1.301-0.786c0.067-0.591,0.108-1.252,0.124-1.981C235.51,52.548,235.517,51.888,235.515,51.297z"/>
		<path fill="#057289" d="M275.487,50.495c0.592,0.416,0.949,0.823,1.072,1.222c0.123,0.4,0.255,0.93,0.396,1.589
			c0.212,1.041,0.171,1.972-0.121,2.788c-0.293,0.818-0.769,1.523-1.427,2.116c-0.659,0.593-1.438,1.099-2.341,1.519
			c-0.902,0.419-1.84,0.744-2.812,0.973c-0.972,0.229-1.944,0.396-2.917,0.504s-1.842,0.145-2.605,0.113
			c-1.217-0.066-2.364-0.298-3.442-0.693c-1.078-0.396-2.14-0.889-3.184-1.476c0.104-0.313,0.188-0.679,0.257-1.096
			s0.154-0.843,0.257-1.277s0.24-0.843,0.413-1.226c0.173-0.384,0.397-0.714,0.675-0.992l0.783,0.622
			c0.244,0.242,0.558,0.502,0.941,0.779c0.383,0.277,0.791,0.527,1.227,0.751c0.435,0.226,0.869,0.406,1.305,0.544
			c0.435,0.138,0.826,0.205,1.174,0.204c2.188,0.063,3.916-0.194,5.184-0.771c1.266-0.577,1.88-1.335,1.843-2.272
			c-0.001-0.417-0.211-0.763-0.629-1.041c-0.418-0.276-0.766-0.483-1.044-0.622c-0.939-0.414-2.027-0.723-3.261-0.928
			c-1.234-0.204-2.391-0.496-3.469-0.875s-1.992-0.949-2.741-1.712c-0.75-0.761-1.127-1.925-1.132-3.488
			c-0.003-1.007,0.255-1.92,0.773-2.739c0.52-0.816,1.202-1.54,2.053-2.169c0.849-0.628,1.812-1.152,2.888-1.572
			c1.075-0.421,2.168-0.744,3.28-0.975c1.111-0.229,2.188-0.337,3.23-0.322c1.042,0.015,1.963,0.143,2.764,0.382
			c0.173,0.07,0.417,0.155,0.729,0.259c0.313,0.104,0.557,0.206,0.731,0.311c0.14,0.382,0.123,0.703-0.05,0.964
			s-0.293,0.584-0.361,0.966c-0.07,0.069-0.121,0.191-0.155,0.364c-0.034,0.176-0.069,0.358-0.103,0.549
			c-0.035,0.191-0.06,0.373-0.076,0.547c-0.018,0.175-0.061,0.261-0.13,0.261c-0.348,0.037-0.704,0.021-1.068-0.048
			c-0.365-0.068-0.739-0.12-1.121-0.154c-0.765-0.065-1.582-0.09-2.45-0.07c-0.868,0.021-1.711,0.137-2.526,0.347
			c-0.816,0.212-1.571,0.544-2.265,0.997c-0.693,0.455-1.229,1.082-1.609,1.882l-0.052,0.104c0.035,0.348,0.167,0.669,0.394,0.963
			c0.227,0.295,0.505,0.546,0.836,0.754c0.331,0.207,0.67,0.381,1.019,0.518c0.348,0.138,0.678,0.224,0.991,0.257
			c0.799,0.103,1.599,0.229,2.398,0.384c0.8,0.153,1.556,0.343,2.27,0.566c0.712,0.224,1.347,0.456,1.904,0.698
			C274.738,50.012,275.174,50.254,275.487,50.495z"/>
	</g>
	<g enable-background="new    ">
		<path fill="#057289" d="M300.111,58.394c-0.139,0.139-0.347,0.331-0.624,0.575c-0.278,0.244-0.503,0.418-0.676,0.522
			c-1.943,1.188-3.99,1.933-6.143,2.234c-2.154,0.301-4.152,0.117-5.996-0.555c-1.844-0.672-3.368-1.857-4.572-3.556
			c-1.204-1.698-1.81-3.955-1.819-6.77c-0.004-1.529,0.252-2.972,0.769-4.329c0.517-1.356,1.243-2.627,2.177-3.812
			c0.934-1.184,2.104-2.169,3.509-2.955s2.854-1.26,4.348-1.421c1.493-0.161,2.927,0.026,4.302,0.561
			c1.374,0.534,2.514,1.513,3.423,2.934c0.348,0.556,0.629,1.153,0.839,1.795c0.21,0.643,0.333,1.294,0.371,1.954
			c0.036,0.348,0.072,0.729,0.108,1.146c0.035,0.417,0.02,0.8-0.048,1.146c-0.172,0.765-0.378,1.479-0.619,2.139
			c-0.104,0.278-0.415,0.515-0.936,0.707c-0.521,0.192-1.094,0.342-1.719,0.447c-0.625,0.106-1.233,0.187-1.824,0.24
			c-0.591,0.055-1.007,0.1-1.25,0.135c-1.39,0.143-2.771,0.243-4.143,0.299c-1.373,0.057-2.754,0.105-4.143,0.144l-0.312,0.209
			c-0.104,0.384-0.102,0.766,0.003,1.146c0.107,0.904,0.439,1.633,0.997,2.187c0.557,0.554,1.202,0.986,1.932,1.297
			c0.73,0.311,1.513,0.525,2.348,0.645c0.834,0.119,1.598,0.177,2.294,0.175c0.555-0.07,1.05-0.159,1.484-0.265
			c0.434-0.105,0.876-0.289,1.328-0.552c0.45-0.262,0.944-0.629,1.482-1.099c0.537-0.471,1.186-1.106,1.948-1.909
			c0.069-0.034,0.226,0.104,0.47,0.416c0.244,0.312,0.498,0.668,0.759,1.066c0.262,0.399,0.505,0.78,0.733,1.144
			c0.227,0.364,0.358,0.582,0.393,0.65c-0.069,0.209-0.242,0.444-0.519,0.706C300.509,58.054,300.284,58.254,300.111,58.394z
			 M296.013,47.878c0.138-0.105,0.233-0.243,0.285-0.418c0.052-0.174,0.077-0.347,0.077-0.521c0.068-0.452,0.031-0.981-0.109-1.589
			c-0.141-0.607-0.334-1.103-0.578-1.483c-0.664-1.11-1.552-1.768-2.664-1.973c-1.113-0.205-2.233-0.072-3.361,0.401
			c-1.128,0.472-2.125,1.214-2.99,2.224c-0.866,1.011-1.366,2.194-1.5,3.549c0.174,0.209,0.4,0.347,0.679,0.415
			c0.069,0.035,0.347,0.043,0.834,0.023c0.486-0.019,1.085-0.046,1.797-0.083c0.712-0.037,1.485-0.083,2.319-0.139
			c0.834-0.054,1.616-0.1,2.345-0.137s1.363-0.083,1.902-0.137C295.587,47.957,295.909,47.913,296.013,47.878z"/>
	</g>
	<g enable-background="new    ">
		<path fill="#057289" d="M305.941,39.664c0.208-0.035,0.443-0.062,0.703-0.081c0.261-0.018,0.495-0.062,0.704-0.132
			c0.486-0.175,0.945-0.22,1.38-0.135c0.434,0.085,0.843,0.215,1.226,0.387c-0.066,1.251-0.148,2.502-0.249,3.754
			c-0.1,1.251-0.201,2.484-0.301,3.701c-0.068,0.729-0.092,1.494-0.071,2.293c0.02,0.8,0.083,1.564,0.189,2.293
			c0.142,1.146,0.423,2.023,0.842,2.63c0.419,0.606,0.916,1.005,1.489,1.193c0.574,0.189,1.181,0.205,1.824,0.047
			c0.642-0.158,1.25-0.43,1.822-0.812c0.573-0.385,1.066-0.855,1.481-1.412c0.416-0.558,0.708-1.149,0.881-1.775
			c0.48-1.774,0.753-3.554,0.816-5.345c0.064-1.789,0.128-3.57,0.192-5.343l-0.004-1.251c0.278-0.001,0.626-0.019,1.042-0.056
			c0.418-0.035,0.834-0.045,1.252-0.03c0.416,0.018,0.799,0.086,1.146,0.206c0.348,0.121,0.574,0.337,0.68,0.649
			c0.001,0.278-0.006,0.93-0.02,1.954c-0.016,1.025-0.037,2.233-0.067,3.622c-0.031,1.391-0.062,2.858-0.091,4.404
			c-0.03,1.547-0.068,2.99-0.117,4.327c-0.047,1.338-0.113,2.458-0.197,3.361c-0.085,0.905-0.179,1.408-0.282,1.513
			c-0.139,0.105-0.442,0.167-0.911,0.186c-0.47,0.02-0.809,0.047-1.017,0.081c-0.174,0.14-0.39,0.176-0.651,0.105
			c-0.261-0.067-0.495-0.102-0.703-0.101c-0.282-1.042-0.424-2.153-0.428-3.335c-0.936,1.011-2.01,1.874-3.224,2.59
			c-1.214,0.717-2.42,1.146-3.618,1.288c-1.198,0.144-2.329-0.088-3.39-0.692c-1.062-0.604-1.908-1.74-2.539-3.406
			c-0.631-1.666-0.94-3.394-0.928-5.184c0.012-1.789,0.049-3.57,0.114-5.342c-0.001-0.348,0.024-0.809,0.074-1.382
			c0.051-0.573,0.109-1.155,0.177-1.747c0.067-0.59,0.17-1.163,0.307-1.721C305.613,40.413,305.768,39.977,305.941,39.664z"/>
		<path fill="#057289" d="M346.861,42.247c0.139-0.174,0.469-0.453,0.988-0.837s1.006-0.716,1.455-0.995
			c0.799-0.453,1.545-0.734,2.24-0.841c0.693-0.105,1.457-0.247,2.291-0.424l0.156,0.052c1.182,0.239,2.191,0.497,3.025,0.772
			c0.834,0.276,1.705,0.881,2.611,1.815c1.779,1.838,2.672,3.988,2.68,6.455c0.006,1.876-0.381,3.476-1.16,4.799
			c-0.777,1.323-1.859,2.578-3.244,3.763c-0.59,0.488-1.309,0.985-2.158,1.492c-0.852,0.506-1.744,0.917-2.68,1.232
			c-0.938,0.315-1.867,0.51-2.787,0.582c-0.922,0.073-1.764-0.08-2.529-0.461c-0.279,0.001-0.496-0.085-0.652-0.259
			c-0.158-0.173-0.375-0.277-0.652-0.311c0.004,1.146-0.012,2.301-0.041,3.466c-0.033,1.164-0.08,2.32-0.146,3.467l0.17,4.689
			c-0.381,0.106-0.676,0.202-0.885,0.289c-0.207,0.088-0.408,0.141-0.598,0.159c-0.191,0.018-0.4,0.009-0.627-0.024
			c-0.227-0.034-0.514-0.12-0.859-0.258c-0.07-0.035-0.27-0.104-0.602-0.206c-0.33-0.104-0.512-0.174-0.547-0.207
			c-0.105-0.104-0.158-0.296-0.158-0.573l-0.068-22.099c-0.002-0.659-0.004-1.198-0.006-1.615c0-0.417-0.012-0.808-0.029-1.173
			c-0.02-0.364-0.027-0.756-0.029-1.173s-0.002-0.955-0.006-1.615c0-0.382-0.027-0.834-0.082-1.355
			c-0.053-0.52-0.064-0.971-0.029-1.354c0.104-0.035,0.303-0.097,0.598-0.185s0.66-0.167,1.094-0.238
			c0.434-0.07,0.93-0.125,1.484-0.161c0.557-0.035,1.129-0.021,1.721,0.047c0.002,0.417-0.016,0.747-0.049,0.99
			s-0.059,0.469-0.076,0.678c-0.018,0.208-0.016,0.435,0.002,0.678S346.756,41.865,346.861,42.247z M346.641,54.965
			c1.043,0.553,2.225,0.654,3.545,0.302c0.971-0.246,1.918-0.554,2.838-0.921c0.918-0.368,1.734-0.83,2.445-1.389
			c0.709-0.558,1.281-1.245,1.713-2.064c0.432-0.816,0.646-1.817,0.643-2.999c-0.004-1.25-0.441-2.179-1.312-2.784
			c-0.869-0.604-1.887-0.958-3.051-1.059c-1.166-0.101-2.338,0.033-3.518,0.401c-1.18,0.369-2.082,0.885-2.705,1.547
			c-0.242,0.243-0.414,0.782-0.516,1.616c-0.102,0.835-0.17,1.739-0.201,2.711c-0.031,0.974-0.029,1.902,0.01,2.789
			C346.566,54.001,346.604,54.618,346.641,54.965z"/>
	</g>
	<g enable-background="new    ">
		<path fill="#057289" d="M381.626,42.244c-0.278,0.036-0.539,0.045-0.782,0.028s-0.486-0.024-0.729-0.024
			c-0.07-0.033-0.201-0.051-0.393-0.05c-0.191,0-0.32,0.019-0.39,0.053c-0.938,0.246-1.806,0.631-2.603,1.154
			c-0.799,0.524-1.518,1.126-2.157,1.805c-0.642,0.68-1.204,1.395-1.688,2.142c-0.484,0.75-0.882,1.454-1.192,2.115
			c0.002,0.591,0.013,1.373,0.033,2.346s0.033,1.972,0.035,2.996c0.004,1.025-0.012,1.999-0.043,2.919
			c-0.031,0.921-0.1,1.643-0.201,2.164c-0.068,0.312-0.303,0.531-0.701,0.653c-0.4,0.122-0.843,0.193-1.329,0.212
			c-0.487,0.02-0.974,0.012-1.46-0.021c-0.486-0.033-0.852-0.067-1.094-0.101c-0.011-3.37,0.005-6.715,0.047-10.034
			c0.042-3.317,0.057-6.662,0.047-10.032c-0.002-0.382,0.015-0.773,0.049-1.173c0.033-0.399,0.066-0.808,0.1-1.225
			c0.313-0.001,0.695-0.037,1.146-0.108s0.816-0.072,1.095-0.004c0.417,0.104,0.791,0.285,1.122,0.544
			c0.33,0.26,0.654,0.685,0.969,1.274c0.105,0.451,0.158,0.92,0.16,1.406c0.002,0.487,0.021,0.956,0.057,1.407h0.052
			c0.485-0.453,0.995-0.958,1.533-1.517c0.536-0.558,1.187-1.055,1.95-1.491c0.762-0.437,1.666-0.761,2.707-0.973
			s2.31-0.197,3.805,0.04c0.174,0.14,0.279,0.373,0.314,0.703s0.028,0.677-0.022,1.042s-0.12,0.714-0.206,1.043
			C381.771,41.87,381.695,42.104,381.626,42.244z"/>
	</g>
	<g enable-background="new    ">
		<path fill="#057289" d="M394.016,37.88c1.043-0.073,2.111-0.007,3.207,0.199c1.095,0.204,2.094,0.618,3,1.241
			c1.496,1.003,2.631,2.251,3.399,3.741c0.769,1.492,1.19,3.046,1.265,4.661s-0.154,3.232-0.688,4.85
			c-0.535,1.617-1.329,3.053-2.385,4.307c-1.057,1.255-2.355,2.258-3.899,3.01c-1.544,0.751-3.289,1.078-5.235,0.979
			c-0.799-0.032-1.582-0.187-2.346-0.461c-1.601-0.551-2.932-1.32-3.994-2.308c-1.064-0.986-1.875-2.113-2.435-3.38
			c-0.56-1.266-0.868-2.604-0.925-4.011c-0.057-1.406,0.13-2.789,0.561-4.145c0.43-1.356,1.095-2.626,1.994-3.811
			c0.9-1.185,2.043-2.196,3.432-3.034c0.381-0.243,0.807-0.498,1.273-0.76c0.469-0.262,0.945-0.479,1.432-0.656
			c0.382-0.14,0.781-0.236,1.198-0.29S393.669,37.916,394.016,37.88z M400.406,47.867c-0.004-1.111-0.25-2.093-0.739-2.942
			c-0.489-0.851-1.125-1.517-1.909-2.001c-0.783-0.484-1.662-0.776-2.635-0.878s-1.928,0.041-2.865,0.426
			c-0.937,0.386-1.803,1.014-2.6,1.885s-1.419,2.037-1.865,3.498c-0.104,0.348-0.207,0.687-0.31,1.018
			c-0.104,0.33-0.155,0.669-0.153,1.016c0.002,0.695,0.057,1.382,0.163,2.059s0.333,1.312,0.683,1.899
			c0.629,1.076,1.613,1.76,2.951,2.05c1.339,0.292,2.702,0.184,4.091-0.325c1.388-0.507,2.602-1.406,3.64-2.694
			C399.896,51.587,400.412,49.918,400.406,47.867z"/>
		<path fill="#057289" d="M401.204,70.275c0.14-0.035,0.356-0.079,0.651-0.132c0.295-0.054,0.6-0.106,0.912-0.159
			c0.312-0.054,0.59-0.099,0.833-0.133c0.243-0.036,0.399-0.037,0.47-0.002c0.208,0.033,0.365,0.189,0.471,0.468
			c0.104,0.277,0.209,0.503,0.314,0.677c0,0.382,0.176,0.625,0.522,0.728c0.349,0.104,0.739,0.129,1.173,0.074
			c0.435-0.053,0.868-0.149,1.303-0.29c0.434-0.141,0.754-0.263,0.963-0.368c0.45-0.244,0.832-0.576,1.145-0.994
			c0.311-0.418,0.561-0.879,0.75-1.383c0.189-0.505,0.336-1.009,0.438-1.513c0.103-0.505,0.188-1,0.257-1.486
			c0.372-2.954,0.537-5.935,0.493-8.94c-0.044-3.005-0.071-5.984-0.08-8.938c-0.003-0.903,0.003-1.702,0.019-2.397
			s0.004-1.441-0.033-2.241c0-0.313,0.023-0.738,0.074-1.277c0.051-0.538,0.076-0.912,0.075-1.12
			c0.104-0.001,0.261-0.01,0.469-0.028c0.208-0.017,0.435-0.035,0.677-0.054c0.243-0.019,0.461-0.035,0.652-0.055
			c0.19-0.017,0.338-0.009,0.443,0.025c0.346,0.034,0.694,0.103,1.043,0.204c0.347,0.104,0.66,0.173,0.938,0.206
			c0.245,0.904,0.345,1.894,0.296,2.971s-0.09,2.085-0.121,3.022c-0.029,1.843-0.041,3.657-0.035,5.447
			c0.005,1.789-0.023,3.604-0.088,5.446c-0.03,1.355-0.052,2.789-0.064,4.301c-0.014,1.511-0.147,2.979-0.403,4.404
			c-0.257,1.426-0.678,2.791-1.265,4.096s-1.47,2.429-2.647,3.369c-0.728,0.594-1.413,0.986-2.055,1.18
			c-0.644,0.192-1.415,0.326-2.318,0.397c-0.695,0.037-1.337,0.048-1.929,0.033c-0.59-0.017-1.137-0.11-1.643-0.282
			c-0.504-0.173-0.973-0.475-1.41-0.908c-0.435-0.433-0.828-1.048-1.178-1.846c-0.244-0.556-0.402-0.989-0.473-1.302
			S400.893,70.763,401.204,70.275z M415.311,30.986c0.661,0.346,1.105,0.813,1.334,1.403c0.228,0.59,0.272,1.189,0.136,1.797
			c-0.137,0.609-0.422,1.148-0.854,1.619c-0.434,0.471-0.98,0.758-1.64,0.864c-0.938,0.143-1.694-0.021-2.269-0.487
			c-0.574-0.468-0.924-1.039-1.048-1.717s-0.022-1.372,0.307-2.086c0.327-0.713,0.942-1.262,1.845-1.647
			c0.486-0.21,0.902-0.255,1.251-0.134C414.719,30.72,415.032,30.849,415.311,30.986z"/>
	</g>
	<g enable-background="new    ">
		<path fill="#057289" d="M441.506,57.955c-0.139,0.139-0.346,0.331-0.623,0.575c-0.278,0.244-0.504,0.418-0.676,0.522
			c-1.943,1.188-3.99,1.933-6.144,2.234c-2.153,0.301-4.152,0.117-5.995-0.555c-1.845-0.672-3.368-1.857-4.572-3.556
			c-1.203-1.698-1.811-3.955-1.818-6.77c-0.005-1.529,0.252-2.972,0.768-4.329c0.518-1.356,1.243-2.627,2.178-3.812
			c0.934-1.184,2.104-2.169,3.509-2.955s2.854-1.26,4.348-1.421c1.493-0.161,2.927,0.026,4.302,0.561
			c1.373,0.534,2.514,1.513,3.423,2.934c0.349,0.556,0.629,1.153,0.839,1.795c0.211,0.643,0.334,1.294,0.371,1.954
			c0.035,0.348,0.072,0.729,0.107,1.146s0.02,0.8-0.048,1.146c-0.172,0.765-0.378,1.479-0.619,2.139
			c-0.104,0.278-0.415,0.515-0.936,0.707s-1.094,0.342-1.719,0.447c-0.626,0.106-1.233,0.187-1.823,0.24
			c-0.592,0.055-1.008,0.1-1.25,0.135c-1.391,0.143-2.771,0.243-4.143,0.299c-1.373,0.057-2.755,0.105-4.144,0.144l-0.312,0.209
			c-0.104,0.384-0.103,0.766,0.003,1.146c0.106,0.904,0.439,1.633,0.997,2.187c0.557,0.554,1.202,0.986,1.932,1.297
			c0.73,0.311,1.514,0.525,2.348,0.645s1.599,0.177,2.295,0.175c0.555-0.07,1.049-0.159,1.484-0.265
			c0.434-0.105,0.875-0.289,1.327-0.552c0.45-0.262,0.944-0.629,1.481-1.099c0.537-0.471,1.187-1.106,1.949-1.909
			c0.068-0.034,0.225,0.104,0.47,0.416c0.243,0.312,0.497,0.668,0.759,1.066c0.262,0.399,0.506,0.78,0.733,1.144
			c0.228,0.364,0.358,0.582,0.394,0.65c-0.07,0.209-0.242,0.444-0.52,0.706S441.68,57.815,441.506,57.955z M437.408,47.439
			c0.139-0.105,0.233-0.243,0.285-0.418c0.052-0.174,0.077-0.347,0.076-0.521c0.068-0.452,0.031-0.981-0.108-1.589
			c-0.142-0.607-0.334-1.103-0.578-1.483c-0.664-1.11-1.552-1.768-2.664-1.973s-2.233-0.072-3.36,0.401
			c-1.129,0.472-2.125,1.214-2.99,2.224c-0.865,1.011-1.366,2.194-1.5,3.549c0.174,0.209,0.4,0.347,0.679,0.415
			c0.069,0.035,0.347,0.043,0.834,0.023c0.485-0.019,1.085-0.046,1.798-0.083c0.711-0.037,1.484-0.083,2.318-0.139
			c0.834-0.054,1.615-0.1,2.346-0.137c0.729-0.037,1.362-0.083,1.901-0.137C436.982,47.519,437.305,47.475,437.408,47.439z"/>
	</g>
	<g enable-background="new    ">
		<path fill="#057289" d="M461.106,42.467c-0.383,0.105-1.259,0.187-2.632,0.242c-1.372,0.058-2.892,0.105-4.56,0.146
			c-0.03,1.425-0.052,2.832-0.065,4.222s-0.052,2.866-0.116,4.43c-0.032,0.938,0.136,1.703,0.503,2.292
			c0.365,0.591,0.984,1.127,1.854,1.61c0.382,0.207,0.896,0.345,1.539,0.412c0.643,0.068,1.206-0.16,1.691-0.683
			c0.45-0.244,0.876-0.333,1.276-0.265c0.398,0.068,0.756,0.224,1.07,0.466c0.312,0.242,0.565,0.502,0.758,0.779
			c0.191,0.277,0.305,0.503,0.341,0.677c-0.415,0.835-0.812,1.47-1.192,1.906c-0.382,0.436-0.779,0.749-1.196,0.941
			s-0.877,0.298-1.38,0.317c-0.504,0.019-1.087,0.028-1.746,0.03c-0.938-0.031-1.713-0.124-2.32-0.278
			c-0.609-0.154-1.262-0.509-1.958-1.062c-1.149-0.936-1.985-1.826-2.511-2.677c-0.523-0.85-0.883-1.733-1.076-2.655
			c-0.193-0.919-0.266-1.918-0.218-2.995c0.05-1.077,0.105-2.295,0.171-3.649c0.033-0.591,0.057-1.199,0.073-1.824
			c0.015-0.626,0.022-1.268,0.02-1.929c-0.799,0.037-1.52,0.058-2.162,0.06c-0.644,0.002-1.12,0.003-1.434,0.004
			c-0.384-0.38-0.594-0.885-0.63-1.51c-0.037-0.626-0.022-1.39,0.045-2.293c0.172-0.243,0.702-0.419,1.588-0.526
			s1.797-0.162,2.736-0.165c0.032-0.591,0.057-1.181,0.072-1.772c0.016-0.59,0.039-1.163,0.072-1.72
			c0.031-0.938,0.047-1.937,0.043-2.997c-0.003-1.06,0.133-2.041,0.408-2.946c0.277-0.069,0.59-0.157,0.938-0.264
			c0.346-0.105,0.693-0.192,1.041-0.264c0.209-0.07,0.582-0.08,1.121-0.028c0.538,0.05,0.912,0.075,1.12,0.074
			c0.001,0.174,0.019,0.53,0.056,1.068c0.036,0.539,0.037,0.964,0.004,1.276c-0.067,0.8-0.108,1.547-0.123,2.241
			c-0.016,0.695-0.057,1.494-0.123,2.398c-0.033,0.487-0.059,0.964-0.074,1.434c-0.016,0.469-0.041,0.947-0.073,1.433
			c1.112-0.071,2.31-0.11,3.596-0.114c1.285-0.004,2.38,0.062,3.284,0.197c0.139,0.14,0.236,0.417,0.289,0.833
			c0.054,0.417,0.081,0.852,0.082,1.303c0.002,0.452-0.023,0.86-0.074,1.226S461.141,42.433,461.106,42.467z"/>
	</g>
	<g enable-background="new    ">
		<path fill="#057289" d="M475.633,37.627c1.042-0.073,2.11-0.007,3.205,0.199c1.096,0.204,2.096,0.618,3.002,1.241
			c1.496,1.003,2.629,2.251,3.398,3.741c0.769,1.492,1.19,3.046,1.266,4.661c0.074,1.615-0.155,3.232-0.688,4.85
			c-0.534,1.617-1.329,3.053-2.384,4.307c-1.057,1.255-2.357,2.258-3.9,3.01c-1.544,0.751-3.289,1.078-5.234,0.979
			c-0.801-0.032-1.582-0.187-2.348-0.461c-1.6-0.551-2.932-1.32-3.994-2.308c-1.062-0.986-1.875-2.113-2.434-3.38
			c-0.561-1.266-0.867-2.604-0.924-4.011c-0.057-1.406,0.129-2.789,0.56-4.145c0.431-1.356,1.095-2.626,1.995-3.811
			c0.899-1.185,2.043-2.196,3.43-3.034c0.381-0.243,0.807-0.498,1.275-0.76c0.468-0.262,0.944-0.479,1.432-0.656
			c0.381-0.14,0.781-0.236,1.197-0.29S475.285,37.663,475.633,37.627z M482.021,47.614c-0.003-1.111-0.25-2.093-0.738-2.942
			c-0.49-0.851-1.125-1.517-1.908-2.001s-1.662-0.776-2.635-0.878c-0.975-0.102-1.929,0.041-2.865,0.426
			c-0.938,0.386-1.805,1.014-2.601,1.885c-0.797,0.871-1.419,2.037-1.865,3.498c-0.103,0.348-0.206,0.687-0.31,1.018
			c-0.104,0.33-0.154,0.669-0.154,1.016c0.003,0.695,0.057,1.382,0.164,2.059c0.105,0.677,0.334,1.312,0.684,1.899
			c0.628,1.076,1.611,1.76,2.951,2.05c1.338,0.292,2.701,0.184,4.09-0.325c1.388-0.507,2.602-1.406,3.641-2.694
			C481.513,51.334,482.028,49.665,482.021,47.614z"/>
		<path fill="#057289" d="M523.333,58.64c-0.173,0.104-0.382,0.184-0.624,0.236c-0.243,0.053-0.452,0.114-0.625,0.184
			c-0.833,0.212-1.441,0.336-1.823,0.371c-0.383,0.037-0.644-0.041-0.782-0.231c-0.14-0.19-0.21-0.504-0.211-0.938
			c-0.002-0.434-0.039-0.997-0.11-1.692c-0.312,0.244-0.589,0.453-0.831,0.627c-0.243,0.175-0.478,0.333-0.702,0.472
			c-0.227,0.14-0.469,0.271-0.729,0.394c-0.26,0.123-0.563,0.254-0.91,0.394c-0.14,0.07-0.33,0.131-0.573,0.185
			c-0.243,0.052-0.494,0.114-0.755,0.184c-0.26,0.071-0.521,0.133-0.781,0.186c-0.26,0.053-0.461,0.098-0.599,0.132
			c-0.591,0.176-1.172,0.229-1.746,0.162c-0.573-0.067-1.155-0.17-1.747-0.307c-1.981-0.48-3.47-1.396-4.464-2.749
			c-0.995-1.353-1.573-2.879-1.734-4.582c-0.161-1.7,0.076-3.422,0.714-5.161c0.637-1.739,1.613-3.254,2.931-4.544
			c1.107-1.046,2.33-1.892,3.666-2.539c1.336-0.646,2.786-0.973,4.35-0.978c0.242-0.001,0.529-0.002,0.859-0.003
			s0.6,0.033,0.808,0.103c0.487,0.102,0.861,0.197,1.122,0.282c0.261,0.086,0.635,0.216,1.122,0.388
			c0.171-0.8,0.221-1.607,0.148-2.424s-0.092-1.624-0.06-2.424c0.031-1.146,0.045-2.319,0.041-3.518
			c-0.004-1.199,0.079-2.354,0.25-3.467c0.068-0.382,0.11-0.738,0.127-1.068s-0.011-0.687-0.081-1.069l2.084-0.058l1.251-0.004
			c0.139,0,0.277,0.017,0.417,0.05c0.14,0.626,0.231,1.711,0.271,3.257c0.039,1.547,0.044,3.214,0.016,5.004
			c-0.03,1.789-0.06,3.511-0.089,5.16c-0.03,1.65-0.043,2.893-0.04,3.727c0.004,1.321,0.033,2.667,0.091,4.039
			c0.056,1.372,0.104,2.762,0.143,4.169c0.038,1.407,0.035,2.788-0.014,4.144C523.664,56.084,523.538,57.388,523.333,58.64z
			 M518.856,43.278c-0.453-0.312-0.914-0.501-1.384-0.569c-0.469-0.068-0.965-0.083-1.485-0.047
			c-0.973,0.073-1.92,0.284-2.838,0.634c-0.921,0.351-1.753,0.839-2.498,1.468c-0.745,0.627-1.351,1.367-1.817,2.22
			c-0.466,0.854-0.732,1.784-0.799,2.791c-0.068,0.592-0.049,1.139,0.058,1.642c0.105,0.504,0.332,0.998,0.682,1.483
			c0.593,0.832,1.377,1.333,2.351,1.504c0.347,0.069,0.912,0.084,1.693,0.047c0.782-0.037,1.598-0.143,2.448-0.32
			c0.851-0.176,1.615-0.438,2.291-0.788c0.677-0.35,1.083-0.786,1.221-1.308c0.104-0.451,0.196-1.061,0.281-1.825
			c0.084-0.764,0.134-1.571,0.148-2.423c0.015-0.853-0.005-1.676-0.06-2.476C519.094,44.512,518.996,43.834,518.856,43.278z"/>
		<path fill="#057289" d="M547.878,57.626c-0.139,0.139-0.347,0.331-0.624,0.575c-0.277,0.243-0.502,0.418-0.675,0.522
			c-1.942,1.188-3.99,1.932-6.144,2.234c-2.153,0.301-4.152,0.116-5.995-0.555c-1.845-0.672-3.368-1.857-4.571-3.556
			c-1.205-1.698-1.812-3.956-1.82-6.771c-0.005-1.529,0.252-2.971,0.769-4.328c0.518-1.357,1.243-2.627,2.178-3.812
			c0.935-1.184,2.104-2.17,3.509-2.955c1.405-0.787,2.854-1.26,4.348-1.421c1.493-0.161,2.927,0.026,4.301,0.56
			c1.374,0.535,2.515,1.513,3.424,2.935c0.349,0.555,0.628,1.153,0.839,1.795c0.211,0.643,0.335,1.294,0.371,1.954
			c0.035,0.348,0.071,0.729,0.107,1.146c0.036,0.417,0.021,0.8-0.048,1.147c-0.173,0.765-0.378,1.479-0.619,2.139
			c-0.103,0.278-0.416,0.515-0.936,0.707c-0.521,0.192-1.094,0.342-1.719,0.447c-0.625,0.106-1.233,0.187-1.823,0.24
			c-0.592,0.055-1.009,0.1-1.25,0.135c-1.391,0.143-2.771,0.243-4.144,0.299c-1.372,0.057-2.753,0.105-4.143,0.144l-0.312,0.209
			c-0.104,0.383-0.103,0.765,0.003,1.146c0.107,0.904,0.438,1.633,0.997,2.187c0.558,0.554,1.201,0.986,1.932,1.297
			c0.731,0.311,1.514,0.525,2.348,0.644c0.835,0.12,1.599,0.178,2.294,0.176c0.556-0.071,1.05-0.159,1.484-0.266
			c0.435-0.104,0.877-0.288,1.327-0.551c0.451-0.262,0.944-0.629,1.482-1.1c0.537-0.47,1.187-1.105,1.949-1.908
			c0.069-0.034,0.226,0.104,0.47,0.416s0.497,0.668,0.76,1.065c0.262,0.4,0.505,0.781,0.732,1.145
			c0.227,0.364,0.357,0.582,0.393,0.65c-0.068,0.209-0.241,0.444-0.519,0.705C548.275,57.285,548.051,57.486,547.878,57.626z
			 M543.78,47.11c0.139-0.105,0.233-0.243,0.286-0.418c0.051-0.175,0.077-0.348,0.076-0.522c0.067-0.451,0.031-0.98-0.109-1.588
			c-0.142-0.607-0.335-1.103-0.578-1.484c-0.663-1.109-1.552-1.768-2.664-1.972c-1.113-0.206-2.233-0.072-3.36,0.401
			c-1.128,0.472-2.125,1.213-2.99,2.224c-0.866,1.011-1.366,2.193-1.501,3.549c0.175,0.208,0.401,0.347,0.68,0.415
			c0.069,0.035,0.347,0.043,0.834,0.023c0.486-0.019,1.085-0.046,1.798-0.084c0.711-0.036,1.484-0.082,2.318-0.138
			c0.834-0.055,1.616-0.1,2.346-0.137s1.363-0.083,1.901-0.137S543.676,47.146,543.78,47.11z"/>
	</g>
	<g enable-background="new    ">
		<path fill="#057289" d="M44.811,104.629c-0.14,0.139-0.348,0.33-0.625,0.573c-0.279,0.243-0.504,0.417-0.678,0.521
			c-1.946,1.182-3.996,1.92-6.15,2.216c-2.155,0.294-4.152,0.104-5.994-0.573c-1.842-0.678-3.362-1.868-4.561-3.57
			s-1.798-3.961-1.798-6.775c0-1.529,0.261-2.971,0.782-4.326s1.251-2.623,2.189-3.805c0.938-1.181,2.111-2.163,3.518-2.944
			c1.407-0.782,2.857-1.251,4.352-1.407c1.493-0.156,2.927,0.035,4.3,0.573c1.372,0.539,2.51,1.521,3.414,2.944
			c0.347,0.557,0.625,1.155,0.834,1.798c0.208,0.644,0.33,1.295,0.365,1.955c0.034,0.348,0.069,0.729,0.104,1.146
			c0.034,0.417,0.017,0.8-0.052,1.146c-0.174,0.765-0.383,1.478-0.625,2.137c-0.104,0.278-0.417,0.514-0.938,0.704
			c-0.521,0.191-1.095,0.339-1.72,0.442c-0.625,0.104-1.234,0.183-1.824,0.234c-0.591,0.053-1.008,0.097-1.25,0.131
			c-1.39,0.139-2.771,0.234-4.144,0.286c-1.373,0.053-2.754,0.097-4.144,0.131l-0.312,0.208c-0.104,0.383-0.104,0.765,0,1.146
			c0.104,0.904,0.434,1.634,0.99,2.189c0.555,0.556,1.199,0.99,1.928,1.303s1.511,0.53,2.345,0.651
			c0.834,0.122,1.598,0.183,2.293,0.183c0.555-0.069,1.05-0.156,1.485-0.261c0.434-0.104,0.877-0.286,1.329-0.547
			c0.451-0.261,0.946-0.626,1.485-1.095c0.538-0.469,1.189-1.103,1.954-1.902c0.069-0.034,0.226,0.104,0.469,0.417
			c0.243,0.312,0.495,0.67,0.756,1.068c0.26,0.4,0.503,0.782,0.729,1.146c0.226,0.365,0.356,0.583,0.391,0.651
			c-0.07,0.209-0.244,0.443-0.521,0.704C45.209,104.29,44.984,104.49,44.811,104.629z M40.745,94.101
			c0.139-0.104,0.234-0.242,0.287-0.417c0.052-0.174,0.078-0.347,0.078-0.521c0.069-0.451,0.034-0.98-0.104-1.589
			c-0.139-0.607-0.331-1.104-0.573-1.485c-0.661-1.112-1.547-1.772-2.658-1.98c-1.112-0.209-2.233-0.079-3.362,0.391
			c-1.129,0.469-2.128,1.207-2.997,2.215c-0.869,1.008-1.373,2.189-1.512,3.544c0.174,0.209,0.399,0.348,0.678,0.417
			c0.069,0.035,0.347,0.044,0.834,0.026c0.486-0.018,1.085-0.043,1.798-0.078c0.712-0.034,1.485-0.078,2.319-0.131
			c0.834-0.052,1.616-0.095,2.345-0.13c0.73-0.034,1.363-0.078,1.902-0.131C40.319,94.179,40.641,94.136,40.745,94.101z"/>
	</g>
	<g enable-background="new    ">
		<path fill="#057289" d="M68.679,105.566c-0.174,0.104-0.382,0.183-0.625,0.234c-0.244,0.053-0.452,0.113-0.625,0.183
			c-0.834,0.209-1.442,0.331-1.824,0.365c-0.383,0.035-0.644-0.043-0.782-0.234c-0.139-0.19-0.208-0.504-0.208-0.938
			c0-0.434-0.035-0.998-0.104-1.693c-0.312,0.243-0.591,0.451-0.833,0.625c-0.244,0.174-0.478,0.331-0.704,0.469
			c-0.227,0.14-0.469,0.27-0.73,0.392c-0.26,0.122-0.565,0.252-0.912,0.391c-0.139,0.07-0.331,0.13-0.573,0.183
			c-0.244,0.052-0.495,0.113-0.756,0.182c-0.26,0.07-0.521,0.131-0.782,0.183c-0.26,0.053-0.461,0.097-0.599,0.131
			c-0.591,0.174-1.173,0.226-1.746,0.156s-1.155-0.174-1.746-0.312c-1.98-0.486-3.466-1.407-4.456-2.763s-1.563-2.884-1.72-4.587
			c-0.156-1.701,0.086-3.422,0.729-5.159c0.643-1.737,1.624-3.249,2.945-4.534c1.111-1.043,2.336-1.885,3.674-2.528
			c1.337-0.643,2.789-0.964,4.352-0.964c0.243,0,0.529,0,0.86,0c0.33,0,0.599,0.035,0.808,0.104c0.486,0.104,0.86,0.2,1.121,0.286
			c0.261,0.087,0.634,0.218,1.121,0.391c0.173-0.799,0.226-1.606,0.156-2.423c-0.07-0.816-0.087-1.624-0.052-2.424
			c0.034-1.146,0.052-2.319,0.052-3.518c0-1.199,0.086-2.354,0.261-3.466c0.069-0.382,0.112-0.738,0.13-1.068
			c0.017-0.33-0.009-0.687-0.078-1.069l2.084-0.052h1.251c0.139,0,0.278,0.018,0.417,0.052c0.138,0.626,0.226,1.712,0.261,3.258
			c0.034,1.547,0.034,3.214,0,5.004c-0.035,1.789-0.07,3.51-0.104,5.159c-0.035,1.65-0.052,2.893-0.052,3.727
			c0,1.321,0.026,2.667,0.079,4.039c0.052,1.373,0.095,2.763,0.13,4.17c0.034,1.407,0.026,2.788-0.026,4.144
			C69.018,103.013,68.888,104.315,68.679,105.566z M64.25,90.191c-0.452-0.312-0.912-0.503-1.381-0.573
			c-0.469-0.069-0.964-0.086-1.485-0.052c-0.973,0.07-1.92,0.278-2.84,0.625c-0.921,0.348-1.755,0.834-2.502,1.46
			c-0.748,0.625-1.355,1.363-1.824,2.215c-0.469,0.852-0.738,1.781-0.808,2.788c-0.07,0.592-0.052,1.139,0.052,1.642
			c0.104,0.504,0.33,0.999,0.677,1.485c0.59,0.834,1.373,1.338,2.346,1.512c0.347,0.07,0.912,0.087,1.694,0.052
			c0.782-0.034,1.598-0.138,2.449-0.312c0.851-0.173,1.616-0.434,2.293-0.781c0.677-0.348,1.085-0.782,1.225-1.304
			c0.104-0.451,0.2-1.06,0.287-1.824c0.086-0.764,0.139-1.571,0.156-2.423c0.017-0.852,0-1.676-0.052-2.476
			C64.484,91.426,64.388,90.748,64.25,90.191z"/>
		<path fill="#057289" d="M75.61,85.918c0.208-0.034,0.443-0.061,0.704-0.078s0.495-0.061,0.704-0.13
			c0.486-0.174,0.946-0.217,1.381-0.131c0.434,0.087,0.842,0.218,1.225,0.391c-0.07,1.251-0.156,2.502-0.261,3.753
			c-0.104,1.251-0.208,2.484-0.312,3.7c-0.07,0.729-0.096,1.494-0.078,2.293c0.017,0.8,0.078,1.564,0.182,2.294
			c0.139,1.146,0.417,2.024,0.834,2.632c0.417,0.608,0.912,1.008,1.485,1.198c0.573,0.191,1.181,0.209,1.824,0.053
			c0.643-0.156,1.251-0.426,1.824-0.808c0.573-0.383,1.068-0.852,1.485-1.407s0.711-1.147,0.886-1.772
			c0.486-1.772,0.764-3.552,0.834-5.342c0.069-1.789,0.139-3.57,0.208-5.343V85.97c0.278,0,0.625-0.017,1.042-0.052
			c0.417-0.034,0.834-0.043,1.251-0.026c0.417,0.019,0.799,0.088,1.146,0.209c0.347,0.122,0.573,0.339,0.678,0.651
			c0,0.278-0.009,0.93-0.026,1.954c-0.018,1.025-0.044,2.233-0.078,3.622c-0.035,1.391-0.07,2.858-0.104,4.404
			c-0.035,1.547-0.079,2.989-0.13,4.326c-0.052,1.338-0.122,2.458-0.208,3.361c-0.087,0.904-0.183,1.407-0.287,1.512
			c-0.139,0.104-0.443,0.165-0.912,0.183c-0.469,0.018-0.808,0.044-1.017,0.078c-0.174,0.139-0.391,0.174-0.651,0.104
			c-0.261-0.068-0.495-0.104-0.704-0.104c-0.278-1.043-0.417-2.154-0.417-3.336c-0.938,1.008-2.016,1.868-3.231,2.58
			c-1.216,0.713-2.423,1.139-3.622,1.276c-1.199,0.14-2.328-0.095-3.388-0.703c-1.06-0.607-1.902-1.746-2.528-3.414
			s-0.93-3.396-0.912-5.186c0.017-1.789,0.061-3.57,0.13-5.342c0-0.348,0.026-0.809,0.078-1.382
			c0.052-0.573,0.112-1.154,0.183-1.746c0.069-0.59,0.173-1.163,0.312-1.72C75.28,86.666,75.436,86.23,75.61,85.918z"/>
		<path fill="#057289" d="M111.832,105.932c-2.188,1.146-4.214,1.737-6.071,1.771c-1.859,0.034-3.458-0.312-4.795-1.042
			c-1.338-0.729-2.39-1.754-3.153-3.075c-0.765-1.32-1.19-2.771-1.277-4.352c-0.087-1.581,0.226-3.205,0.938-4.873
			c0.712-1.668,1.867-3.214,3.466-4.639c2.64-2.327,5.75-3.544,9.329-3.648c0.695-0.034,1.382-0.008,2.059,0.078
			c0.678,0.087,1.329,0.287,1.955,0.6c0.208,0.312,0.329,0.608,0.364,0.886c0.034,0.278,0.034,0.557,0,0.834
			c-0.035,0.278-0.104,0.573-0.208,0.886c-0.104,0.313-0.175,0.644-0.209,0.99c-0.104,0.417-0.278,0.67-0.521,0.756
			c-0.244,0.087-0.521,0.104-0.834,0.053c-0.312-0.053-0.635-0.131-0.965-0.235c-0.33-0.104-0.634-0.121-0.912-0.052
			c-0.278-0.104-0.695-0.121-1.25-0.052c-0.557,0.069-0.974,0.035-1.251-0.104c-1.321,0.174-2.485,0.6-3.492,1.277
			c-1.008,0.677-1.824,1.477-2.45,2.397s-1.042,1.902-1.251,2.944s-0.174,1.998,0.104,2.866c0.278,0.869,0.825,1.59,1.642,2.163
			c0.816,0.573,1.919,0.86,3.31,0.86c1.633,0,3.144-0.426,4.535-1.277c1.389-0.851,2.658-1.798,3.805-2.841
			c0.485,0.209,0.877,0.495,1.172,0.86s0.478,0.999,0.548,1.902c-0.104,0.383-0.339,0.782-0.704,1.199
			c-0.364,0.417-0.773,0.808-1.225,1.172c-0.452,0.365-0.921,0.696-1.407,0.99C112.597,105.523,112.18,105.758,111.832,105.932z"/>
		<path fill="#057289" d="M135.547,87.273c0.625,0.903,1.05,1.998,1.276,3.283c0.226,1.286,0.356,2.632,0.392,4.039
			c0.034,1.407,0.008,2.797-0.079,4.17s-0.147,2.579-0.182,3.622l-0.053,0.052c0,0.729-0.025,1.563-0.078,2.502
			c-0.052,0.938-0.078,1.65-0.078,2.137c-0.486,0.034-0.956,0.096-1.407,0.183c-0.452,0.086-0.921,0.13-1.407,0.13
			c-0.174-0.347-0.417-0.625-0.729-0.834c-0.312-0.208-0.487-0.521-0.521-0.938c-0.208,0.069-0.391,0.13-0.547,0.182
			c-0.156,0.053-0.312,0.113-0.469,0.183c-0.156,0.07-0.357,0.14-0.6,0.209c-0.243,0.069-0.557,0.156-0.938,0.261
			c-0.486,0.104-0.964,0.208-1.433,0.312c-0.47,0.104-0.947,0.156-1.434,0.156c-0.07,0-0.104,0.018-0.104,0.052
			c-1.112,0-2.197-0.104-3.257-0.312c-1.061-0.208-2.042-0.712-2.945-1.512c-1.146-0.972-1.72-2.206-1.72-3.7v-0.156v-0.729
			c0-0.938,0.277-1.772,0.834-2.502c0.556-0.729,1.242-1.355,2.059-1.876c0.816-0.521,1.694-0.946,2.632-1.277
			c0.938-0.329,1.807-0.564,2.606-0.703c0.799-0.139,1.624-0.209,2.476-0.209c0.851,0,1.676-0.069,2.476-0.208
			c-0.035-0.556-0.044-1.129-0.026-1.72s-0.061-1.164-0.234-1.721c-0.209-0.764-0.6-1.311-1.173-1.642
			c-0.573-0.329-1.217-0.503-1.929-0.521s-1.425,0.078-2.137,0.286c-0.712,0.209-1.329,0.487-1.85,0.834
			c-0.592,0.383-1.112,0.826-1.563,1.329c-0.452,0.504-0.887,1.017-1.304,1.537c-0.069,0-0.2-0.078-0.391-0.234
			c-0.191-0.156-0.399-0.33-0.625-0.521c-0.227-0.19-0.436-0.372-0.626-0.547c-0.191-0.174-0.321-0.261-0.391-0.261
			c0.625-1.633,1.598-3.005,2.919-4.117c1.319-1.111,2.736-1.858,4.247-2.241c1.512-0.382,3.023-0.347,4.534,0.104
			C133.279,84.807,134.538,85.779,135.547,87.273z M132.628,97.332c-0.14-0.104-0.348-0.147-0.625-0.131
			c-0.279,0.019-0.505-0.008-0.678-0.078c-0.938,0-1.738,0.088-2.397,0.261c-0.66,0.175-1.442,0.417-2.346,0.729
			c-0.07,0.035-0.156,0.062-0.261,0.079c-0.104,0.018-0.191,0.061-0.261,0.13c-0.416,0.174-0.868,0.469-1.354,0.886
			c-0.487,0.417-0.765,0.869-0.834,1.355c0,0.174,0,0.321,0,0.442c0,0.123,0.034,0.27,0.104,0.443
			c0.173,0.487,0.703,0.808,1.589,0.964c0.887,0.157,1.833,0.201,2.841,0.131c1.008-0.069,1.929-0.226,2.763-0.469
			s1.268-0.504,1.303-0.782c0.069-0.591,0.112-1.251,0.13-1.98S132.628,97.923,132.628,97.332z"/>
		<path fill="#057289" d="M158.478,112.603c0.174,0.347,0.287,0.651,0.339,0.912c0.053,0.261,0.061,0.582,0.026,0.964
			c-0.104,0.903-0.461,1.659-1.068,2.268c-0.608,0.607-1.321,1.103-2.137,1.485c-0.817,0.382-1.677,0.651-2.58,0.808
			c-0.904,0.156-1.72,0.234-2.449,0.234c-0.383,0-0.756-0.025-1.121-0.078c-0.364-0.052-0.738-0.096-1.12-0.13
			c-1.217-0.104-2.189-0.278-2.919-0.521s-1.494-0.556-2.293-0.938c0.069-0.383,0.095-0.661,0.078-0.834
			c-0.019-0.175,0.095-0.436,0.339-0.782c0.173-0.174,0.339-0.312,0.495-0.417s0.391-0.191,0.703-0.261
			c0.243,0.104,0.607,0.217,1.095,0.339c0.486,0.122,1.007,0.226,1.563,0.312c0.556,0.087,1.095,0.157,1.615,0.209
			c0.521,0.052,0.921,0.078,1.199,0.078c0.417,0,0.886-0.044,1.407-0.13c0.521-0.088,1.008-0.218,1.459-0.392
			s0.834-0.417,1.146-0.729c0.313-0.312,0.47-0.678,0.47-1.095c0-0.451-0.234-0.808-0.704-1.068
			c-0.469-0.261-1.068-0.442-1.798-0.547s-1.521-0.165-2.371-0.183c-0.853-0.018-1.642-0.009-2.372,0.026
			c0.139-0.487,0.313-1.009,0.521-1.563c0.209-0.557,0.451-1.13,0.729-1.72l0.521-1.147c-1.355-0.104-2.571-0.461-3.648-1.068
			s-1.963-1.389-2.658-2.345c-0.695-0.955-1.19-2.041-1.485-3.258c-0.295-1.216-0.348-2.476-0.156-3.778
			c0.19-1.303,0.634-2.597,1.329-3.883c0.694-1.285,1.685-2.502,2.971-3.648c2.641-2.327,5.75-3.544,9.329-3.648
			c0.695-0.034,1.382-0.008,2.059,0.078c0.678,0.087,1.329,0.287,1.955,0.6c0.208,0.312,0.329,0.608,0.364,0.886
			c0.034,0.278,0.034,0.557,0,0.834c-0.035,0.278-0.104,0.573-0.208,0.886c-0.104,0.313-0.175,0.644-0.209,0.99
			c-0.104,0.417-0.278,0.67-0.521,0.756c-0.244,0.087-0.521,0.104-0.834,0.053c-0.312-0.053-0.635-0.131-0.965-0.235
			c-0.33-0.104-0.634-0.121-0.912-0.052c-0.278-0.104-0.695-0.121-1.25-0.052c-0.557,0.069-0.974,0.035-1.251-0.104
			c-1.321,0.174-2.485,0.6-3.492,1.277c-1.008,0.677-1.824,1.477-2.449,2.397c-0.626,0.921-1.043,1.902-1.251,2.944
			c-0.209,1.042-0.175,1.998,0.104,2.866c0.278,0.869,0.825,1.59,1.643,2.163c0.815,0.573,1.919,0.86,3.31,0.86
			c1.633,0,3.144-0.426,4.534-1.277c1.389-0.851,2.658-1.798,3.805-2.841c0.485,0.209,0.877,0.495,1.172,0.86
			s0.478,0.999,0.548,1.902c-0.104,0.383-0.339,0.782-0.704,1.199c-0.364,0.417-0.773,0.808-1.225,1.172
			c-0.452,0.365-0.921,0.696-1.407,0.99c-0.486,0.296-0.903,0.53-1.251,0.704c-0.556,0.278-1.104,0.521-1.642,0.729
			c-0.539,0.209-1.068,0.399-1.59,0.573l-0.26,0.782c-0.14,0.277-0.261,0.555-0.365,0.834c-0.104,0.277-0.191,0.503-0.261,0.677
			c1.251,0.034,2.432,0.243,3.544,0.626C157.036,110.535,157.887,111.352,158.478,112.603z"/>
		<path fill="#057289" d="M180.212,87.273c0.625,0.903,1.05,1.998,1.276,3.283c0.226,1.286,0.356,2.632,0.392,4.039
			c0.034,1.407,0.008,2.797-0.079,4.17s-0.147,2.579-0.182,3.622l-0.053,0.052c0,0.729-0.025,1.563-0.078,2.502
			c-0.052,0.938-0.078,1.65-0.078,2.137c-0.486,0.034-0.956,0.096-1.407,0.183c-0.452,0.086-0.921,0.13-1.407,0.13
			c-0.174-0.347-0.417-0.625-0.729-0.834c-0.312-0.208-0.487-0.521-0.521-0.938c-0.208,0.069-0.391,0.13-0.547,0.182
			c-0.156,0.053-0.312,0.113-0.469,0.183c-0.156,0.07-0.357,0.14-0.6,0.209c-0.243,0.069-0.557,0.156-0.938,0.261
			c-0.486,0.104-0.964,0.208-1.433,0.312c-0.47,0.104-0.947,0.156-1.434,0.156c-0.07,0-0.104,0.018-0.104,0.052
			c-1.112,0-2.197-0.104-3.257-0.312c-1.061-0.208-2.042-0.712-2.945-1.512c-1.146-0.972-1.72-2.206-1.72-3.7v-0.156v-0.729
			c0-0.938,0.277-1.772,0.834-2.502c0.556-0.729,1.242-1.355,2.059-1.876c0.816-0.521,1.694-0.946,2.632-1.277
			c0.938-0.329,1.807-0.564,2.606-0.703c0.799-0.139,1.624-0.209,2.476-0.209c0.851,0,1.676-0.069,2.476-0.208
			c-0.035-0.556-0.044-1.129-0.026-1.72s-0.061-1.164-0.234-1.721c-0.209-0.764-0.6-1.311-1.173-1.642
			c-0.573-0.329-1.217-0.503-1.929-0.521s-1.425,0.078-2.137,0.286c-0.712,0.209-1.329,0.487-1.85,0.834
			c-0.592,0.383-1.112,0.826-1.563,1.329c-0.452,0.504-0.887,1.017-1.304,1.537c-0.069,0-0.2-0.078-0.391-0.234
			c-0.191-0.156-0.399-0.33-0.625-0.521c-0.227-0.19-0.436-0.372-0.626-0.547c-0.191-0.174-0.321-0.261-0.391-0.261
			c0.625-1.633,1.598-3.005,2.919-4.117c1.319-1.111,2.736-1.858,4.247-2.241c1.512-0.382,3.023-0.347,4.534,0.104
			C177.944,84.807,179.203,85.779,180.212,87.273z M180.837,77.423c0.139,0.208,0.243,0.426,0.312,0.651
			c0.069,0.227,0.139,0.461,0.209,0.703c-0.695,0.938-1.364,1.625-2.007,2.059c-0.644,0.436-1.276,0.687-1.902,0.756
			c-0.625,0.07-1.26,0-1.902-0.208c-0.644-0.209-1.347-0.486-2.11-0.834c-0.313-0.174-0.782-0.373-1.407-0.6
			c-0.626-0.226-1.078-0.355-1.355-0.391c-0.278,0-0.547,0.078-0.808,0.234s-0.504,0.348-0.729,0.573
			c-0.227,0.227-0.426,0.469-0.6,0.729s-0.331,0.461-0.469,0.6c-0.696-0.208-1.251-0.521-1.668-0.938s-0.521-0.886-0.312-1.407
			c0.659-0.833,1.284-1.485,1.876-1.954c0.59-0.469,1.198-0.764,1.824-0.886c0.625-0.121,1.303-0.087,2.032,0.104
			s1.563,0.513,2.502,0.964c0.242,0.139,0.643,0.339,1.198,0.6c0.556,0.26,0.973,0.391,1.251,0.391c0.486,0,0.921-0.199,1.304-0.6
			c0.382-0.398,0.764-0.842,1.146-1.329c0.486,0.07,0.842,0.166,1.068,0.287C180.516,77.05,180.698,77.214,180.837,77.423z
			 M177.293,97.332c-0.14-0.104-0.348-0.147-0.625-0.131c-0.279,0.019-0.505-0.008-0.678-0.078c-0.938,0-1.738,0.088-2.397,0.261
			c-0.66,0.175-1.442,0.417-2.346,0.729c-0.07,0.035-0.156,0.062-0.261,0.079c-0.104,0.018-0.191,0.061-0.261,0.13
			c-0.416,0.174-0.868,0.469-1.354,0.886c-0.487,0.417-0.765,0.869-0.834,1.355c0,0.174,0,0.321,0,0.442
			c0,0.123,0.034,0.27,0.104,0.443c0.173,0.487,0.703,0.808,1.589,0.964c0.887,0.157,1.833,0.201,2.841,0.131
			c1.008-0.069,1.929-0.226,2.763-0.469s1.268-0.504,1.303-0.782c0.069-0.591,0.112-1.251,0.13-1.98S177.293,97.923,177.293,97.332z
			"/>
		<path fill="#057289" d="M196.941,84.406c1.043-0.069,2.111,0,3.206,0.209c1.094,0.208,2.093,0.625,2.996,1.251
			c1.494,1.008,2.623,2.259,3.388,3.752c0.765,1.494,1.182,3.049,1.251,4.665c0.069,1.615-0.165,3.231-0.703,4.847
			c-0.539,1.616-1.338,3.049-2.397,4.3c-1.061,1.251-2.363,2.25-3.909,2.997c-1.547,0.747-3.292,1.068-5.238,0.964
			c-0.799-0.035-1.581-0.191-2.345-0.469c-1.599-0.556-2.928-1.329-3.987-2.319c-1.061-0.99-1.868-2.119-2.424-3.388
			c-0.556-1.268-0.859-2.606-0.912-4.014c-0.052-1.406,0.139-2.788,0.573-4.143c0.435-1.355,1.104-2.623,2.007-3.805
			s2.05-2.189,3.44-3.023c0.382-0.242,0.808-0.495,1.276-0.756c0.469-0.26,0.946-0.477,1.434-0.651
			c0.382-0.139,0.781-0.234,1.198-0.286C196.212,84.484,196.594,84.441,196.941,84.406z M203.3,94.413
			c0-1.111-0.243-2.093-0.729-2.944s-1.12-1.52-1.902-2.007c-0.781-0.486-1.659-0.781-2.632-0.886s-1.929,0.035-2.866,0.417
			c-0.938,0.383-1.808,1.008-2.606,1.876c-0.8,0.869-1.425,2.033-1.876,3.492c-0.104,0.348-0.208,0.687-0.312,1.017
			s-0.156,0.669-0.156,1.016c0,0.695,0.052,1.382,0.156,2.059c0.104,0.678,0.33,1.312,0.678,1.902
			c0.625,1.078,1.606,1.765,2.944,2.059c1.337,0.296,2.701,0.191,4.092-0.312c1.389-0.503,2.605-1.398,3.647-2.684
			C202.779,98.132,203.3,96.464,203.3,94.413z"/>
		<path fill="#057289" d="M240.146,105.932c-2.188,1.146-4.213,1.737-6.071,1.771c-1.859,0.034-3.458-0.312-4.795-1.042
			c-1.338-0.729-2.39-1.754-3.153-3.075c-0.765-1.32-1.19-2.771-1.277-4.352s0.226-3.205,0.938-4.873
			c0.712-1.668,1.867-3.214,3.466-4.639c2.641-2.327,5.75-3.544,9.329-3.648c0.695-0.034,1.382-0.008,2.059,0.078
			c0.678,0.087,1.329,0.287,1.955,0.6c0.208,0.312,0.329,0.608,0.364,0.886c0.034,0.278,0.034,0.557,0,0.834
			c-0.035,0.278-0.104,0.573-0.208,0.886c-0.104,0.313-0.175,0.644-0.209,0.99c-0.104,0.417-0.278,0.67-0.521,0.756
			c-0.244,0.087-0.521,0.104-0.834,0.053c-0.312-0.053-0.635-0.131-0.965-0.235c-0.33-0.104-0.634-0.121-0.912-0.052
			c-0.278-0.104-0.695-0.121-1.25-0.052c-0.557,0.069-0.974,0.035-1.251-0.104c-1.321,0.174-2.485,0.6-3.492,1.277
			c-1.008,0.677-1.824,1.477-2.449,2.397c-0.626,0.921-1.043,1.902-1.251,2.944c-0.209,1.042-0.175,1.998,0.104,2.866
			c0.278,0.869,0.825,1.59,1.643,2.163c0.815,0.573,1.919,0.86,3.31,0.86c1.633,0,3.144-0.426,4.534-1.277
			c1.389-0.851,2.658-1.798,3.805-2.841c0.485,0.209,0.877,0.495,1.172,0.86s0.478,0.999,0.548,1.902
			c-0.104,0.383-0.339,0.782-0.704,1.199c-0.364,0.417-0.773,0.808-1.225,1.172c-0.452,0.365-0.921,0.696-1.407,0.99
			C240.911,105.523,240.494,105.758,240.146,105.932z"/>
		<path fill="#057289" d="M263.34,88.732c-0.278,0.035-0.539,0.044-0.782,0.026s-0.486-0.026-0.729-0.026
			c-0.069-0.034-0.2-0.052-0.391-0.052c-0.191,0-0.321,0.018-0.391,0.052c-0.938,0.243-1.808,0.625-2.606,1.146
			c-0.8,0.521-1.521,1.121-2.163,1.798c-0.643,0.678-1.207,1.391-1.693,2.137c-0.487,0.748-0.886,1.451-1.199,2.111
			c0,0.591,0.009,1.373,0.026,2.346s0.026,1.972,0.026,2.996c0,1.025-0.019,1.999-0.053,2.919c-0.034,0.921-0.104,1.642-0.208,2.163
			c-0.07,0.312-0.305,0.53-0.704,0.651s-0.843,0.19-1.328,0.208c-0.487,0.018-0.974,0.009-1.46-0.025
			c-0.486-0.035-0.852-0.07-1.095-0.104c0-3.37,0.026-6.714,0.079-10.033c0.052-3.317,0.078-6.662,0.078-10.032
			c0-0.382,0.017-0.773,0.052-1.173c0.034-0.399,0.069-0.808,0.104-1.225c0.312,0,0.694-0.034,1.146-0.104
			c0.451-0.069,0.815-0.069,1.095,0c0.417,0.104,0.789,0.287,1.12,0.547c0.33,0.261,0.651,0.687,0.964,1.277
			c0.104,0.452,0.156,0.921,0.156,1.407c0,0.487,0.018,0.956,0.053,1.407h0.052c0.486-0.451,0.999-0.955,1.538-1.512
			c0.538-0.556,1.189-1.051,1.954-1.485c0.764-0.434,1.668-0.756,2.71-0.964c1.043-0.209,2.311-0.19,3.805,0.052
			c0.174,0.14,0.277,0.374,0.312,0.704c0.034,0.33,0.026,0.677-0.025,1.042c-0.053,0.365-0.122,0.713-0.209,1.042
			C263.487,88.359,263.409,88.594,263.34,88.732z"/>
		<path fill="#057289" d="M271.157,77.579c0.659,0.348,1.103,0.816,1.329,1.407c0.226,0.591,0.269,1.19,0.13,1.798
			c-0.139,0.608-0.426,1.146-0.859,1.616c-0.436,0.469-0.982,0.755-1.642,0.859c-0.938,0.14-1.694-0.026-2.268-0.495
			s-0.921-1.042-1.042-1.72c-0.123-0.678-0.019-1.372,0.312-2.085c0.33-0.712,0.946-1.259,1.85-1.642
			c0.486-0.208,0.903-0.252,1.251-0.13S270.879,77.44,271.157,77.579z M267.613,89.827c0-0.313,0.017-0.738,0.052-1.277
			c0.034-0.538,0.069-0.912,0.104-1.12c0.208,0,0.581-0.034,1.12-0.104c0.539-0.069,0.912-0.069,1.121,0
			c0.347,0.035,0.694,0.104,1.042,0.208c0.347,0.104,0.66,0.175,0.938,0.209c0.069,0.312,0.121,0.93,0.156,1.851
			c0.034,0.921,0.052,1.989,0.052,3.205c0,1.217-0.009,2.511-0.025,3.883c-0.019,1.373-0.044,2.676-0.078,3.909
			c-0.035,1.233-0.07,2.311-0.104,3.23c-0.035,0.922-0.07,1.538-0.104,1.851c-0.035,0.312-0.27,0.53-0.703,0.651
			c-0.436,0.122-0.912,0.191-1.434,0.209s-1.025,0-1.512-0.053c-0.486-0.052-0.8-0.078-0.938-0.078c0-0.312,0.008-0.894,0.025-1.746
			c0.018-0.851,0.043-1.85,0.078-2.996c0.034-1.147,0.061-2.354,0.078-3.623c0.018-1.268,0.044-2.466,0.078-3.596
			c0.034-1.129,0.053-2.111,0.053-2.944C267.613,90.661,267.613,90.105,267.613,89.827z"/>
	</g>
	<g enable-background="new    ">
		<path fill="#057289" d="M292.734,87.273c0.625,0.903,1.051,1.998,1.277,3.283c0.226,1.286,0.355,2.632,0.391,4.039
			c0.034,1.407,0.008,2.797-0.078,4.17c-0.087,1.373-0.148,2.579-0.183,3.622l-0.052,0.052c0,0.729-0.026,1.563-0.078,2.502
			c-0.052,0.938-0.079,1.65-0.079,2.137c-0.487,0.034-0.956,0.096-1.407,0.183c-0.452,0.086-0.921,0.13-1.407,0.13
			c-0.174-0.347-0.417-0.625-0.73-0.834c-0.312-0.208-0.487-0.521-0.521-0.938c-0.208,0.069-0.391,0.13-0.547,0.182
			c-0.156,0.053-0.312,0.113-0.469,0.183c-0.156,0.07-0.356,0.14-0.599,0.209c-0.244,0.069-0.556,0.156-0.938,0.261
			c-0.487,0.104-0.964,0.208-1.434,0.312c-0.469,0.104-0.947,0.156-1.433,0.156c-0.07,0-0.104,0.018-0.104,0.052
			c-1.112,0-2.198-0.104-3.257-0.312c-1.06-0.208-2.042-0.712-2.944-1.512c-1.147-0.972-1.72-2.206-1.72-3.7v-0.156v-0.729
			c0-0.938,0.278-1.772,0.834-2.502c0.555-0.729,1.242-1.355,2.059-1.876c0.816-0.521,1.694-0.946,2.632-1.277
			c0.938-0.329,1.807-0.564,2.606-0.703s1.624-0.209,2.476-0.209c0.851,0,1.676-0.069,2.476-0.208
			c-0.035-0.556-0.044-1.129-0.026-1.72c0.017-0.591-0.061-1.164-0.234-1.721c-0.208-0.764-0.6-1.311-1.173-1.642
			c-0.573-0.329-1.216-0.503-1.928-0.521c-0.712-0.018-1.425,0.078-2.137,0.286c-0.713,0.209-1.329,0.487-1.851,0.834
			c-0.591,0.383-1.112,0.826-1.563,1.329c-0.452,0.504-0.886,1.017-1.303,1.537c-0.07,0-0.2-0.078-0.391-0.234
			c-0.191-0.156-0.4-0.33-0.625-0.521c-0.226-0.19-0.435-0.372-0.625-0.547c-0.191-0.174-0.322-0.261-0.391-0.261
			c0.625-1.633,1.598-3.005,2.918-4.117c1.32-1.111,2.736-1.858,4.248-2.241c1.511-0.382,3.022-0.347,4.534,0.104
			C290.467,84.807,291.726,85.779,292.734,87.273z M289.815,97.332c-0.139-0.104-0.348-0.147-0.625-0.131
			c-0.278,0.019-0.504-0.008-0.677-0.078c-0.938,0-1.738,0.088-2.397,0.261c-0.661,0.175-1.442,0.417-2.346,0.729
			c-0.07,0.035-0.156,0.062-0.26,0.079c-0.104,0.018-0.191,0.061-0.261,0.13c-0.417,0.174-0.869,0.469-1.355,0.886
			c-0.487,0.417-0.765,0.869-0.834,1.355c0,0.174,0,0.321,0,0.442c0,0.123,0.034,0.27,0.104,0.443
			c0.174,0.487,0.704,0.808,1.59,0.964c0.886,0.157,1.832,0.201,2.84,0.131c1.007-0.069,1.929-0.226,2.762-0.469
			c0.834-0.243,1.268-0.504,1.303-0.782c0.069-0.591,0.112-1.251,0.13-1.98C289.807,98.583,289.815,97.923,289.815,97.332z"/>
	</g>
	<g enable-background="new    ">
		<path fill="#057289" d="M312.852,89.201c-0.383,0.104-1.26,0.183-2.632,0.234c-1.373,0.053-2.893,0.097-4.561,0.131
			c-0.035,1.425-0.061,2.832-0.078,4.222c-0.018,1.39-0.061,2.866-0.13,4.43c-0.035,0.938,0.13,1.703,0.495,2.293
			c0.365,0.592,0.981,1.13,1.85,1.616c0.382,0.208,0.894,0.348,1.538,0.417c0.643,0.07,1.207-0.156,1.694-0.678
			c0.451-0.242,0.877-0.33,1.277-0.261c0.399,0.07,0.756,0.227,1.068,0.47c0.313,0.243,0.564,0.504,0.756,0.781
			c0.19,0.278,0.304,0.504,0.339,0.678c-0.417,0.834-0.817,1.468-1.199,1.902c-0.383,0.435-0.782,0.747-1.199,0.938
			c-0.417,0.19-0.878,0.295-1.381,0.312c-0.504,0.018-1.086,0.025-1.746,0.025c-0.938-0.034-1.711-0.13-2.319-0.286
			c-0.608-0.156-1.26-0.513-1.955-1.068c-1.146-0.938-1.98-1.832-2.502-2.685c-0.521-0.851-0.877-1.736-1.068-2.658
			c-0.191-0.92-0.26-1.919-0.208-2.996c0.052-1.077,0.112-2.294,0.183-3.648c0.034-0.591,0.06-1.199,0.078-1.824
			c0.017-0.626,0.026-1.268,0.026-1.929c-0.799,0.035-1.52,0.053-2.163,0.053c-0.644,0-1.121,0-1.434,0
			c-0.382-0.382-0.591-0.887-0.625-1.512c-0.035-0.626-0.018-1.39,0.052-2.293c0.173-0.243,0.704-0.417,1.59-0.521
			c0.886-0.104,1.798-0.156,2.736-0.156c0.034-0.591,0.06-1.181,0.078-1.772c0.017-0.59,0.043-1.163,0.078-1.72
			c0.034-0.938,0.052-1.937,0.052-2.997c0-1.06,0.138-2.04,0.417-2.944c0.278-0.069,0.591-0.156,0.938-0.261
			c0.347-0.104,0.694-0.19,1.042-0.261c0.208-0.069,0.581-0.078,1.12-0.025c0.539,0.052,0.912,0.078,1.121,0.078
			c0,0.174,0.017,0.53,0.052,1.068c0.034,0.539,0.034,0.964,0,1.276c-0.07,0.8-0.113,1.547-0.13,2.241
			c-0.018,0.695-0.061,1.494-0.13,2.397c-0.035,0.487-0.061,0.964-0.078,1.434c-0.018,0.469-0.044,0.947-0.078,1.433
			c1.112-0.068,2.311-0.104,3.596-0.104c1.285,0,2.379,0.069,3.284,0.208c0.138,0.14,0.234,0.417,0.287,0.834
			c0.052,0.417,0.078,0.852,0.078,1.303c0,0.452-0.026,0.86-0.078,1.226C312.93,88.967,312.886,89.167,312.852,89.201z"/>
		<path fill="#057289" d="M321.868,77.579c0.659,0.348,1.103,0.816,1.329,1.407c0.226,0.591,0.269,1.19,0.131,1.798
			c-0.141,0.608-0.427,1.146-0.861,1.616c-0.434,0.469-0.981,0.755-1.641,0.859c-0.938,0.14-1.694-0.026-2.268-0.495
			s-0.921-1.042-1.043-1.72c-0.121-0.678-0.018-1.372,0.313-2.085c0.329-0.712,0.946-1.259,1.851-1.642
			c0.485-0.208,0.902-0.252,1.25-0.13S321.59,77.44,321.868,77.579z M318.324,89.827c0-0.313,0.018-0.738,0.052-1.277
			c0.034-0.538,0.069-0.912,0.104-1.12c0.209,0,0.582-0.034,1.121-0.104c0.537-0.069,0.912-0.069,1.12,0
			c0.347,0.035,0.694,0.104,1.042,0.208c0.348,0.104,0.66,0.175,0.938,0.209c0.069,0.312,0.121,0.93,0.156,1.851
			c0.034,0.921,0.052,1.989,0.052,3.205c0,1.217-0.009,2.511-0.025,3.883c-0.018,1.373-0.045,2.676-0.078,3.909
			c-0.035,1.233-0.07,2.311-0.104,3.23c-0.035,0.922-0.07,1.538-0.104,1.851c-0.035,0.312-0.27,0.53-0.703,0.651
			c-0.436,0.122-0.912,0.191-1.434,0.209s-1.025,0-1.512-0.053c-0.486-0.052-0.799-0.078-0.938-0.078
			c0-0.312,0.008-0.894,0.025-1.746c0.018-0.851,0.043-1.85,0.078-2.996c0.035-1.147,0.061-2.354,0.078-3.623
			c0.018-1.268,0.043-2.466,0.078-3.596c0.035-1.129,0.053-2.111,0.053-2.944C318.324,90.661,318.324,90.105,318.324,89.827z"/>
	</g>
	<g enable-background="new    ">
		<path fill="#057289" d="M331.666,105.149c-0.209-0.451-0.451-1.024-0.729-1.72c-0.278-0.694-0.556-1.407-0.834-2.137
			s-0.539-1.45-0.782-2.163c-0.242-0.712-0.434-1.311-0.572-1.798c-0.487-1.39-0.896-2.788-1.225-4.195
			c-0.331-1.407-0.67-2.823-1.018-4.248c-0.069-0.382-0.121-0.729-0.156-1.042c-0.035-0.313-0.139-0.66-0.312-1.043
			c0.451-0.451,0.852-0.781,1.199-0.99c0.347-0.208,0.668-0.347,0.964-0.417c0.295-0.069,0.591-0.095,0.886-0.078
			c0.295,0.019,0.617,0.044,0.965,0.078c0.104,0.313,0.217,0.687,0.338,1.121c0.122,0.435,0.243,0.895,0.365,1.381
			c0.121,0.487,0.234,0.964,0.339,1.434c0.104,0.469,0.208,0.859,0.313,1.173c0.555,1.702,1.085,3.518,1.589,5.446
			c0.503,1.928,1.155,3.692,1.954,5.29c0.139-0.382,0.435-1.06,0.887-2.033c0.451-0.972,0.973-2.075,1.563-3.31
			c0.591-1.232,1.225-2.527,1.902-3.883c0.677-1.354,1.312-2.605,1.902-3.752s1.111-2.111,1.563-2.893
			c0.451-0.782,0.746-1.242,0.886-1.382c0.521-0.173,1.095-0.112,1.72,0.183c0.626,0.296,1.146,0.651,1.564,1.068
			c-0.175,0.417-0.296,0.678-0.365,0.782c-0.07,0.104-0.191,0.348-0.365,0.729c-0.66,1.251-1.363,2.546-2.11,3.883
			c-0.747,1.338-1.417,2.667-2.007,3.987c-0.312,0.66-0.592,1.269-0.834,1.824c-0.243,0.556-0.486,1.104-0.729,1.642
			c-0.243,0.539-0.478,1.095-0.704,1.668s-0.478,1.19-0.756,1.85c-0.104,0.312-0.26,0.722-0.469,1.225
			c-0.208,0.505-0.426,1.017-0.651,1.538c-0.226,0.521-0.452,1.025-0.677,1.512c-0.227,0.486-0.409,0.886-0.548,1.198
			c-0.208,0.034-0.504,0.052-0.886,0.052c-0.383,0-0.782-0.018-1.199-0.052c-0.416-0.034-0.816-0.052-1.198-0.052
			c-0.383,0-0.678,0.018-0.886,0.052c-0.035-0.104-0.088-0.243-0.156-0.417c-0.07-0.174-0.156-0.355-0.262-0.547
			c-0.104-0.19-0.199-0.373-0.286-0.548C331.762,105.394,331.7,105.254,331.666,105.149z"/>
	</g>
	<g enable-background="new    ">
		<path fill="#057289" d="M363.562,87.273c0.626,0.903,1.051,1.998,1.277,3.283c0.226,1.286,0.355,2.632,0.391,4.039
			c0.034,1.407,0.009,2.797-0.078,4.17s-0.148,2.579-0.183,3.622l-0.052,0.052c0,0.729-0.026,1.563-0.078,2.502
			s-0.079,1.65-0.079,2.137c-0.486,0.034-0.955,0.096-1.406,0.183c-0.452,0.086-0.922,0.13-1.407,0.13
			c-0.175-0.347-0.417-0.625-0.729-0.834c-0.312-0.208-0.487-0.521-0.521-0.938c-0.209,0.069-0.391,0.13-0.547,0.182
			c-0.156,0.053-0.312,0.113-0.47,0.183c-0.156,0.07-0.356,0.14-0.599,0.209c-0.244,0.069-0.557,0.156-0.938,0.261
			c-0.487,0.104-0.964,0.208-1.434,0.312c-0.469,0.104-0.946,0.156-1.433,0.156c-0.07,0-0.105,0.018-0.105,0.052
			c-1.111,0-2.197-0.104-3.257-0.312c-1.06-0.208-2.042-0.712-2.944-1.512c-1.146-0.972-1.721-2.206-1.721-3.7v-0.156v-0.729
			c0-0.938,0.278-1.772,0.834-2.502s1.242-1.355,2.059-1.876c0.816-0.521,1.694-0.946,2.633-1.277
			c0.938-0.329,1.807-0.564,2.605-0.703s1.624-0.209,2.477-0.209c0.85,0,1.676-0.069,2.475-0.208
			c-0.035-0.556-0.043-1.129-0.025-1.72c0.017-0.591-0.062-1.164-0.234-1.721c-0.209-0.764-0.6-1.311-1.174-1.642
			c-0.572-0.329-1.216-0.503-1.928-0.521c-0.713-0.018-1.426,0.078-2.137,0.286c-0.713,0.209-1.329,0.487-1.851,0.834
			c-0.591,0.383-1.112,0.826-1.563,1.329c-0.451,0.504-0.886,1.017-1.303,1.537c-0.07,0-0.2-0.078-0.391-0.234
			c-0.191-0.156-0.4-0.33-0.626-0.521c-0.226-0.19-0.435-0.372-0.625-0.547c-0.191-0.174-0.321-0.261-0.392-0.261
			c0.626-1.633,1.598-3.005,2.919-4.117c1.32-1.111,2.736-1.858,4.248-2.241c1.511-0.382,3.022-0.347,4.534,0.104
			C361.295,84.807,362.554,85.779,363.562,87.273z M360.643,97.332c-0.139-0.104-0.348-0.147-0.625-0.131
			c-0.278,0.019-0.504-0.008-0.678-0.078c-0.938,0-1.737,0.088-2.396,0.261c-0.661,0.175-1.443,0.417-2.346,0.729
			c-0.07,0.035-0.156,0.062-0.261,0.079s-0.191,0.061-0.261,0.13c-0.417,0.174-0.869,0.469-1.355,0.886s-0.764,0.869-0.834,1.355
			c0,0.174,0,0.321,0,0.442c0,0.123,0.035,0.27,0.104,0.443c0.174,0.487,0.704,0.808,1.59,0.964
			c0.886,0.157,1.832,0.201,2.841,0.131c1.007-0.069,1.928-0.226,2.762-0.469s1.268-0.504,1.303-0.782
			c0.07-0.591,0.113-1.251,0.131-1.98S360.643,97.923,360.643,97.332z"/>
		<path fill="#057289" d="M403.119,104.629c-0.139,0.139-0.348,0.33-0.625,0.573c-0.279,0.243-0.504,0.417-0.678,0.521
			c-1.946,1.182-3.996,1.92-6.15,2.216c-2.154,0.294-4.152,0.104-5.993-0.573c-1.843-0.678-3.362-1.868-4.561-3.57
			s-1.798-3.961-1.798-6.775c0-1.529,0.261-2.971,0.781-4.326c0.521-1.355,1.252-2.623,2.189-3.805
			c0.938-1.181,2.111-2.163,3.518-2.944c1.408-0.782,2.857-1.251,4.353-1.407c1.493-0.156,2.927,0.035,4.3,0.573
			c1.372,0.539,2.51,1.521,3.414,2.944c0.346,0.557,0.625,1.155,0.834,1.798c0.208,0.644,0.329,1.295,0.364,1.955
			c0.034,0.348,0.069,0.729,0.104,1.146c0.033,0.417,0.017,0.8-0.053,1.146c-0.174,0.765-0.383,1.478-0.625,2.137
			c-0.104,0.278-0.417,0.514-0.938,0.704c-0.521,0.191-1.096,0.339-1.721,0.442c-0.625,0.104-1.234,0.183-1.824,0.234
			c-0.592,0.053-1.008,0.097-1.25,0.131c-1.391,0.139-2.771,0.234-4.145,0.286c-1.373,0.053-2.754,0.097-4.143,0.131l-0.312,0.208
			c-0.105,0.383-0.105,0.765,0,1.146c0.104,0.904,0.434,1.634,0.99,2.189c0.555,0.556,1.198,0.99,1.928,1.303
			s1.512,0.53,2.346,0.651c0.834,0.122,1.598,0.183,2.293,0.183c0.555-0.069,1.051-0.156,1.485-0.261
			c0.435-0.104,0.877-0.286,1.329-0.547c0.451-0.261,0.946-0.626,1.485-1.095c0.538-0.469,1.189-1.103,1.954-1.902
			c0.069-0.034,0.226,0.104,0.469,0.417s0.496,0.67,0.756,1.068c0.261,0.4,0.504,0.782,0.73,1.146
			c0.225,0.365,0.355,0.583,0.391,0.651c-0.07,0.209-0.244,0.443-0.521,0.704C403.519,104.29,403.293,104.49,403.119,104.629z
			 M399.055,94.101c0.139-0.104,0.234-0.242,0.286-0.417c0.052-0.174,0.078-0.347,0.078-0.521c0.069-0.451,0.034-0.98-0.104-1.589
			c-0.139-0.607-0.33-1.104-0.572-1.485c-0.661-1.112-1.547-1.772-2.658-1.98c-1.113-0.209-2.233-0.079-3.362,0.391
			c-1.13,0.469-2.128,1.207-2.997,2.215s-1.373,2.189-1.512,3.544c0.174,0.209,0.4,0.348,0.678,0.417
			c0.07,0.035,0.348,0.044,0.834,0.026s1.086-0.043,1.799-0.078c0.711-0.034,1.484-0.078,2.318-0.131
			c0.834-0.052,1.616-0.095,2.346-0.13c0.73-0.034,1.363-0.078,1.902-0.131C398.629,94.179,398.95,94.136,399.055,94.101z"/>
		<path fill="#057289" d="M427.406,77.579c0.658,0.348,1.102,0.816,1.328,1.407s0.27,1.19,0.131,1.798
			c-0.139,0.608-0.426,1.146-0.859,1.616c-0.436,0.469-0.982,0.755-1.643,0.859c-0.938,0.14-1.693-0.026-2.268-0.495
			c-0.572-0.469-0.92-1.042-1.041-1.72c-0.123-0.678-0.02-1.372,0.312-2.085c0.33-0.712,0.945-1.259,1.85-1.642
			c0.486-0.208,0.902-0.252,1.25-0.13S427.127,77.44,427.406,77.579z M423.861,89.827c0-0.313,0.018-0.738,0.053-1.277
			c0.033-0.538,0.068-0.912,0.104-1.12c0.209,0,0.582-0.034,1.121-0.104c0.539-0.069,0.912-0.069,1.121,0
			c0.346,0.035,0.693,0.104,1.041,0.208c0.348,0.104,0.66,0.175,0.939,0.209c0.068,0.312,0.121,0.93,0.156,1.851
			c0.033,0.921,0.051,1.989,0.051,3.205c0,1.217-0.008,2.511-0.025,3.883c-0.018,1.373-0.043,2.676-0.078,3.909
			s-0.07,2.311-0.104,3.23c-0.035,0.922-0.07,1.538-0.105,1.851s-0.27,0.53-0.703,0.651c-0.436,0.122-0.912,0.191-1.434,0.209
			s-1.025,0-1.512-0.053c-0.486-0.052-0.799-0.078-0.938-0.078c0-0.312,0.008-0.894,0.025-1.746c0.018-0.851,0.043-1.85,0.078-2.996
			c0.035-1.147,0.061-2.354,0.078-3.623c0.018-1.268,0.045-2.466,0.078-3.596c0.035-1.129,0.053-2.111,0.053-2.944
			C423.861,90.661,423.861,90.105,423.861,89.827z"/>
		<path fill="#057289" d="M450.703,106.349c-0.244,0.035-0.488,0.07-0.73,0.104c-0.244,0.034-0.469,0.087-0.678,0.156
			c-0.938,0.278-1.807,0.191-2.605-0.261c0.068-2.467,0.174-4.951,0.312-7.453c0.035-0.729,0.035-1.485,0-2.268
			c-0.035-0.781-0.104-1.537-0.209-2.267c-0.277-1.702-0.824-2.822-1.641-3.361s-1.686-0.695-2.605-0.47
			c-0.922,0.227-1.773,0.729-2.555,1.512c-0.781,0.781-1.277,1.625-1.486,2.527c-0.416,1.772-0.65,3.562-0.703,5.368
			c-0.051,1.808-0.078,3.597-0.078,5.368v1.251c-0.277,0-0.625,0.019-1.041,0.053c-0.418,0.035-0.834,0.052-1.252,0.052
			c-0.416,0-0.791-0.061-1.121-0.183c-0.33-0.121-0.564-0.339-0.703-0.651c0-0.277,0-0.929,0-1.954c0-1.024-0.008-2.232-0.025-3.622
			s-0.027-2.858-0.027-4.404s0.01-2.988,0.027-4.326c0.018-1.337,0.051-2.457,0.104-3.361c0.053-0.903,0.131-1.407,0.234-1.512
			c0.035-0.069,0.139-0.121,0.312-0.156c0.174-0.034,0.365-0.061,0.574-0.078c0.209-0.017,0.398-0.026,0.572-0.026
			s0.314-0.017,0.418-0.052c0.174-0.139,0.398-0.174,0.678-0.104c0.277,0.07,0.502,0.104,0.678,0.104
			c0.172,0.487,0.303,1.017,0.391,1.59c0.086,0.573,0.131,1.155,0.131,1.746c0.902-1.008,1.953-1.885,3.152-2.633
			c1.199-0.746,2.396-1.198,3.596-1.354s2.336,0.061,3.414,0.651c1.076,0.591,1.945,1.72,2.605,3.388
			c0.66,1.634,1.018,3.354,1.068,5.16c0.053,1.807,0.061,3.579,0.027,5.315c0,0.348-0.01,0.808-0.027,1.382
			c-0.018,0.573-0.061,1.155-0.129,1.745c-0.07,0.592-0.156,1.165-0.262,1.721C451.016,105.602,450.877,106.036,450.703,106.349z"/>
		<path fill="#057289" d="M466.338,84.406c1.043-0.069,2.111,0,3.205,0.209c1.094,0.208,2.094,0.625,2.996,1.251
			c1.494,1.008,2.623,2.259,3.389,3.752c0.764,1.494,1.182,3.049,1.25,4.665c0.07,1.615-0.164,3.231-0.703,4.847
			c-0.539,1.616-1.338,3.049-2.396,4.3c-1.061,1.251-2.363,2.25-3.91,2.997s-3.291,1.068-5.238,0.964
			c-0.799-0.035-1.58-0.191-2.344-0.469c-1.6-0.556-2.928-1.329-3.988-2.319s-1.867-2.119-2.424-3.388
			c-0.555-1.268-0.859-2.606-0.912-4.014c-0.051-1.406,0.139-2.788,0.574-4.143c0.434-1.355,1.104-2.623,2.006-3.805
			c0.904-1.182,2.051-2.189,3.441-3.023c0.381-0.242,0.807-0.495,1.275-0.756c0.469-0.26,0.947-0.477,1.434-0.651
			c0.383-0.139,0.781-0.234,1.199-0.286C465.607,84.484,465.99,84.441,466.338,84.406z M472.695,94.413
			c0-1.111-0.242-2.093-0.729-2.944s-1.121-1.52-1.902-2.007c-0.781-0.486-1.66-0.781-2.633-0.886s-1.928,0.035-2.865,0.417
			c-0.939,0.383-1.809,1.008-2.607,1.876c-0.799,0.869-1.424,2.033-1.875,3.492c-0.105,0.348-0.209,0.687-0.312,1.017
			c-0.105,0.33-0.156,0.669-0.156,1.016c0,0.695,0.051,1.382,0.156,2.059c0.104,0.678,0.33,1.312,0.678,1.902
			c0.625,1.078,1.605,1.765,2.943,2.059c1.338,0.296,2.701,0.191,4.092-0.312c1.389-0.503,2.605-1.398,3.648-2.684
			S472.695,96.464,472.695,94.413z"/>
	</g>
	<g enable-background="new    ">
		<path fill="#057289" d="M484.787,105.149c-0.209-0.451-0.452-1.024-0.73-1.72c-0.277-0.694-0.556-1.407-0.834-2.137
			c-0.277-0.729-0.539-1.45-0.781-2.163c-0.243-0.712-0.435-1.311-0.573-1.798c-0.487-1.39-0.896-2.788-1.225-4.195
			c-0.331-1.407-0.669-2.823-1.017-4.248c-0.07-0.382-0.122-0.729-0.156-1.042c-0.035-0.313-0.139-0.66-0.312-1.043
			c0.451-0.451,0.851-0.781,1.199-0.99c0.346-0.208,0.668-0.347,0.963-0.417c0.295-0.069,0.591-0.095,0.887-0.078
			c0.295,0.019,0.616,0.044,0.965,0.078c0.104,0.313,0.216,0.687,0.338,1.121c0.121,0.435,0.242,0.895,0.365,1.381
			c0.121,0.487,0.234,0.964,0.338,1.434c0.105,0.469,0.209,0.859,0.313,1.173c0.556,1.702,1.085,3.518,1.589,5.446
			c0.504,1.928,1.155,3.692,1.955,5.29c0.139-0.382,0.434-1.06,0.887-2.033c0.451-0.972,0.972-2.075,1.562-3.31
			c0.591-1.232,1.225-2.527,1.902-3.883c0.678-1.354,1.312-2.605,1.902-3.752s1.111-2.111,1.564-2.893
			c0.451-0.782,0.746-1.242,0.885-1.382c0.521-0.173,1.096-0.112,1.721,0.183c0.625,0.296,1.146,0.651,1.563,1.068
			c-0.175,0.417-0.296,0.678-0.364,0.782c-0.07,0.104-0.191,0.348-0.365,0.729c-0.66,1.251-1.364,2.546-2.111,3.883
			c-0.747,1.338-1.416,2.667-2.006,3.987c-0.312,0.66-0.592,1.269-0.834,1.824c-0.244,0.556-0.487,1.104-0.73,1.642
			c-0.243,0.539-0.478,1.095-0.703,1.668c-0.227,0.573-0.479,1.19-0.756,1.85c-0.104,0.312-0.26,0.722-0.469,1.225
			c-0.209,0.505-0.426,1.017-0.652,1.538c-0.226,0.521-0.451,1.025-0.677,1.512c-0.227,0.486-0.409,0.886-0.548,1.198
			c-0.208,0.034-0.504,0.052-0.885,0.052c-0.383,0-0.783-0.018-1.199-0.052c-0.417-0.034-0.816-0.052-1.199-0.052
			s-0.678,0.018-0.886,0.052c-0.035-0.104-0.087-0.243-0.156-0.417c-0.07-0.174-0.156-0.355-0.261-0.547
			c-0.104-0.19-0.2-0.373-0.287-0.548C484.883,105.394,484.82,105.254,484.787,105.149z"/>
	</g>
	<g enable-background="new    ">
		<path fill="#057289" d="M516.685,87.273c0.626,0.903,1.051,1.998,1.277,3.283c0.226,1.286,0.355,2.632,0.391,4.039
			c0.034,1.407,0.009,2.797-0.078,4.17s-0.148,2.579-0.183,3.622l-0.052,0.052c0,0.729-0.026,1.563-0.078,2.502
			s-0.079,1.65-0.079,2.137c-0.486,0.034-0.955,0.096-1.406,0.183c-0.452,0.086-0.922,0.13-1.407,0.13
			c-0.175-0.347-0.417-0.625-0.729-0.834c-0.312-0.208-0.487-0.521-0.521-0.938c-0.209,0.069-0.391,0.13-0.547,0.182
			c-0.156,0.053-0.312,0.113-0.47,0.183c-0.156,0.07-0.356,0.14-0.599,0.209c-0.244,0.069-0.557,0.156-0.938,0.261
			c-0.487,0.104-0.964,0.208-1.434,0.312c-0.469,0.104-0.946,0.156-1.433,0.156c-0.07,0-0.105,0.018-0.105,0.052
			c-1.111,0-2.197-0.104-3.257-0.312c-1.06-0.208-2.042-0.712-2.944-1.512c-1.146-0.972-1.721-2.206-1.721-3.7v-0.156v-0.729
			c0-0.938,0.278-1.772,0.834-2.502s1.242-1.355,2.059-1.876c0.816-0.521,1.694-0.946,2.633-1.277
			c0.938-0.329,1.807-0.564,2.605-0.703s1.624-0.209,2.477-0.209c0.85,0,1.676-0.069,2.475-0.208
			c-0.035-0.556-0.043-1.129-0.025-1.72c0.017-0.591-0.062-1.164-0.234-1.721c-0.209-0.764-0.6-1.311-1.174-1.642
			c-0.572-0.329-1.216-0.503-1.928-0.521c-0.713-0.018-1.426,0.078-2.137,0.286c-0.713,0.209-1.329,0.487-1.851,0.834
			c-0.591,0.383-1.112,0.826-1.563,1.329c-0.451,0.504-0.886,1.017-1.303,1.537c-0.07,0-0.2-0.078-0.391-0.234
			c-0.191-0.156-0.4-0.33-0.626-0.521c-0.226-0.19-0.435-0.372-0.625-0.547c-0.191-0.174-0.321-0.261-0.392-0.261
			c0.626-1.633,1.598-3.005,2.919-4.117c1.32-1.111,2.736-1.858,4.248-2.241c1.511-0.382,3.022-0.347,4.534,0.104
			C514.418,84.807,515.677,85.779,516.685,87.273z M513.766,97.332c-0.139-0.104-0.348-0.147-0.625-0.131
			c-0.278,0.019-0.504-0.008-0.678-0.078c-0.938,0-1.737,0.088-2.396,0.261c-0.661,0.175-1.443,0.417-2.346,0.729
			c-0.07,0.035-0.156,0.062-0.261,0.079s-0.191,0.061-0.261,0.13c-0.417,0.174-0.869,0.469-1.355,0.886s-0.764,0.869-0.834,1.355
			c0,0.174,0,0.321,0,0.442c0,0.123,0.035,0.27,0.104,0.443c0.174,0.487,0.704,0.808,1.59,0.964
			c0.886,0.157,1.832,0.201,2.841,0.131c1.007-0.069,1.928-0.226,2.762-0.469s1.268-0.504,1.303-0.782
			c0.07-0.591,0.113-1.251,0.131-1.98S513.766,97.923,513.766,97.332z"/>
		<path fill="#057289" d="M542.066,105.566c-0.174,0.104-0.383,0.183-0.625,0.234c-0.244,0.053-0.452,0.113-0.625,0.183
			c-0.834,0.209-1.443,0.331-1.824,0.365c-0.383,0.035-0.645-0.043-0.782-0.234c-0.14-0.19-0.208-0.504-0.208-0.938
			c0-0.434-0.035-0.998-0.105-1.693c-0.312,0.243-0.59,0.451-0.833,0.625s-0.478,0.331-0.704,0.469
			c-0.227,0.14-0.469,0.27-0.729,0.392s-0.565,0.252-0.912,0.391c-0.14,0.07-0.331,0.13-0.573,0.183
			c-0.244,0.052-0.495,0.113-0.756,0.182c-0.26,0.07-0.521,0.131-0.781,0.183c-0.261,0.053-0.461,0.097-0.6,0.131
			c-0.592,0.174-1.173,0.226-1.746,0.156s-1.155-0.174-1.746-0.312c-1.98-0.486-3.466-1.407-4.456-2.763s-1.563-2.884-1.72-4.587
			c-0.156-1.701,0.086-3.422,0.729-5.159c0.643-1.737,1.624-3.249,2.944-4.534c1.111-1.043,2.337-1.885,3.675-2.528
			c1.337-0.643,2.788-0.964,4.353-0.964c0.242,0,0.529,0,0.859,0s0.6,0.035,0.808,0.104c0.486,0.104,0.86,0.2,1.12,0.286
			c0.262,0.087,0.635,0.218,1.121,0.391c0.174-0.799,0.226-1.606,0.156-2.423c-0.07-0.816-0.087-1.624-0.052-2.424
			c0.034-1.146,0.052-2.319,0.052-3.518c0-1.199,0.086-2.354,0.261-3.466c0.069-0.382,0.112-0.738,0.13-1.068
			s-0.008-0.687-0.078-1.069l2.085-0.052h1.251c0.139,0,0.277,0.018,0.417,0.052c0.138,0.626,0.226,1.712,0.261,3.258
			c0.034,1.547,0.034,3.214,0,5.004c-0.035,1.789-0.07,3.51-0.104,5.159c-0.035,1.65-0.052,2.893-0.052,3.727
			c0,1.321,0.025,2.667,0.078,4.039c0.052,1.373,0.096,2.763,0.13,4.17s0.026,2.788-0.026,4.144
			C542.405,103.013,542.275,104.315,542.066,105.566z M537.637,90.191c-0.452-0.312-0.912-0.503-1.381-0.573
			c-0.47-0.069-0.965-0.086-1.486-0.052c-0.973,0.07-1.92,0.278-2.84,0.625c-0.922,0.348-1.755,0.834-2.502,1.46
			c-0.748,0.625-1.355,1.363-1.824,2.215s-0.738,1.781-0.808,2.788c-0.069,0.592-0.052,1.139,0.052,1.642
			c0.104,0.504,0.33,0.999,0.678,1.485c0.59,0.834,1.373,1.338,2.346,1.512c0.347,0.07,0.912,0.087,1.693,0.052
			c0.782-0.034,1.598-0.138,2.449-0.312c0.852-0.173,1.616-0.434,2.294-0.781c0.677-0.348,1.085-0.782,1.225-1.304
			c0.104-0.451,0.2-1.06,0.286-1.824c0.087-0.764,0.139-1.571,0.156-2.423s0-1.676-0.051-2.476
			C537.871,91.426,537.775,90.748,537.637,90.191z"/>
		<path fill="#057289" d="M557.806,84.406c1.042-0.069,2.11,0,3.206,0.209c1.094,0.208,2.092,0.625,2.996,1.251
			c1.494,1.008,2.623,2.259,3.387,3.752c0.766,1.494,1.182,3.049,1.252,4.665c0.068,1.615-0.166,3.231-0.703,4.847
			c-0.539,1.616-1.338,3.049-2.398,4.3s-2.363,2.25-3.908,2.997c-1.547,0.747-3.293,1.068-5.238,0.964
			c-0.8-0.035-1.582-0.191-2.346-0.469c-1.598-0.556-2.928-1.329-3.986-2.319c-1.061-0.99-1.869-2.119-2.424-3.388
			c-0.557-1.268-0.859-2.606-0.912-4.014c-0.053-1.406,0.139-2.788,0.573-4.143c0.435-1.355,1.103-2.623,2.007-3.805
			c0.902-1.182,2.049-2.189,3.439-3.023c0.382-0.242,0.809-0.495,1.277-0.756c0.469-0.26,0.945-0.477,1.434-0.651
			c0.381-0.139,0.781-0.234,1.198-0.286C557.076,84.484,557.458,84.441,557.806,84.406z M564.164,94.413
			c0-1.111-0.244-2.093-0.73-2.944s-1.119-1.52-1.902-2.007c-0.781-0.486-1.658-0.781-2.631-0.886
			c-0.974-0.104-1.929,0.035-2.867,0.417c-0.938,0.383-1.807,1.008-2.605,1.876c-0.8,0.869-1.426,2.033-1.877,3.492
			c-0.104,0.348-0.208,0.687-0.312,1.017c-0.104,0.33-0.156,0.669-0.156,1.016c0,0.695,0.053,1.382,0.156,2.059
			c0.104,0.678,0.33,1.312,0.678,1.902c0.625,1.078,1.607,1.765,2.945,2.059c1.337,0.296,2.701,0.191,4.092-0.312
			c1.389-0.503,2.605-1.398,3.646-2.684C563.643,98.132,564.164,96.464,564.164,94.413z"/>
	</g>
	<g enable-background="new    ">
		<path fill="#057289" d="M587.512,88.732c-0.278,0.035-0.539,0.044-0.781,0.026c-0.244-0.018-0.487-0.026-0.73-0.026
			c-0.07-0.034-0.2-0.052-0.391-0.052c-0.191,0-0.322,0.018-0.391,0.052c-0.938,0.243-1.807,0.625-2.605,1.146
			c-0.801,0.521-1.521,1.121-2.164,1.798c-0.643,0.678-1.207,1.391-1.693,2.137c-0.486,0.748-0.887,1.451-1.199,2.111
			c0,0.591,0.009,1.373,0.026,2.346c0.017,0.973,0.026,1.972,0.026,2.996c0,1.025-0.018,1.999-0.053,2.919
			c-0.035,0.921-0.104,1.642-0.208,2.163c-0.069,0.312-0.305,0.53-0.704,0.651s-0.842,0.19-1.328,0.208
			c-0.487,0.018-0.974,0.009-1.46-0.025c-0.487-0.035-0.852-0.07-1.095-0.104c0-3.37,0.026-6.714,0.078-10.033
			c0.053-3.317,0.078-6.662,0.078-10.032c0-0.382,0.018-0.773,0.053-1.173c0.034-0.399,0.069-0.808,0.104-1.225
			c0.313,0,0.695-0.034,1.147-0.104c0.451-0.069,0.815-0.069,1.095,0c0.416,0.104,0.789,0.287,1.12,0.547
			c0.329,0.261,0.651,0.687,0.964,1.277c0.104,0.452,0.156,0.921,0.156,1.407c0,0.487,0.018,0.956,0.053,1.407h0.052
			c0.486-0.451,0.999-0.955,1.538-1.512c0.538-0.556,1.189-1.051,1.954-1.485c0.764-0.434,1.668-0.756,2.71-0.964
			c1.043-0.209,2.311-0.19,3.805,0.052c0.174,0.14,0.277,0.374,0.312,0.704s0.026,0.677-0.025,1.042
			c-0.053,0.365-0.123,0.713-0.209,1.042C587.659,88.359,587.581,88.594,587.512,88.732z"/>
	</g>
	<g enable-background="new    ">
		<path fill="#057289" d="M605.701,87.273c0.625,0.903,1.051,1.998,1.277,3.283c0.225,1.286,0.355,2.632,0.391,4.039
			c0.033,1.407,0.008,2.797-0.078,4.17c-0.088,1.373-0.148,2.579-0.184,3.622l-0.051,0.052c0,0.729-0.027,1.563-0.078,2.502
			c-0.053,0.938-0.079,1.65-0.079,2.137c-0.487,0.034-0.956,0.096-1.407,0.183c-0.451,0.086-0.921,0.13-1.406,0.13
			c-0.175-0.347-0.418-0.625-0.73-0.834c-0.312-0.208-0.486-0.521-0.521-0.938c-0.208,0.069-0.391,0.13-0.547,0.182
			c-0.156,0.053-0.312,0.113-0.469,0.183c-0.156,0.07-0.357,0.14-0.6,0.209c-0.244,0.069-0.557,0.156-0.938,0.261
			c-0.488,0.104-0.965,0.208-1.434,0.312s-0.947,0.156-1.434,0.156c-0.07,0-0.104,0.018-0.104,0.052
			c-1.112,0-2.198-0.104-3.257-0.312c-1.061-0.208-2.042-0.712-2.945-1.512c-1.146-0.972-1.72-2.206-1.72-3.7v-0.156v-0.729
			c0-0.938,0.278-1.772,0.834-2.502s1.241-1.355,2.059-1.876c0.815-0.521,1.694-0.946,2.632-1.277
			c0.938-0.329,1.807-0.564,2.605-0.703c0.8-0.139,1.625-0.209,2.477-0.209c0.851,0,1.676-0.069,2.476-0.208
			c-0.035-0.556-0.044-1.129-0.026-1.72s-0.061-1.164-0.234-1.721c-0.209-0.764-0.6-1.311-1.173-1.642
			c-0.573-0.329-1.216-0.503-1.929-0.521c-0.712-0.018-1.425,0.078-2.137,0.286c-0.713,0.209-1.328,0.487-1.85,0.834
			c-0.592,0.383-1.113,0.826-1.564,1.329c-0.451,0.504-0.885,1.017-1.303,1.537c-0.07,0-0.199-0.078-0.391-0.234
			s-0.4-0.33-0.625-0.521c-0.227-0.19-0.436-0.372-0.625-0.547c-0.191-0.174-0.322-0.261-0.392-0.261
			c0.626-1.633,1.598-3.005,2.919-4.117c1.32-1.111,2.736-1.858,4.248-2.241c1.511-0.382,3.021-0.347,4.533,0.104
			C603.434,84.807,604.693,85.779,605.701,87.273z M602.782,97.332c-0.14-0.104-0.348-0.147-0.626-0.131
			c-0.277,0.019-0.504-0.008-0.677-0.078c-0.938,0-1.737,0.088-2.397,0.261c-0.66,0.175-1.442,0.417-2.346,0.729
			c-0.07,0.035-0.156,0.062-0.26,0.079c-0.105,0.018-0.191,0.061-0.262,0.13c-0.416,0.174-0.869,0.469-1.354,0.886
			c-0.487,0.417-0.765,0.869-0.834,1.355c0,0.174,0,0.321,0,0.442c0,0.123,0.034,0.27,0.104,0.443
			c0.174,0.487,0.703,0.808,1.59,0.964c0.886,0.157,1.832,0.201,2.84,0.131c1.008-0.069,1.929-0.226,2.762-0.469
			c0.834-0.243,1.269-0.504,1.304-0.782c0.069-0.591,0.112-1.251,0.13-1.98S602.782,97.923,602.782,97.332z"/>
	</g>
</g>
</svg>
