<?xml version="1.0" encoding="UTF-8" standalone="no"?>
<svg
   xmlns:dc="http://purl.org/dc/elements/1.1/"
   xmlns:cc="http://creativecommons.org/ns#"
   xmlns:rdf="http://www.w3.org/1999/02/22-rdf-syntax-ns#"
   xmlns:svg="http://www.w3.org/2000/svg"
   xmlns="http://www.w3.org/2000/svg"
   xmlns:sodipodi="http://sodipodi.sourceforge.net/DTD/sodipodi-0.dtd"
   xmlns:inkscape="http://www.inkscape.org/namespaces/inkscape"
   viewBox="0 0 120 120"
   height="120"
   width="120"
   xml:space="preserve"
   id="svg2"
   version="1.1"
   inkscape:version="0.91 r13725"
   sodipodi:docname="USP.svg"><sodipodi:namedview
     pagecolor="#ffffff"
     bordercolor="#666666"
     borderopacity="1"
     objecttolerance="10"
     gridtolerance="10"
     guidetolerance="10"
     inkscape:pageopacity="0"
     inkscape:pageshadow="2"
     inkscape:window-width="1920"
     inkscape:window-height="1056"
     id="namedview12"
     showgrid="false"
     inkscape:zoom="2.8049069"
     inkscape:cx="134.09289"
     inkscape:cy="47.960232"
     inkscape:window-x="0"
     inkscape:window-y="24"
     inkscape:window-maximized="1"
     inkscape:current-layer="svg2" /><metadata
     id="metadata8"><rdf:RDF><cc:Work
         rdf:about=""><dc:format>image/svg+xml</dc:format><dc:type
           rdf:resource="http://purl.org/dc/dcmitype/StillImage" /><dc:title></dc:title></cc:Work></rdf:RDF></metadata><defs
     id="defs6"><clipPath
       id="clipPath20"
       clipPathUnits="userSpaceOnUse"><path
         id="path18"
         d="M 0,2994.81 0,0 l 7385.68,0 0,2994.81 z"
         inkscape:connector-curvature="0" /></clipPath></defs><g
     transform="matrix(0.14893686,0,0,-0.14893686,5.0000006,82.30188)"
     id="g10"><g
       transform="scale(0.1,0.1)"
       id="g12"><g
         id="g14"><g
           clip-path="url(#clipPath20)"
           id="g16"><path
             id="path22"
             style="fill:#1b181a;fill-opacity:1;fill-rule:evenodd;stroke:none"
             d="m 2395.31,698.602 c 0,-274.832 -224.18,-499 -499,-499 L 1896.31,0 c 253.58,0 476.36,136.34 598.79,339.488 l 0,359.114 z m 199.59,0 c 0,-274.832 224.2,-499 499.08,-499 L 3093.98,0 C 2840.27,0 2617.56,136.34 2495.1,339.488 l 0,359.114 99.8,0 z M 4990.27,2296.18 c 0,274.85 224.13,498.99 499.01,498.99 l 0,199.64 c -253.65,0 -476.46,-136.38 -598.82,-339.5 l 0,-359.13 99.81,0 z m -199.68,-0.32 99.87,0 0,359.09 c -122.39,203.15 -345.24,339.5 -598.91,339.5 l 0,-199.58 c 274.94,0 499.04,-224.2 499.04,-499.01 z m 0,-1597.008 c 0,-274.782 -224.1,-499.563 -499.04,-499.563 l 0,-199.019469 c 384.84,0 698.72,313.890469 698.72,698.582469 l -199.68,0 z m 2395.36,1596.938 199.73,0 c 0,384.79 -313.87,698.6 -698.75,698.6 l 0,-199.52 c 274.79,0 499.02,-224.2 499.02,-499.08 z M 199.609,698.852 0,698.852 C 0,314.16 313.824,0.269531 698.629,0.269531 l 0,199.628469 c -274.875,0 -499.02,224.172 -499.02,498.954 z M 3094.12,2994.39 c -365.71,0 -699.43,-315.41 -698.81,-698.35 l 199.77,0 c 0,283.7 231.8,499.13 499.02,499.23 -0.67,95 -0.59,126.58 0.02,199.12 z m 1896.15,-2794.55 0,-199.7501562 1197.68,0 0,998.2811562 1197.73,0 0,1297.419 -199.73,0 0,-1097.79 -998,0 0,1097.79 -199.64,0 0,-2095.892 -998.04,-0.058 z m 499.01,2794.97 1197.65,-0.42 0,-199.73 -1197.65,0.51 z m -498.55,-1855.17 -0.46,-440.788 -199.68,0 0,357.998 -1167.54,1169.4 139.93,141.49 1227.75,-1228.1 z m -2595.42,715.39 1227.74,-1228.069 139.93,141.5 -1167.9,1169.369 0,358.21 -199.77,0 z M 0,2994.39 l 2395.31,0 0,-199.52 -998.04,0 0,-2091.768 -199.65,0 0,2091.768 -998.011,0 0,-2096.018 -199.609,0 z m 698.629,-2794.492 1197.861,0 0,-199.8081562 -1197.861,0 z m 2395.381,2794.442 1197.68,0.05 0,-199.73 -1197.68,0.61 z m -0.03,-2794.738 1197.71,-0.723 0,-198.66025 -1197.68,0.3125 -0.03,199.07075 0,0"
             inkscape:connector-curvature="0" /></g></g></g></g></svg>