<?xml version="1.0"?>
<svg version="1.1" xmlns="http://www.w3.org/2000/svg" xmlns:xlink="http://www.w3.org/1999/xlink" x="0px" y="0px" viewBox="0 0 480 480" style="enable-background:new 0 0 480 480;" xml:space="preserve">
		<path d="M432,384V72c0-4.418-3.582-8-8-8h-72c-4.418,0-8,3.582-8,8v56h-48V72c0-4.418-3.582-8-8-8h-56c-4.418,0-8,3.582-8,8v40
			h-48c-4.418,0-8,3.582-8,8v24h-48V56c0-4.418-3.582-8-8-8H48c-4.418,0-8,3.582-8,8v328H0v48h480v-48H432z M360,80h56v24h-56V80z
			 M360,120h56v16h-56V120z M360,152h56v160h-56V152z M360,328h56v16h-56V328z M360,360h56v24h-56V360z M296,144h48v240h-48V144z
			 M240,80h40v16h-40V80z M240,120v-8h40v160h-40V120z M240,288h40v64h-40V288z M240,368h40v16h-40V368z M184,128h40v256h-40V128z
			 M120,160h48v16h-48V160z M120,192h48v160h-48V192z M120,368h48v16h-48V368z M56,64h48v24H56V64z M56,104h48v16H56V104z M56,136
			h48v248H56V136z M464,416H16v-16h448V416z"/>
</svg>
